%TF.GenerationSoftware,KiCad,Pcbnew,(5.1.9)-1*%
%TF.CreationDate,2021-09-26T23:12:42-04:00*%
%TF.ProjectId,p21014,70323130-3134-42e6-9b69-6361645f7063,rev?*%
%TF.SameCoordinates,Original*%
%TF.FileFunction,Legend,Bot*%
%TF.FilePolarity,Positive*%
%FSLAX46Y46*%
G04 Gerber Fmt 4.6, Leading zero omitted, Abs format (unit mm)*
G04 Created by KiCad (PCBNEW (5.1.9)-1) date 2021-09-26 23:12:42*
%MOMM*%
%LPD*%
G01*
G04 APERTURE LIST*
%ADD10C,0.150000*%
%ADD11C,0.010000*%
%ADD12C,0.250000*%
%ADD13C,0.050000*%
G04 APERTURE END LIST*
D10*
X177727142Y-49712619D02*
X177727142Y-50712619D01*
X178108095Y-50712619D01*
X178203333Y-50665000D01*
X178250952Y-50617380D01*
X178298571Y-50522142D01*
X178298571Y-50379285D01*
X178250952Y-50284047D01*
X178203333Y-50236428D01*
X178108095Y-50188809D01*
X177727142Y-50188809D01*
X178679523Y-50617380D02*
X178727142Y-50665000D01*
X178822380Y-50712619D01*
X179060476Y-50712619D01*
X179155714Y-50665000D01*
X179203333Y-50617380D01*
X179250952Y-50522142D01*
X179250952Y-50426904D01*
X179203333Y-50284047D01*
X178631904Y-49712619D01*
X179250952Y-49712619D01*
X180203333Y-49712619D02*
X179631904Y-49712619D01*
X179917619Y-49712619D02*
X179917619Y-50712619D01*
X179822380Y-50569761D01*
X179727142Y-50474523D01*
X179631904Y-50426904D01*
X180822380Y-50712619D02*
X180917619Y-50712619D01*
X181012857Y-50665000D01*
X181060476Y-50617380D01*
X181108095Y-50522142D01*
X181155714Y-50331666D01*
X181155714Y-50093571D01*
X181108095Y-49903095D01*
X181060476Y-49807857D01*
X181012857Y-49760238D01*
X180917619Y-49712619D01*
X180822380Y-49712619D01*
X180727142Y-49760238D01*
X180679523Y-49807857D01*
X180631904Y-49903095D01*
X180584285Y-50093571D01*
X180584285Y-50331666D01*
X180631904Y-50522142D01*
X180679523Y-50617380D01*
X180727142Y-50665000D01*
X180822380Y-50712619D01*
X182108095Y-49712619D02*
X181536666Y-49712619D01*
X181822380Y-49712619D02*
X181822380Y-50712619D01*
X181727142Y-50569761D01*
X181631904Y-50474523D01*
X181536666Y-50426904D01*
X182965238Y-50379285D02*
X182965238Y-49712619D01*
X182727142Y-50760238D02*
X182489047Y-50045952D01*
X183108095Y-50045952D01*
X176774761Y-48062619D02*
X176774761Y-49062619D01*
X177108095Y-48348333D01*
X177441428Y-49062619D01*
X177441428Y-48062619D01*
X177870000Y-48110238D02*
X178012857Y-48062619D01*
X178250952Y-48062619D01*
X178346190Y-48110238D01*
X178393809Y-48157857D01*
X178441428Y-48253095D01*
X178441428Y-48348333D01*
X178393809Y-48443571D01*
X178346190Y-48491190D01*
X178250952Y-48538809D01*
X178060476Y-48586428D01*
X177965238Y-48634047D01*
X177917619Y-48681666D01*
X177870000Y-48776904D01*
X177870000Y-48872142D01*
X177917619Y-48967380D01*
X177965238Y-49015000D01*
X178060476Y-49062619D01*
X178298571Y-49062619D01*
X178441428Y-49015000D01*
X178870000Y-48062619D02*
X178870000Y-49062619D01*
X179108095Y-49062619D01*
X179250952Y-49015000D01*
X179346190Y-48919761D01*
X179393809Y-48824523D01*
X179441428Y-48634047D01*
X179441428Y-48491190D01*
X179393809Y-48300714D01*
X179346190Y-48205476D01*
X179250952Y-48110238D01*
X179108095Y-48062619D01*
X178870000Y-48062619D01*
X180584285Y-48967380D02*
X180631904Y-49015000D01*
X180727142Y-49062619D01*
X180965238Y-49062619D01*
X181060476Y-49015000D01*
X181108095Y-48967380D01*
X181155714Y-48872142D01*
X181155714Y-48776904D01*
X181108095Y-48634047D01*
X180536666Y-48062619D01*
X181155714Y-48062619D01*
X181774761Y-49062619D02*
X181870000Y-49062619D01*
X181965238Y-49015000D01*
X182012857Y-48967380D01*
X182060476Y-48872142D01*
X182108095Y-48681666D01*
X182108095Y-48443571D01*
X182060476Y-48253095D01*
X182012857Y-48157857D01*
X181965238Y-48110238D01*
X181870000Y-48062619D01*
X181774761Y-48062619D01*
X181679523Y-48110238D01*
X181631904Y-48157857D01*
X181584285Y-48253095D01*
X181536666Y-48443571D01*
X181536666Y-48681666D01*
X181584285Y-48872142D01*
X181631904Y-48967380D01*
X181679523Y-49015000D01*
X181774761Y-49062619D01*
X182489047Y-48967380D02*
X182536666Y-49015000D01*
X182631904Y-49062619D01*
X182870000Y-49062619D01*
X182965238Y-49015000D01*
X183012857Y-48967380D01*
X183060476Y-48872142D01*
X183060476Y-48776904D01*
X183012857Y-48634047D01*
X182441428Y-48062619D01*
X183060476Y-48062619D01*
X184012857Y-48062619D02*
X183441428Y-48062619D01*
X183727142Y-48062619D02*
X183727142Y-49062619D01*
X183631904Y-48919761D01*
X183536666Y-48824523D01*
X183441428Y-48776904D01*
X218452619Y-64268571D02*
X218405000Y-64316190D01*
X218357380Y-64411428D01*
X218357380Y-64649523D01*
X218405000Y-64744761D01*
X218452619Y-64792380D01*
X218547857Y-64840000D01*
X218643095Y-64840000D01*
X218785952Y-64792380D01*
X219357380Y-64220952D01*
X219357380Y-64840000D01*
X218357380Y-65411428D02*
X218595476Y-65411428D01*
X218500238Y-65173333D02*
X218595476Y-65411428D01*
X218500238Y-65649523D01*
X218785952Y-65268571D02*
X218595476Y-65411428D01*
X218785952Y-65554285D01*
X219262142Y-66601904D02*
X219309761Y-66554285D01*
X219357380Y-66411428D01*
X219357380Y-66316190D01*
X219309761Y-66173333D01*
X219214523Y-66078095D01*
X219119285Y-66030476D01*
X218928809Y-65982857D01*
X218785952Y-65982857D01*
X218595476Y-66030476D01*
X218500238Y-66078095D01*
X218405000Y-66173333D01*
X218357380Y-66316190D01*
X218357380Y-66411428D01*
X218405000Y-66554285D01*
X218452619Y-66601904D01*
X219357380Y-67601904D02*
X218881190Y-67268571D01*
X219357380Y-67030476D02*
X218357380Y-67030476D01*
X218357380Y-67411428D01*
X218405000Y-67506666D01*
X218452619Y-67554285D01*
X218547857Y-67601904D01*
X218690714Y-67601904D01*
X218785952Y-67554285D01*
X218833571Y-67506666D01*
X218881190Y-67411428D01*
X218881190Y-67030476D01*
X218452619Y-67982857D02*
X218405000Y-68030476D01*
X218357380Y-68125714D01*
X218357380Y-68363809D01*
X218405000Y-68459047D01*
X218452619Y-68506666D01*
X218547857Y-68554285D01*
X218643095Y-68554285D01*
X218785952Y-68506666D01*
X219357380Y-67935238D01*
X219357380Y-68554285D01*
X218357380Y-68887619D02*
X218357380Y-69506666D01*
X218738333Y-69173333D01*
X218738333Y-69316190D01*
X218785952Y-69411428D01*
X218833571Y-69459047D01*
X218928809Y-69506666D01*
X219166904Y-69506666D01*
X219262142Y-69459047D01*
X219309761Y-69411428D01*
X219357380Y-69316190D01*
X219357380Y-69030476D01*
X219309761Y-68935238D01*
X219262142Y-68887619D01*
X218357380Y-69840000D02*
X218357380Y-70459047D01*
X218738333Y-70125714D01*
X218738333Y-70268571D01*
X218785952Y-70363809D01*
X218833571Y-70411428D01*
X218928809Y-70459047D01*
X219166904Y-70459047D01*
X219262142Y-70411428D01*
X219309761Y-70363809D01*
X219357380Y-70268571D01*
X219357380Y-69982857D01*
X219309761Y-69887619D01*
X219262142Y-69840000D01*
X218357380Y-71078095D02*
X218357380Y-71173333D01*
X218405000Y-71268571D01*
X218452619Y-71316190D01*
X218547857Y-71363809D01*
X218738333Y-71411428D01*
X218976428Y-71411428D01*
X219166904Y-71363809D01*
X219262142Y-71316190D01*
X219309761Y-71268571D01*
X219357380Y-71173333D01*
X219357380Y-71078095D01*
X219309761Y-70982857D01*
X219262142Y-70935238D01*
X219166904Y-70887619D01*
X218976428Y-70840000D01*
X218738333Y-70840000D01*
X218547857Y-70887619D01*
X218452619Y-70935238D01*
X218405000Y-70982857D01*
X218357380Y-71078095D01*
X220483571Y-65078095D02*
X220531190Y-65220952D01*
X220578809Y-65268571D01*
X220674047Y-65316190D01*
X220816904Y-65316190D01*
X220912142Y-65268571D01*
X220959761Y-65220952D01*
X221007380Y-65125714D01*
X221007380Y-64744761D01*
X220007380Y-64744761D01*
X220007380Y-65078095D01*
X220055000Y-65173333D01*
X220102619Y-65220952D01*
X220197857Y-65268571D01*
X220293095Y-65268571D01*
X220388333Y-65220952D01*
X220435952Y-65173333D01*
X220483571Y-65078095D01*
X220483571Y-64744761D01*
X221007380Y-66173333D02*
X220483571Y-66173333D01*
X220388333Y-66125714D01*
X220340714Y-66030476D01*
X220340714Y-65840000D01*
X220388333Y-65744761D01*
X220959761Y-66173333D02*
X221007380Y-66078095D01*
X221007380Y-65840000D01*
X220959761Y-65744761D01*
X220864523Y-65697142D01*
X220769285Y-65697142D01*
X220674047Y-65744761D01*
X220626428Y-65840000D01*
X220626428Y-66078095D01*
X220578809Y-66173333D01*
X220340714Y-66506666D02*
X220340714Y-66887619D01*
X220007380Y-66649523D02*
X220864523Y-66649523D01*
X220959761Y-66697142D01*
X221007380Y-66792380D01*
X221007380Y-66887619D01*
X220340714Y-67078095D02*
X220340714Y-67459047D01*
X220007380Y-67220952D02*
X220864523Y-67220952D01*
X220959761Y-67268571D01*
X221007380Y-67363809D01*
X221007380Y-67459047D01*
X220959761Y-68173333D02*
X221007380Y-68078095D01*
X221007380Y-67887619D01*
X220959761Y-67792380D01*
X220864523Y-67744761D01*
X220483571Y-67744761D01*
X220388333Y-67792380D01*
X220340714Y-67887619D01*
X220340714Y-68078095D01*
X220388333Y-68173333D01*
X220483571Y-68220952D01*
X220578809Y-68220952D01*
X220674047Y-67744761D01*
X221007380Y-68649523D02*
X220340714Y-68649523D01*
X220531190Y-68649523D02*
X220435952Y-68697142D01*
X220388333Y-68744761D01*
X220340714Y-68840000D01*
X220340714Y-68935238D01*
X221007380Y-69268571D02*
X220340714Y-69268571D01*
X220007380Y-69268571D02*
X220055000Y-69220952D01*
X220102619Y-69268571D01*
X220055000Y-69316190D01*
X220007380Y-69268571D01*
X220102619Y-69268571D01*
X220959761Y-70125714D02*
X221007380Y-70030476D01*
X221007380Y-69840000D01*
X220959761Y-69744761D01*
X220864523Y-69697142D01*
X220483571Y-69697142D01*
X220388333Y-69744761D01*
X220340714Y-69840000D01*
X220340714Y-70030476D01*
X220388333Y-70125714D01*
X220483571Y-70173333D01*
X220578809Y-70173333D01*
X220674047Y-69697142D01*
X220959761Y-70554285D02*
X221007380Y-70649523D01*
X221007380Y-70840000D01*
X220959761Y-70935238D01*
X220864523Y-70982857D01*
X220816904Y-70982857D01*
X220721666Y-70935238D01*
X220674047Y-70840000D01*
X220674047Y-70697142D01*
X220626428Y-70601904D01*
X220531190Y-70554285D01*
X220483571Y-70554285D01*
X220388333Y-70601904D01*
X220340714Y-70697142D01*
X220340714Y-70840000D01*
X220388333Y-70935238D01*
D11*
%TO.C,G55*%
G36*
X182132822Y-52708627D02*
G01*
X182134028Y-52753155D01*
X182135523Y-52808476D01*
X182137231Y-52871841D01*
X182139080Y-52940503D01*
X182140995Y-53011712D01*
X182142902Y-53082719D01*
X182144632Y-53147200D01*
X182148135Y-53295067D01*
X182150680Y-53440500D01*
X182152260Y-53581721D01*
X182152868Y-53716954D01*
X182152499Y-53844423D01*
X182151146Y-53962350D01*
X182148801Y-54068960D01*
X182148109Y-54092080D01*
X182146485Y-54141796D01*
X182144889Y-54187753D01*
X182143393Y-54228008D01*
X182142075Y-54260617D01*
X182141008Y-54283637D01*
X182140269Y-54295122D01*
X182140251Y-54295280D01*
X182139622Y-54306044D01*
X182138764Y-54328578D01*
X182137730Y-54361109D01*
X182136570Y-54401862D01*
X182135337Y-54449064D01*
X182134083Y-54500941D01*
X182133444Y-54528960D01*
X182132460Y-54712204D01*
X182138004Y-54883791D01*
X182150150Y-55043973D01*
X182168970Y-55193001D01*
X182194538Y-55331128D01*
X182226926Y-55458606D01*
X182266207Y-55575686D01*
X182312455Y-55682622D01*
X182365742Y-55779664D01*
X182426140Y-55867066D01*
X182493724Y-55945079D01*
X182561271Y-56007906D01*
X182637468Y-56065836D01*
X182717252Y-56114367D01*
X182802643Y-56154400D01*
X182895661Y-56186835D01*
X182998325Y-56212572D01*
X183037920Y-56220349D01*
X183081570Y-56226536D01*
X183134890Y-56231202D01*
X183194758Y-56234325D01*
X183258056Y-56235884D01*
X183321664Y-56235856D01*
X183382461Y-56234221D01*
X183437328Y-56230956D01*
X183483145Y-56226040D01*
X183498507Y-56223557D01*
X183597697Y-56202201D01*
X183687251Y-56175928D01*
X183770568Y-56143507D01*
X183851047Y-56103710D01*
X183887974Y-56082632D01*
X183984061Y-56017728D01*
X184072895Y-55941502D01*
X184154243Y-55854215D01*
X184227873Y-55756129D01*
X184293553Y-55647509D01*
X184321523Y-55593069D01*
X184350375Y-55531267D01*
X184375475Y-55471410D01*
X184397406Y-55411386D01*
X184416750Y-55349088D01*
X184434089Y-55282406D01*
X184450004Y-55209231D01*
X184465078Y-55127453D01*
X184479893Y-55034965D01*
X184484969Y-55000740D01*
X184487886Y-54986100D01*
X184492187Y-54982769D01*
X184499698Y-54987952D01*
X184506172Y-54993588D01*
X184522223Y-55007571D01*
X184547212Y-55029348D01*
X184580506Y-55058365D01*
X184621467Y-55094068D01*
X184669461Y-55135902D01*
X184723852Y-55183313D01*
X184784003Y-55235747D01*
X184849280Y-55292651D01*
X184919046Y-55353469D01*
X184992666Y-55417648D01*
X185069504Y-55484633D01*
X185130880Y-55538140D01*
X185215637Y-55612025D01*
X185301550Y-55686907D01*
X185387605Y-55761904D01*
X185472786Y-55836130D01*
X185556078Y-55908701D01*
X185636466Y-55978733D01*
X185712936Y-56045341D01*
X185784471Y-56107642D01*
X185850057Y-56164751D01*
X185908678Y-56215783D01*
X185959320Y-56259855D01*
X186000967Y-56296083D01*
X186008027Y-56302221D01*
X186088929Y-56372884D01*
X186159968Y-56435656D01*
X186221807Y-56491170D01*
X186275111Y-56540061D01*
X186320545Y-56582962D01*
X186358773Y-56620507D01*
X186390460Y-56653330D01*
X186416270Y-56682063D01*
X186436868Y-56707340D01*
X186446310Y-56720133D01*
X186493249Y-56796880D01*
X186532101Y-56883325D01*
X186563095Y-56980048D01*
X186582131Y-57063880D01*
X186596713Y-57140080D01*
X186756480Y-57140080D01*
X186756350Y-57094360D01*
X186755942Y-57072183D01*
X186754894Y-57039822D01*
X186753337Y-57000618D01*
X186751400Y-56957910D01*
X186749836Y-56926720D01*
X186745095Y-56834798D01*
X186741171Y-56754762D01*
X186738055Y-56684977D01*
X186735738Y-56623806D01*
X186734208Y-56569613D01*
X186733457Y-56520764D01*
X186733475Y-56475623D01*
X186734252Y-56432554D01*
X186735777Y-56389921D01*
X186738042Y-56346088D01*
X186741036Y-56299421D01*
X186744750Y-56248284D01*
X186745696Y-56235840D01*
X186747326Y-56211389D01*
X186749266Y-56177444D01*
X186751299Y-56138048D01*
X186753209Y-56097242D01*
X186753662Y-56086827D01*
X186758003Y-55985227D01*
X186569282Y-55832454D01*
X186540171Y-55808911D01*
X186501363Y-55777559D01*
X186453710Y-55739086D01*
X186398065Y-55694181D01*
X186335281Y-55643530D01*
X186266212Y-55587823D01*
X186191709Y-55527746D01*
X186112627Y-55463987D01*
X186029817Y-55397235D01*
X185944134Y-55328177D01*
X185856430Y-55257501D01*
X185767559Y-55185895D01*
X185679520Y-55114971D01*
X185559937Y-55018624D01*
X185450457Y-54930367D01*
X185350613Y-54849816D01*
X185259942Y-54776585D01*
X185177979Y-54710289D01*
X185104258Y-54650541D01*
X185038316Y-54596957D01*
X184979687Y-54549150D01*
X184927906Y-54506736D01*
X184882509Y-54469329D01*
X184843031Y-54436543D01*
X184809006Y-54407992D01*
X184779971Y-54383292D01*
X184755459Y-54362057D01*
X184735008Y-54343900D01*
X184718151Y-54328438D01*
X184704424Y-54315283D01*
X184693361Y-54304051D01*
X184684499Y-54294356D01*
X184677373Y-54285813D01*
X184673134Y-54280264D01*
X184654095Y-54251396D01*
X184639225Y-54221139D01*
X184627851Y-54187025D01*
X184619301Y-54146587D01*
X184612902Y-54097358D01*
X184608356Y-54042453D01*
X184605709Y-54000799D01*
X184604326Y-53970706D01*
X184604241Y-53950242D01*
X184605484Y-53937477D01*
X184608089Y-53930481D01*
X184610260Y-53928290D01*
X184618379Y-53927316D01*
X184638929Y-53926501D01*
X184670795Y-53925839D01*
X184712863Y-53925324D01*
X184764019Y-53924949D01*
X184823146Y-53924710D01*
X184889132Y-53924600D01*
X184960861Y-53924613D01*
X185037218Y-53924742D01*
X185117090Y-53924983D01*
X185199360Y-53925328D01*
X185282916Y-53925772D01*
X185366641Y-53926309D01*
X185449422Y-53926932D01*
X185530143Y-53927637D01*
X185607691Y-53928416D01*
X185680950Y-53929264D01*
X185748806Y-53930175D01*
X185810144Y-53931142D01*
X185863850Y-53932160D01*
X185908808Y-53933222D01*
X185943905Y-53934324D01*
X185968026Y-53935457D01*
X185970774Y-53935640D01*
X186058965Y-53942390D01*
X186134799Y-53949372D01*
X186199467Y-53956754D01*
X186254157Y-53964701D01*
X186300059Y-53973378D01*
X186338363Y-53982953D01*
X186360599Y-53990034D01*
X186416878Y-54015196D01*
X186463937Y-54048395D01*
X186502833Y-54090775D01*
X186534620Y-54143480D01*
X186559705Y-54205682D01*
X186570520Y-54242974D01*
X186579292Y-54284344D01*
X186586312Y-54331925D01*
X186591870Y-54387848D01*
X186596254Y-54454246D01*
X186597854Y-54486627D01*
X186602081Y-54579760D01*
X186758395Y-54579760D01*
X186753905Y-54395187D01*
X186752544Y-54341684D01*
X186751076Y-54288288D01*
X186749587Y-54237805D01*
X186748161Y-54193043D01*
X186746885Y-54156807D01*
X186746041Y-54136107D01*
X186743241Y-54069035D01*
X186740659Y-53996929D01*
X186738335Y-53921814D01*
X186736308Y-53845715D01*
X186734620Y-53770659D01*
X186733311Y-53698670D01*
X186732422Y-53631774D01*
X186731993Y-53571997D01*
X186732064Y-53521365D01*
X186732677Y-53481902D01*
X186732835Y-53476538D01*
X186735111Y-53404613D01*
X186737445Y-53328787D01*
X186739799Y-53250420D01*
X186742138Y-53170871D01*
X186744423Y-53091497D01*
X186746619Y-53013659D01*
X186748686Y-52938715D01*
X186750590Y-52868024D01*
X186752291Y-52802945D01*
X186753754Y-52744837D01*
X186754941Y-52695058D01*
X186755815Y-52654968D01*
X186756338Y-52625925D01*
X186756480Y-52611129D01*
X186756480Y-52547760D01*
X186602681Y-52547760D01*
X186598301Y-52599582D01*
X186596002Y-52633871D01*
X186594401Y-52671273D01*
X186593880Y-52699488D01*
X186592736Y-52729114D01*
X186589731Y-52765480D01*
X186585441Y-52802000D01*
X186584003Y-52811920D01*
X186567922Y-52891798D01*
X186545583Y-52960086D01*
X186516442Y-53017473D01*
X186479959Y-53064651D01*
X186435591Y-53102309D01*
X186382796Y-53131138D01*
X186321031Y-53151830D01*
X186316214Y-53153026D01*
X186272859Y-53161890D01*
X186218201Y-53170361D01*
X186154481Y-53178216D01*
X186083939Y-53185230D01*
X186008819Y-53191179D01*
X185931361Y-53195838D01*
X185859014Y-53198822D01*
X185838364Y-53199246D01*
X185805133Y-53199632D01*
X185760135Y-53199979D01*
X185704185Y-53200289D01*
X185638098Y-53200561D01*
X185562689Y-53200798D01*
X185478773Y-53200999D01*
X185387166Y-53201165D01*
X185288682Y-53201298D01*
X185184136Y-53201397D01*
X185074343Y-53201464D01*
X184960119Y-53201499D01*
X184842277Y-53201503D01*
X184721634Y-53201477D01*
X184599005Y-53201422D01*
X184475203Y-53201338D01*
X184351045Y-53201225D01*
X184227345Y-53201086D01*
X184104919Y-53200920D01*
X183984580Y-53200728D01*
X183950175Y-53200665D01*
X183950175Y-53923793D01*
X184038340Y-53923820D01*
X184119024Y-53923889D01*
X184191463Y-53924000D01*
X184254895Y-53924151D01*
X184308557Y-53924342D01*
X184351687Y-53924572D01*
X184383522Y-53924839D01*
X184403300Y-53925144D01*
X184410230Y-53925468D01*
X184413578Y-53931599D01*
X184415589Y-53947645D01*
X184416328Y-53974737D01*
X184415857Y-54014002D01*
X184415657Y-54022137D01*
X184414775Y-54057380D01*
X184413699Y-54102585D01*
X184412510Y-54154171D01*
X184411291Y-54208555D01*
X184410124Y-54262155D01*
X184409779Y-54278347D01*
X184403784Y-54426159D01*
X184392125Y-54561960D01*
X184374525Y-54686165D01*
X184350707Y-54799193D01*
X184320392Y-54901459D01*
X184283305Y-54993382D01*
X184239167Y-55075378D01*
X184187702Y-55147866D01*
X184128632Y-55211261D01*
X184061680Y-55265982D01*
X183986568Y-55312445D01*
X183903020Y-55351067D01*
X183810758Y-55382267D01*
X183709505Y-55406461D01*
X183653463Y-55416371D01*
X183610153Y-55421749D01*
X183556816Y-55426099D01*
X183496940Y-55429332D01*
X183434014Y-55431359D01*
X183371525Y-55432091D01*
X183312961Y-55431441D01*
X183261809Y-55429319D01*
X183233462Y-55427035D01*
X183110402Y-55408695D01*
X182994856Y-55380066D01*
X182887236Y-55341445D01*
X182787949Y-55293129D01*
X182697407Y-55235417D01*
X182616017Y-55168606D01*
X182544191Y-55092993D01*
X182482336Y-55008876D01*
X182430863Y-54916553D01*
X182390182Y-54816321D01*
X182389214Y-54813440D01*
X182376054Y-54771800D01*
X182365003Y-54731229D01*
X182355883Y-54690057D01*
X182348515Y-54646613D01*
X182342722Y-54599228D01*
X182338327Y-54546231D01*
X182335150Y-54485954D01*
X182333015Y-54416725D01*
X182331743Y-54336875D01*
X182331250Y-54269472D01*
X182330963Y-54201407D01*
X182330922Y-54145509D01*
X182331327Y-54100398D01*
X182332376Y-54064693D01*
X182334270Y-54037015D01*
X182337209Y-54015984D01*
X182341391Y-54000220D01*
X182347016Y-53988342D01*
X182354284Y-53978971D01*
X182363395Y-53970727D01*
X182374547Y-53962230D01*
X182375820Y-53961285D01*
X182382012Y-53956525D01*
X182387582Y-53952215D01*
X182393199Y-53948333D01*
X182399532Y-53944854D01*
X182407250Y-53941756D01*
X182417021Y-53939014D01*
X182429516Y-53936605D01*
X182445402Y-53934505D01*
X182465350Y-53932691D01*
X182490027Y-53931139D01*
X182520104Y-53929826D01*
X182556248Y-53928727D01*
X182599130Y-53927820D01*
X182649418Y-53927081D01*
X182707781Y-53926486D01*
X182774889Y-53926011D01*
X182851409Y-53925633D01*
X182938012Y-53925329D01*
X183035366Y-53925074D01*
X183144141Y-53924846D01*
X183265005Y-53924620D01*
X183398627Y-53924373D01*
X183423808Y-53924326D01*
X183537945Y-53924127D01*
X183648412Y-53923976D01*
X183754448Y-53923870D01*
X183855290Y-53923810D01*
X183950175Y-53923793D01*
X183950175Y-53200665D01*
X183867146Y-53200511D01*
X183753429Y-53200270D01*
X183644246Y-53200006D01*
X183540412Y-53199718D01*
X183442741Y-53199409D01*
X183352048Y-53199078D01*
X183269148Y-53198727D01*
X183194858Y-53198356D01*
X183129990Y-53197965D01*
X183075361Y-53197557D01*
X183031786Y-53197131D01*
X183000079Y-53196687D01*
X182981056Y-53196228D01*
X182980347Y-53196201D01*
X182867292Y-53190244D01*
X182766523Y-53181995D01*
X182678240Y-53171484D01*
X182602645Y-53158743D01*
X182539939Y-53143801D01*
X182490323Y-53126691D01*
X182472740Y-53118508D01*
X182450821Y-53103864D01*
X182425018Y-53081666D01*
X182399034Y-53055581D01*
X182376573Y-53029275D01*
X182363559Y-53010415D01*
X182340094Y-52962959D01*
X182321690Y-52908697D01*
X182308088Y-52846270D01*
X182299032Y-52774325D01*
X182294263Y-52691504D01*
X182293375Y-52640893D01*
X182292854Y-52547760D01*
X182128457Y-52547760D01*
X182132822Y-52708627D01*
G37*
X182132822Y-52708627D02*
X182134028Y-52753155D01*
X182135523Y-52808476D01*
X182137231Y-52871841D01*
X182139080Y-52940503D01*
X182140995Y-53011712D01*
X182142902Y-53082719D01*
X182144632Y-53147200D01*
X182148135Y-53295067D01*
X182150680Y-53440500D01*
X182152260Y-53581721D01*
X182152868Y-53716954D01*
X182152499Y-53844423D01*
X182151146Y-53962350D01*
X182148801Y-54068960D01*
X182148109Y-54092080D01*
X182146485Y-54141796D01*
X182144889Y-54187753D01*
X182143393Y-54228008D01*
X182142075Y-54260617D01*
X182141008Y-54283637D01*
X182140269Y-54295122D01*
X182140251Y-54295280D01*
X182139622Y-54306044D01*
X182138764Y-54328578D01*
X182137730Y-54361109D01*
X182136570Y-54401862D01*
X182135337Y-54449064D01*
X182134083Y-54500941D01*
X182133444Y-54528960D01*
X182132460Y-54712204D01*
X182138004Y-54883791D01*
X182150150Y-55043973D01*
X182168970Y-55193001D01*
X182194538Y-55331128D01*
X182226926Y-55458606D01*
X182266207Y-55575686D01*
X182312455Y-55682622D01*
X182365742Y-55779664D01*
X182426140Y-55867066D01*
X182493724Y-55945079D01*
X182561271Y-56007906D01*
X182637468Y-56065836D01*
X182717252Y-56114367D01*
X182802643Y-56154400D01*
X182895661Y-56186835D01*
X182998325Y-56212572D01*
X183037920Y-56220349D01*
X183081570Y-56226536D01*
X183134890Y-56231202D01*
X183194758Y-56234325D01*
X183258056Y-56235884D01*
X183321664Y-56235856D01*
X183382461Y-56234221D01*
X183437328Y-56230956D01*
X183483145Y-56226040D01*
X183498507Y-56223557D01*
X183597697Y-56202201D01*
X183687251Y-56175928D01*
X183770568Y-56143507D01*
X183851047Y-56103710D01*
X183887974Y-56082632D01*
X183984061Y-56017728D01*
X184072895Y-55941502D01*
X184154243Y-55854215D01*
X184227873Y-55756129D01*
X184293553Y-55647509D01*
X184321523Y-55593069D01*
X184350375Y-55531267D01*
X184375475Y-55471410D01*
X184397406Y-55411386D01*
X184416750Y-55349088D01*
X184434089Y-55282406D01*
X184450004Y-55209231D01*
X184465078Y-55127453D01*
X184479893Y-55034965D01*
X184484969Y-55000740D01*
X184487886Y-54986100D01*
X184492187Y-54982769D01*
X184499698Y-54987952D01*
X184506172Y-54993588D01*
X184522223Y-55007571D01*
X184547212Y-55029348D01*
X184580506Y-55058365D01*
X184621467Y-55094068D01*
X184669461Y-55135902D01*
X184723852Y-55183313D01*
X184784003Y-55235747D01*
X184849280Y-55292651D01*
X184919046Y-55353469D01*
X184992666Y-55417648D01*
X185069504Y-55484633D01*
X185130880Y-55538140D01*
X185215637Y-55612025D01*
X185301550Y-55686907D01*
X185387605Y-55761904D01*
X185472786Y-55836130D01*
X185556078Y-55908701D01*
X185636466Y-55978733D01*
X185712936Y-56045341D01*
X185784471Y-56107642D01*
X185850057Y-56164751D01*
X185908678Y-56215783D01*
X185959320Y-56259855D01*
X186000967Y-56296083D01*
X186008027Y-56302221D01*
X186088929Y-56372884D01*
X186159968Y-56435656D01*
X186221807Y-56491170D01*
X186275111Y-56540061D01*
X186320545Y-56582962D01*
X186358773Y-56620507D01*
X186390460Y-56653330D01*
X186416270Y-56682063D01*
X186436868Y-56707340D01*
X186446310Y-56720133D01*
X186493249Y-56796880D01*
X186532101Y-56883325D01*
X186563095Y-56980048D01*
X186582131Y-57063880D01*
X186596713Y-57140080D01*
X186756480Y-57140080D01*
X186756350Y-57094360D01*
X186755942Y-57072183D01*
X186754894Y-57039822D01*
X186753337Y-57000618D01*
X186751400Y-56957910D01*
X186749836Y-56926720D01*
X186745095Y-56834798D01*
X186741171Y-56754762D01*
X186738055Y-56684977D01*
X186735738Y-56623806D01*
X186734208Y-56569613D01*
X186733457Y-56520764D01*
X186733475Y-56475623D01*
X186734252Y-56432554D01*
X186735777Y-56389921D01*
X186738042Y-56346088D01*
X186741036Y-56299421D01*
X186744750Y-56248284D01*
X186745696Y-56235840D01*
X186747326Y-56211389D01*
X186749266Y-56177444D01*
X186751299Y-56138048D01*
X186753209Y-56097242D01*
X186753662Y-56086827D01*
X186758003Y-55985227D01*
X186569282Y-55832454D01*
X186540171Y-55808911D01*
X186501363Y-55777559D01*
X186453710Y-55739086D01*
X186398065Y-55694181D01*
X186335281Y-55643530D01*
X186266212Y-55587823D01*
X186191709Y-55527746D01*
X186112627Y-55463987D01*
X186029817Y-55397235D01*
X185944134Y-55328177D01*
X185856430Y-55257501D01*
X185767559Y-55185895D01*
X185679520Y-55114971D01*
X185559937Y-55018624D01*
X185450457Y-54930367D01*
X185350613Y-54849816D01*
X185259942Y-54776585D01*
X185177979Y-54710289D01*
X185104258Y-54650541D01*
X185038316Y-54596957D01*
X184979687Y-54549150D01*
X184927906Y-54506736D01*
X184882509Y-54469329D01*
X184843031Y-54436543D01*
X184809006Y-54407992D01*
X184779971Y-54383292D01*
X184755459Y-54362057D01*
X184735008Y-54343900D01*
X184718151Y-54328438D01*
X184704424Y-54315283D01*
X184693361Y-54304051D01*
X184684499Y-54294356D01*
X184677373Y-54285813D01*
X184673134Y-54280264D01*
X184654095Y-54251396D01*
X184639225Y-54221139D01*
X184627851Y-54187025D01*
X184619301Y-54146587D01*
X184612902Y-54097358D01*
X184608356Y-54042453D01*
X184605709Y-54000799D01*
X184604326Y-53970706D01*
X184604241Y-53950242D01*
X184605484Y-53937477D01*
X184608089Y-53930481D01*
X184610260Y-53928290D01*
X184618379Y-53927316D01*
X184638929Y-53926501D01*
X184670795Y-53925839D01*
X184712863Y-53925324D01*
X184764019Y-53924949D01*
X184823146Y-53924710D01*
X184889132Y-53924600D01*
X184960861Y-53924613D01*
X185037218Y-53924742D01*
X185117090Y-53924983D01*
X185199360Y-53925328D01*
X185282916Y-53925772D01*
X185366641Y-53926309D01*
X185449422Y-53926932D01*
X185530143Y-53927637D01*
X185607691Y-53928416D01*
X185680950Y-53929264D01*
X185748806Y-53930175D01*
X185810144Y-53931142D01*
X185863850Y-53932160D01*
X185908808Y-53933222D01*
X185943905Y-53934324D01*
X185968026Y-53935457D01*
X185970774Y-53935640D01*
X186058965Y-53942390D01*
X186134799Y-53949372D01*
X186199467Y-53956754D01*
X186254157Y-53964701D01*
X186300059Y-53973378D01*
X186338363Y-53982953D01*
X186360599Y-53990034D01*
X186416878Y-54015196D01*
X186463937Y-54048395D01*
X186502833Y-54090775D01*
X186534620Y-54143480D01*
X186559705Y-54205682D01*
X186570520Y-54242974D01*
X186579292Y-54284344D01*
X186586312Y-54331925D01*
X186591870Y-54387848D01*
X186596254Y-54454246D01*
X186597854Y-54486627D01*
X186602081Y-54579760D01*
X186758395Y-54579760D01*
X186753905Y-54395187D01*
X186752544Y-54341684D01*
X186751076Y-54288288D01*
X186749587Y-54237805D01*
X186748161Y-54193043D01*
X186746885Y-54156807D01*
X186746041Y-54136107D01*
X186743241Y-54069035D01*
X186740659Y-53996929D01*
X186738335Y-53921814D01*
X186736308Y-53845715D01*
X186734620Y-53770659D01*
X186733311Y-53698670D01*
X186732422Y-53631774D01*
X186731993Y-53571997D01*
X186732064Y-53521365D01*
X186732677Y-53481902D01*
X186732835Y-53476538D01*
X186735111Y-53404613D01*
X186737445Y-53328787D01*
X186739799Y-53250420D01*
X186742138Y-53170871D01*
X186744423Y-53091497D01*
X186746619Y-53013659D01*
X186748686Y-52938715D01*
X186750590Y-52868024D01*
X186752291Y-52802945D01*
X186753754Y-52744837D01*
X186754941Y-52695058D01*
X186755815Y-52654968D01*
X186756338Y-52625925D01*
X186756480Y-52611129D01*
X186756480Y-52547760D01*
X186602681Y-52547760D01*
X186598301Y-52599582D01*
X186596002Y-52633871D01*
X186594401Y-52671273D01*
X186593880Y-52699488D01*
X186592736Y-52729114D01*
X186589731Y-52765480D01*
X186585441Y-52802000D01*
X186584003Y-52811920D01*
X186567922Y-52891798D01*
X186545583Y-52960086D01*
X186516442Y-53017473D01*
X186479959Y-53064651D01*
X186435591Y-53102309D01*
X186382796Y-53131138D01*
X186321031Y-53151830D01*
X186316214Y-53153026D01*
X186272859Y-53161890D01*
X186218201Y-53170361D01*
X186154481Y-53178216D01*
X186083939Y-53185230D01*
X186008819Y-53191179D01*
X185931361Y-53195838D01*
X185859014Y-53198822D01*
X185838364Y-53199246D01*
X185805133Y-53199632D01*
X185760135Y-53199979D01*
X185704185Y-53200289D01*
X185638098Y-53200561D01*
X185562689Y-53200798D01*
X185478773Y-53200999D01*
X185387166Y-53201165D01*
X185288682Y-53201298D01*
X185184136Y-53201397D01*
X185074343Y-53201464D01*
X184960119Y-53201499D01*
X184842277Y-53201503D01*
X184721634Y-53201477D01*
X184599005Y-53201422D01*
X184475203Y-53201338D01*
X184351045Y-53201225D01*
X184227345Y-53201086D01*
X184104919Y-53200920D01*
X183984580Y-53200728D01*
X183950175Y-53200665D01*
X183950175Y-53923793D01*
X184038340Y-53923820D01*
X184119024Y-53923889D01*
X184191463Y-53924000D01*
X184254895Y-53924151D01*
X184308557Y-53924342D01*
X184351687Y-53924572D01*
X184383522Y-53924839D01*
X184403300Y-53925144D01*
X184410230Y-53925468D01*
X184413578Y-53931599D01*
X184415589Y-53947645D01*
X184416328Y-53974737D01*
X184415857Y-54014002D01*
X184415657Y-54022137D01*
X184414775Y-54057380D01*
X184413699Y-54102585D01*
X184412510Y-54154171D01*
X184411291Y-54208555D01*
X184410124Y-54262155D01*
X184409779Y-54278347D01*
X184403784Y-54426159D01*
X184392125Y-54561960D01*
X184374525Y-54686165D01*
X184350707Y-54799193D01*
X184320392Y-54901459D01*
X184283305Y-54993382D01*
X184239167Y-55075378D01*
X184187702Y-55147866D01*
X184128632Y-55211261D01*
X184061680Y-55265982D01*
X183986568Y-55312445D01*
X183903020Y-55351067D01*
X183810758Y-55382267D01*
X183709505Y-55406461D01*
X183653463Y-55416371D01*
X183610153Y-55421749D01*
X183556816Y-55426099D01*
X183496940Y-55429332D01*
X183434014Y-55431359D01*
X183371525Y-55432091D01*
X183312961Y-55431441D01*
X183261809Y-55429319D01*
X183233462Y-55427035D01*
X183110402Y-55408695D01*
X182994856Y-55380066D01*
X182887236Y-55341445D01*
X182787949Y-55293129D01*
X182697407Y-55235417D01*
X182616017Y-55168606D01*
X182544191Y-55092993D01*
X182482336Y-55008876D01*
X182430863Y-54916553D01*
X182390182Y-54816321D01*
X182389214Y-54813440D01*
X182376054Y-54771800D01*
X182365003Y-54731229D01*
X182355883Y-54690057D01*
X182348515Y-54646613D01*
X182342722Y-54599228D01*
X182338327Y-54546231D01*
X182335150Y-54485954D01*
X182333015Y-54416725D01*
X182331743Y-54336875D01*
X182331250Y-54269472D01*
X182330963Y-54201407D01*
X182330922Y-54145509D01*
X182331327Y-54100398D01*
X182332376Y-54064693D01*
X182334270Y-54037015D01*
X182337209Y-54015984D01*
X182341391Y-54000220D01*
X182347016Y-53988342D01*
X182354284Y-53978971D01*
X182363395Y-53970727D01*
X182374547Y-53962230D01*
X182375820Y-53961285D01*
X182382012Y-53956525D01*
X182387582Y-53952215D01*
X182393199Y-53948333D01*
X182399532Y-53944854D01*
X182407250Y-53941756D01*
X182417021Y-53939014D01*
X182429516Y-53936605D01*
X182445402Y-53934505D01*
X182465350Y-53932691D01*
X182490027Y-53931139D01*
X182520104Y-53929826D01*
X182556248Y-53928727D01*
X182599130Y-53927820D01*
X182649418Y-53927081D01*
X182707781Y-53926486D01*
X182774889Y-53926011D01*
X182851409Y-53925633D01*
X182938012Y-53925329D01*
X183035366Y-53925074D01*
X183144141Y-53924846D01*
X183265005Y-53924620D01*
X183398627Y-53924373D01*
X183423808Y-53924326D01*
X183537945Y-53924127D01*
X183648412Y-53923976D01*
X183754448Y-53923870D01*
X183855290Y-53923810D01*
X183950175Y-53923793D01*
X183950175Y-53200665D01*
X183867146Y-53200511D01*
X183753429Y-53200270D01*
X183644246Y-53200006D01*
X183540412Y-53199718D01*
X183442741Y-53199409D01*
X183352048Y-53199078D01*
X183269148Y-53198727D01*
X183194858Y-53198356D01*
X183129990Y-53197965D01*
X183075361Y-53197557D01*
X183031786Y-53197131D01*
X183000079Y-53196687D01*
X182981056Y-53196228D01*
X182980347Y-53196201D01*
X182867292Y-53190244D01*
X182766523Y-53181995D01*
X182678240Y-53171484D01*
X182602645Y-53158743D01*
X182539939Y-53143801D01*
X182490323Y-53126691D01*
X182472740Y-53118508D01*
X182450821Y-53103864D01*
X182425018Y-53081666D01*
X182399034Y-53055581D01*
X182376573Y-53029275D01*
X182363559Y-53010415D01*
X182340094Y-52962959D01*
X182321690Y-52908697D01*
X182308088Y-52846270D01*
X182299032Y-52774325D01*
X182294263Y-52691504D01*
X182293375Y-52640893D01*
X182292854Y-52547760D01*
X182128457Y-52547760D01*
X182132822Y-52708627D01*
G36*
X182292854Y-61285360D02*
G01*
X182292873Y-61199000D01*
X182296287Y-61097702D01*
X182306617Y-61007803D01*
X182324058Y-60928936D01*
X182348811Y-60860736D01*
X182381073Y-60802837D01*
X182421043Y-60754871D01*
X182468919Y-60716475D01*
X182524899Y-60687280D01*
X182579901Y-60669196D01*
X182638828Y-60656460D01*
X182709506Y-60645233D01*
X182790203Y-60635724D01*
X182879188Y-60628141D01*
X182960027Y-60623367D01*
X182977422Y-60622860D01*
X183007671Y-60622366D01*
X183050081Y-60621888D01*
X183103958Y-60621429D01*
X183168611Y-60620990D01*
X183243346Y-60620574D01*
X183327471Y-60620183D01*
X183420292Y-60619820D01*
X183521116Y-60619488D01*
X183629251Y-60619187D01*
X183744004Y-60618922D01*
X183864682Y-60618693D01*
X183990592Y-60618504D01*
X184121041Y-60618357D01*
X184255336Y-60618254D01*
X184392785Y-60618197D01*
X184484027Y-60618187D01*
X184652706Y-60618190D01*
X184808436Y-60618208D01*
X184951814Y-60618252D01*
X185083436Y-60618331D01*
X185203900Y-60618456D01*
X185313804Y-60618639D01*
X185413743Y-60618889D01*
X185504315Y-60619217D01*
X185586118Y-60619635D01*
X185659749Y-60620152D01*
X185725804Y-60620780D01*
X185784881Y-60621529D01*
X185837577Y-60622409D01*
X185884489Y-60623431D01*
X185926214Y-60624607D01*
X185963350Y-60625946D01*
X185996493Y-60627459D01*
X186026240Y-60629157D01*
X186053190Y-60631051D01*
X186077938Y-60633151D01*
X186101082Y-60635467D01*
X186123219Y-60638011D01*
X186144947Y-60640794D01*
X186166862Y-60643825D01*
X186189562Y-60647115D01*
X186201067Y-60648813D01*
X186266482Y-60659884D01*
X186320592Y-60672445D01*
X186365628Y-60687395D01*
X186403819Y-60705633D01*
X186437395Y-60728059D01*
X186468585Y-60755572D01*
X186470521Y-60757496D01*
X186502147Y-60794036D01*
X186528576Y-60835814D01*
X186550183Y-60884115D01*
X186567342Y-60940220D01*
X186580428Y-61005414D01*
X186589816Y-61080981D01*
X186595879Y-61168204D01*
X186596863Y-61190533D01*
X186598202Y-61224128D01*
X186599334Y-61252428D01*
X186600157Y-61272907D01*
X186600570Y-61283038D01*
X186600598Y-61283667D01*
X186606965Y-61284333D01*
X186624200Y-61284876D01*
X186649625Y-61285238D01*
X186678587Y-61285360D01*
X186756480Y-61285360D01*
X186756480Y-61224033D01*
X186756271Y-61205585D01*
X186755673Y-61175109D01*
X186754728Y-61134118D01*
X186753480Y-61084124D01*
X186751973Y-61026639D01*
X186750248Y-60963176D01*
X186748349Y-60895247D01*
X186746319Y-60824365D01*
X186744202Y-60752041D01*
X186742039Y-60679788D01*
X186739875Y-60609118D01*
X186737753Y-60541544D01*
X186735715Y-60478578D01*
X186733804Y-60421732D01*
X186732851Y-60394410D01*
X186732179Y-60361754D01*
X186731993Y-60317424D01*
X186732258Y-60263281D01*
X186732938Y-60201187D01*
X186733998Y-60133005D01*
X186735402Y-60060597D01*
X186737114Y-59985825D01*
X186739098Y-59910550D01*
X186741319Y-59836636D01*
X186743741Y-59765943D01*
X186746039Y-59707173D01*
X186747045Y-59679817D01*
X186748258Y-59641514D01*
X186749605Y-59594860D01*
X186751014Y-59542454D01*
X186752413Y-59486891D01*
X186753731Y-59430769D01*
X186753874Y-59424387D01*
X186758452Y-59219493D01*
X186602681Y-59219493D01*
X186598301Y-59271315D01*
X186596002Y-59305604D01*
X186594401Y-59343006D01*
X186593880Y-59371222D01*
X186591125Y-59425271D01*
X186583595Y-59484984D01*
X186572270Y-59544441D01*
X186558131Y-59597721D01*
X186554605Y-59608419D01*
X186525834Y-59674371D01*
X186488613Y-59729753D01*
X186442897Y-59774615D01*
X186388642Y-59809011D01*
X186379709Y-59813296D01*
X186340662Y-59827772D01*
X186289115Y-59841141D01*
X186226080Y-59853241D01*
X186152569Y-59863914D01*
X186069596Y-59873000D01*
X185978173Y-59880338D01*
X185940294Y-59882700D01*
X185923613Y-59883265D01*
X185894411Y-59883790D01*
X185853452Y-59884274D01*
X185801498Y-59884718D01*
X185739310Y-59885123D01*
X185667653Y-59885490D01*
X185587286Y-59885817D01*
X185498975Y-59886107D01*
X185403480Y-59886359D01*
X185301564Y-59886574D01*
X185193989Y-59886752D01*
X185081519Y-59886894D01*
X184964915Y-59887000D01*
X184844940Y-59887070D01*
X184722356Y-59887106D01*
X184597926Y-59887106D01*
X184472412Y-59887073D01*
X184346576Y-59887005D01*
X184221181Y-59886905D01*
X184096990Y-59886771D01*
X183974764Y-59886605D01*
X183855267Y-59886407D01*
X183739260Y-59886177D01*
X183627507Y-59885916D01*
X183520768Y-59885624D01*
X183419808Y-59885302D01*
X183325388Y-59884950D01*
X183238271Y-59884569D01*
X183159219Y-59884158D01*
X183088994Y-59883719D01*
X183028359Y-59883251D01*
X182978077Y-59882756D01*
X182938910Y-59882233D01*
X182911620Y-59881683D01*
X182896970Y-59881107D01*
X182895680Y-59880995D01*
X182869149Y-59878195D01*
X182834753Y-59874643D01*
X182798109Y-59870915D01*
X182780534Y-59869149D01*
X182692347Y-59858446D01*
X182617110Y-59845222D01*
X182554445Y-59829389D01*
X182503974Y-59810857D01*
X182477986Y-59797591D01*
X182449320Y-59776544D01*
X182418601Y-59747058D01*
X182389312Y-59713059D01*
X182364933Y-59678473D01*
X182352884Y-59656509D01*
X182328320Y-59591485D01*
X182310072Y-59515268D01*
X182298288Y-59428723D01*
X182293116Y-59332718D01*
X182292873Y-59305853D01*
X182292854Y-59219493D01*
X182128459Y-59219493D01*
X182132863Y-59363427D01*
X182136700Y-59487426D01*
X182140424Y-59604692D01*
X182144218Y-59720914D01*
X182148268Y-59841787D01*
X182150722Y-59913760D01*
X182151890Y-59957191D01*
X182152790Y-60010033D01*
X182153430Y-60070352D01*
X182153819Y-60136215D01*
X182153965Y-60205686D01*
X182153875Y-60276833D01*
X182153559Y-60347719D01*
X182153024Y-60416412D01*
X182152278Y-60480977D01*
X182151331Y-60539480D01*
X182150189Y-60589986D01*
X182148862Y-60630562D01*
X182147564Y-60656257D01*
X182146421Y-60678094D01*
X182145094Y-60710633D01*
X182143680Y-60751028D01*
X182142277Y-60796439D01*
X182140984Y-60844021D01*
X182140623Y-60858640D01*
X182139225Y-60914536D01*
X182137577Y-60976832D01*
X182135818Y-61040454D01*
X182134090Y-61100326D01*
X182132633Y-61148200D01*
X182128307Y-61285360D01*
X182292854Y-61285360D01*
G37*
X182292854Y-61285360D02*
X182292873Y-61199000D01*
X182296287Y-61097702D01*
X182306617Y-61007803D01*
X182324058Y-60928936D01*
X182348811Y-60860736D01*
X182381073Y-60802837D01*
X182421043Y-60754871D01*
X182468919Y-60716475D01*
X182524899Y-60687280D01*
X182579901Y-60669196D01*
X182638828Y-60656460D01*
X182709506Y-60645233D01*
X182790203Y-60635724D01*
X182879188Y-60628141D01*
X182960027Y-60623367D01*
X182977422Y-60622860D01*
X183007671Y-60622366D01*
X183050081Y-60621888D01*
X183103958Y-60621429D01*
X183168611Y-60620990D01*
X183243346Y-60620574D01*
X183327471Y-60620183D01*
X183420292Y-60619820D01*
X183521116Y-60619488D01*
X183629251Y-60619187D01*
X183744004Y-60618922D01*
X183864682Y-60618693D01*
X183990592Y-60618504D01*
X184121041Y-60618357D01*
X184255336Y-60618254D01*
X184392785Y-60618197D01*
X184484027Y-60618187D01*
X184652706Y-60618190D01*
X184808436Y-60618208D01*
X184951814Y-60618252D01*
X185083436Y-60618331D01*
X185203900Y-60618456D01*
X185313804Y-60618639D01*
X185413743Y-60618889D01*
X185504315Y-60619217D01*
X185586118Y-60619635D01*
X185659749Y-60620152D01*
X185725804Y-60620780D01*
X185784881Y-60621529D01*
X185837577Y-60622409D01*
X185884489Y-60623431D01*
X185926214Y-60624607D01*
X185963350Y-60625946D01*
X185996493Y-60627459D01*
X186026240Y-60629157D01*
X186053190Y-60631051D01*
X186077938Y-60633151D01*
X186101082Y-60635467D01*
X186123219Y-60638011D01*
X186144947Y-60640794D01*
X186166862Y-60643825D01*
X186189562Y-60647115D01*
X186201067Y-60648813D01*
X186266482Y-60659884D01*
X186320592Y-60672445D01*
X186365628Y-60687395D01*
X186403819Y-60705633D01*
X186437395Y-60728059D01*
X186468585Y-60755572D01*
X186470521Y-60757496D01*
X186502147Y-60794036D01*
X186528576Y-60835814D01*
X186550183Y-60884115D01*
X186567342Y-60940220D01*
X186580428Y-61005414D01*
X186589816Y-61080981D01*
X186595879Y-61168204D01*
X186596863Y-61190533D01*
X186598202Y-61224128D01*
X186599334Y-61252428D01*
X186600157Y-61272907D01*
X186600570Y-61283038D01*
X186600598Y-61283667D01*
X186606965Y-61284333D01*
X186624200Y-61284876D01*
X186649625Y-61285238D01*
X186678587Y-61285360D01*
X186756480Y-61285360D01*
X186756480Y-61224033D01*
X186756271Y-61205585D01*
X186755673Y-61175109D01*
X186754728Y-61134118D01*
X186753480Y-61084124D01*
X186751973Y-61026639D01*
X186750248Y-60963176D01*
X186748349Y-60895247D01*
X186746319Y-60824365D01*
X186744202Y-60752041D01*
X186742039Y-60679788D01*
X186739875Y-60609118D01*
X186737753Y-60541544D01*
X186735715Y-60478578D01*
X186733804Y-60421732D01*
X186732851Y-60394410D01*
X186732179Y-60361754D01*
X186731993Y-60317424D01*
X186732258Y-60263281D01*
X186732938Y-60201187D01*
X186733998Y-60133005D01*
X186735402Y-60060597D01*
X186737114Y-59985825D01*
X186739098Y-59910550D01*
X186741319Y-59836636D01*
X186743741Y-59765943D01*
X186746039Y-59707173D01*
X186747045Y-59679817D01*
X186748258Y-59641514D01*
X186749605Y-59594860D01*
X186751014Y-59542454D01*
X186752413Y-59486891D01*
X186753731Y-59430769D01*
X186753874Y-59424387D01*
X186758452Y-59219493D01*
X186602681Y-59219493D01*
X186598301Y-59271315D01*
X186596002Y-59305604D01*
X186594401Y-59343006D01*
X186593880Y-59371222D01*
X186591125Y-59425271D01*
X186583595Y-59484984D01*
X186572270Y-59544441D01*
X186558131Y-59597721D01*
X186554605Y-59608419D01*
X186525834Y-59674371D01*
X186488613Y-59729753D01*
X186442897Y-59774615D01*
X186388642Y-59809011D01*
X186379709Y-59813296D01*
X186340662Y-59827772D01*
X186289115Y-59841141D01*
X186226080Y-59853241D01*
X186152569Y-59863914D01*
X186069596Y-59873000D01*
X185978173Y-59880338D01*
X185940294Y-59882700D01*
X185923613Y-59883265D01*
X185894411Y-59883790D01*
X185853452Y-59884274D01*
X185801498Y-59884718D01*
X185739310Y-59885123D01*
X185667653Y-59885490D01*
X185587286Y-59885817D01*
X185498975Y-59886107D01*
X185403480Y-59886359D01*
X185301564Y-59886574D01*
X185193989Y-59886752D01*
X185081519Y-59886894D01*
X184964915Y-59887000D01*
X184844940Y-59887070D01*
X184722356Y-59887106D01*
X184597926Y-59887106D01*
X184472412Y-59887073D01*
X184346576Y-59887005D01*
X184221181Y-59886905D01*
X184096990Y-59886771D01*
X183974764Y-59886605D01*
X183855267Y-59886407D01*
X183739260Y-59886177D01*
X183627507Y-59885916D01*
X183520768Y-59885624D01*
X183419808Y-59885302D01*
X183325388Y-59884950D01*
X183238271Y-59884569D01*
X183159219Y-59884158D01*
X183088994Y-59883719D01*
X183028359Y-59883251D01*
X182978077Y-59882756D01*
X182938910Y-59882233D01*
X182911620Y-59881683D01*
X182896970Y-59881107D01*
X182895680Y-59880995D01*
X182869149Y-59878195D01*
X182834753Y-59874643D01*
X182798109Y-59870915D01*
X182780534Y-59869149D01*
X182692347Y-59858446D01*
X182617110Y-59845222D01*
X182554445Y-59829389D01*
X182503974Y-59810857D01*
X182477986Y-59797591D01*
X182449320Y-59776544D01*
X182418601Y-59747058D01*
X182389312Y-59713059D01*
X182364933Y-59678473D01*
X182352884Y-59656509D01*
X182328320Y-59591485D01*
X182310072Y-59515268D01*
X182298288Y-59428723D01*
X182293116Y-59332718D01*
X182292873Y-59305853D01*
X182292854Y-59219493D01*
X182128459Y-59219493D01*
X182132863Y-59363427D01*
X182136700Y-59487426D01*
X182140424Y-59604692D01*
X182144218Y-59720914D01*
X182148268Y-59841787D01*
X182150722Y-59913760D01*
X182151890Y-59957191D01*
X182152790Y-60010033D01*
X182153430Y-60070352D01*
X182153819Y-60136215D01*
X182153965Y-60205686D01*
X182153875Y-60276833D01*
X182153559Y-60347719D01*
X182153024Y-60416412D01*
X182152278Y-60480977D01*
X182151331Y-60539480D01*
X182150189Y-60589986D01*
X182148862Y-60630562D01*
X182147564Y-60656257D01*
X182146421Y-60678094D01*
X182145094Y-60710633D01*
X182143680Y-60751028D01*
X182142277Y-60796439D01*
X182140984Y-60844021D01*
X182140623Y-60858640D01*
X182139225Y-60914536D01*
X182137577Y-60976832D01*
X182135818Y-61040454D01*
X182134090Y-61100326D01*
X182132633Y-61148200D01*
X182128307Y-61285360D01*
X182292854Y-61285360D01*
G36*
X182130296Y-66066600D02*
G01*
X182130305Y-66255957D01*
X182130323Y-66432643D01*
X182130352Y-66597094D01*
X182130396Y-66749749D01*
X182130455Y-66891044D01*
X182130533Y-67021417D01*
X182130632Y-67141305D01*
X182130754Y-67251146D01*
X182130903Y-67351378D01*
X182131079Y-67442438D01*
X182131287Y-67524763D01*
X182131527Y-67598790D01*
X182131803Y-67664958D01*
X182132117Y-67723703D01*
X182132471Y-67775464D01*
X182132868Y-67820677D01*
X182133311Y-67859779D01*
X182133800Y-67893210D01*
X182134340Y-67921405D01*
X182134932Y-67944802D01*
X182135579Y-67963839D01*
X182136284Y-67978954D01*
X182137048Y-67990583D01*
X182137874Y-67999164D01*
X182138764Y-68005134D01*
X182139722Y-68008932D01*
X182140749Y-68010994D01*
X182141847Y-68011758D01*
X182142147Y-68011798D01*
X182158688Y-68013354D01*
X182164160Y-68014213D01*
X182174306Y-68015196D01*
X182195268Y-68016606D01*
X182224330Y-68018280D01*
X182258773Y-68020054D01*
X182272534Y-68020712D01*
X182311732Y-68022641D01*
X182349901Y-68024679D01*
X182383154Y-68026611D01*
X182407605Y-68028217D01*
X182411387Y-68028502D01*
X182427568Y-68029609D01*
X182455433Y-68031334D01*
X182493137Y-68033569D01*
X182538835Y-68036208D01*
X182590685Y-68039145D01*
X182646842Y-68042273D01*
X182699254Y-68045147D01*
X182757519Y-68048348D01*
X182812969Y-68051450D01*
X182863790Y-68054348D01*
X182908168Y-68056936D01*
X182944290Y-68059108D01*
X182970342Y-68060759D01*
X182983734Y-68061715D01*
X183004263Y-68063171D01*
X183034642Y-68065000D01*
X183071184Y-68066993D01*
X183110203Y-68068942D01*
X183120894Y-68069444D01*
X183220800Y-68074062D01*
X183220800Y-67884630D01*
X183158147Y-67880209D01*
X183127236Y-67877828D01*
X183098695Y-67875280D01*
X183077198Y-67872995D01*
X183071787Y-67872276D01*
X182969055Y-67854604D01*
X182878191Y-67833565D01*
X182797812Y-67808623D01*
X182726538Y-67779245D01*
X182662988Y-67744893D01*
X182605782Y-67705034D01*
X182576058Y-67680158D01*
X182523393Y-67624391D01*
X182477684Y-67557201D01*
X182439031Y-67478850D01*
X182407536Y-67389599D01*
X182383302Y-67289711D01*
X182366429Y-67179446D01*
X182361335Y-67127360D01*
X182360008Y-67103767D01*
X182358860Y-67068618D01*
X182357917Y-67023902D01*
X182357206Y-66971607D01*
X182356753Y-66913722D01*
X182356583Y-66852238D01*
X182356723Y-66789142D01*
X182356779Y-66778533D01*
X182357223Y-66709082D01*
X182357737Y-66651646D01*
X182358392Y-66604691D01*
X182359259Y-66566685D01*
X182360410Y-66536096D01*
X182361914Y-66511391D01*
X182363843Y-66491039D01*
X182366269Y-66473505D01*
X182369261Y-66457259D01*
X182372318Y-66443253D01*
X182385514Y-66392631D01*
X182399826Y-66352718D01*
X182416493Y-66320680D01*
X182436751Y-66293680D01*
X182438437Y-66291793D01*
X182442498Y-66286789D01*
X182445638Y-66282136D01*
X182448341Y-66277822D01*
X182451090Y-66273834D01*
X182454368Y-66270161D01*
X182458659Y-66266789D01*
X182464447Y-66263707D01*
X182472215Y-66260903D01*
X182482447Y-66258365D01*
X182495626Y-66256080D01*
X182512236Y-66254036D01*
X182532760Y-66252221D01*
X182557681Y-66250623D01*
X182587484Y-66249229D01*
X182622652Y-66248028D01*
X182663667Y-66247007D01*
X182711015Y-66246154D01*
X182765178Y-66245457D01*
X182826639Y-66244903D01*
X182895884Y-66244481D01*
X182973393Y-66244179D01*
X183059653Y-66243983D01*
X183155145Y-66243882D01*
X183260353Y-66243864D01*
X183375762Y-66243916D01*
X183501854Y-66244027D01*
X183639112Y-66244184D01*
X183788022Y-66244375D01*
X183949065Y-66244587D01*
X184122726Y-66244810D01*
X184294374Y-66245012D01*
X184477984Y-66245221D01*
X184648547Y-66245423D01*
X184806565Y-66245623D01*
X184952536Y-66245824D01*
X185086961Y-66246031D01*
X185210341Y-66246247D01*
X185323175Y-66246476D01*
X185425964Y-66246723D01*
X185519208Y-66246991D01*
X185603406Y-66247284D01*
X185679060Y-66247606D01*
X185746670Y-66247961D01*
X185806735Y-66248354D01*
X185859755Y-66248787D01*
X185906232Y-66249264D01*
X185946665Y-66249791D01*
X185981555Y-66250370D01*
X186011401Y-66251006D01*
X186036703Y-66251703D01*
X186057963Y-66252464D01*
X186075680Y-66253293D01*
X186090354Y-66254195D01*
X186102486Y-66255173D01*
X186112575Y-66256231D01*
X186121123Y-66257374D01*
X186128628Y-66258605D01*
X186133334Y-66259482D01*
X186215041Y-66278629D01*
X186285120Y-66302473D01*
X186344919Y-66331822D01*
X186395786Y-66367485D01*
X186439071Y-66410269D01*
X186476120Y-66460983D01*
X186479978Y-66467254D01*
X186509844Y-66526256D01*
X186535690Y-66597584D01*
X186557369Y-66680585D01*
X186574737Y-66774605D01*
X186587649Y-66878989D01*
X186595725Y-66988507D01*
X186597307Y-67018987D01*
X186677878Y-67020903D01*
X186758449Y-67022820D01*
X186753912Y-66790610D01*
X186752716Y-66732039D01*
X186751447Y-66674494D01*
X186750161Y-66620224D01*
X186748914Y-66571477D01*
X186747764Y-66530501D01*
X186746765Y-66499545D01*
X186746288Y-66487280D01*
X186739764Y-66310913D01*
X186735567Y-66134412D01*
X186733695Y-65955381D01*
X186734147Y-65771423D01*
X186736921Y-65580141D01*
X186742015Y-65379139D01*
X186745529Y-65271467D01*
X186746761Y-65233441D01*
X186748182Y-65185015D01*
X186749709Y-65129336D01*
X186751257Y-65069548D01*
X186752744Y-65008795D01*
X186754058Y-64951427D01*
X186758566Y-64746533D01*
X186593920Y-64746533D01*
X186593437Y-64792253D01*
X186592750Y-64820816D01*
X186591460Y-64848286D01*
X186590179Y-64865067D01*
X186578884Y-64961579D01*
X186565832Y-65045917D01*
X186550608Y-65119383D01*
X186532797Y-65183283D01*
X186511984Y-65238920D01*
X186487754Y-65287601D01*
X186459692Y-65330628D01*
X186431095Y-65365294D01*
X186390633Y-65403891D01*
X186344981Y-65436157D01*
X186292793Y-65462577D01*
X186232724Y-65483634D01*
X186163425Y-65499812D01*
X186083552Y-65511596D01*
X186004640Y-65518635D01*
X185987137Y-65519351D01*
X185956459Y-65520033D01*
X185912977Y-65520680D01*
X185857064Y-65521291D01*
X185789090Y-65521865D01*
X185709427Y-65522400D01*
X185618447Y-65522895D01*
X185516521Y-65523348D01*
X185404021Y-65523759D01*
X185281318Y-65524124D01*
X185148785Y-65524444D01*
X185006792Y-65524717D01*
X184855711Y-65524942D01*
X184695913Y-65525116D01*
X184527771Y-65525239D01*
X184351656Y-65525309D01*
X184219225Y-65525326D01*
X184038115Y-65525337D01*
X183870054Y-65525353D01*
X183714543Y-65525364D01*
X183571085Y-65525360D01*
X183439180Y-65525330D01*
X183318331Y-65525264D01*
X183208040Y-65525150D01*
X183107808Y-65524979D01*
X183017138Y-65524740D01*
X182935530Y-65524422D01*
X182862488Y-65524014D01*
X182797512Y-65523507D01*
X182740104Y-65522890D01*
X182689767Y-65522151D01*
X182646003Y-65521281D01*
X182608312Y-65520268D01*
X182576197Y-65519103D01*
X182549160Y-65517774D01*
X182526702Y-65516272D01*
X182508326Y-65514585D01*
X182493533Y-65512703D01*
X182481825Y-65510616D01*
X182472703Y-65508312D01*
X182465671Y-65505782D01*
X182460228Y-65503014D01*
X182455878Y-65499999D01*
X182452123Y-65496725D01*
X182448463Y-65493182D01*
X182444400Y-65489360D01*
X182442407Y-65487628D01*
X182423034Y-65465369D01*
X182404025Y-65432767D01*
X182386870Y-65392979D01*
X182373062Y-65349161D01*
X182369071Y-65332427D01*
X182366333Y-65318425D01*
X182364049Y-65303035D01*
X182362181Y-65284955D01*
X182360689Y-65262882D01*
X182359535Y-65235512D01*
X182358678Y-65201543D01*
X182358080Y-65159673D01*
X182357702Y-65108598D01*
X182357504Y-65047016D01*
X182357447Y-64973624D01*
X182357452Y-64946347D01*
X182357598Y-64859412D01*
X182358015Y-64784492D01*
X182358783Y-64720059D01*
X182359980Y-64664581D01*
X182361687Y-64616530D01*
X182363982Y-64574375D01*
X182366945Y-64536586D01*
X182370653Y-64501635D01*
X182375187Y-64467990D01*
X182380625Y-64434123D01*
X182385281Y-64408000D01*
X182407043Y-64316328D01*
X182436793Y-64235227D01*
X182474903Y-64164064D01*
X182521746Y-64102207D01*
X182577694Y-64049022D01*
X182611200Y-64024110D01*
X182666422Y-63991240D01*
X182729653Y-63962863D01*
X182801797Y-63938745D01*
X182883762Y-63918653D01*
X182976451Y-63902355D01*
X183080770Y-63889618D01*
X183161534Y-63882672D01*
X183220800Y-63878330D01*
X183220800Y-63716987D01*
X182130294Y-63716987D01*
X182130294Y-65864133D01*
X182130296Y-66066600D01*
G37*
X182130296Y-66066600D02*
X182130305Y-66255957D01*
X182130323Y-66432643D01*
X182130352Y-66597094D01*
X182130396Y-66749749D01*
X182130455Y-66891044D01*
X182130533Y-67021417D01*
X182130632Y-67141305D01*
X182130754Y-67251146D01*
X182130903Y-67351378D01*
X182131079Y-67442438D01*
X182131287Y-67524763D01*
X182131527Y-67598790D01*
X182131803Y-67664958D01*
X182132117Y-67723703D01*
X182132471Y-67775464D01*
X182132868Y-67820677D01*
X182133311Y-67859779D01*
X182133800Y-67893210D01*
X182134340Y-67921405D01*
X182134932Y-67944802D01*
X182135579Y-67963839D01*
X182136284Y-67978954D01*
X182137048Y-67990583D01*
X182137874Y-67999164D01*
X182138764Y-68005134D01*
X182139722Y-68008932D01*
X182140749Y-68010994D01*
X182141847Y-68011758D01*
X182142147Y-68011798D01*
X182158688Y-68013354D01*
X182164160Y-68014213D01*
X182174306Y-68015196D01*
X182195268Y-68016606D01*
X182224330Y-68018280D01*
X182258773Y-68020054D01*
X182272534Y-68020712D01*
X182311732Y-68022641D01*
X182349901Y-68024679D01*
X182383154Y-68026611D01*
X182407605Y-68028217D01*
X182411387Y-68028502D01*
X182427568Y-68029609D01*
X182455433Y-68031334D01*
X182493137Y-68033569D01*
X182538835Y-68036208D01*
X182590685Y-68039145D01*
X182646842Y-68042273D01*
X182699254Y-68045147D01*
X182757519Y-68048348D01*
X182812969Y-68051450D01*
X182863790Y-68054348D01*
X182908168Y-68056936D01*
X182944290Y-68059108D01*
X182970342Y-68060759D01*
X182983734Y-68061715D01*
X183004263Y-68063171D01*
X183034642Y-68065000D01*
X183071184Y-68066993D01*
X183110203Y-68068942D01*
X183120894Y-68069444D01*
X183220800Y-68074062D01*
X183220800Y-67884630D01*
X183158147Y-67880209D01*
X183127236Y-67877828D01*
X183098695Y-67875280D01*
X183077198Y-67872995D01*
X183071787Y-67872276D01*
X182969055Y-67854604D01*
X182878191Y-67833565D01*
X182797812Y-67808623D01*
X182726538Y-67779245D01*
X182662988Y-67744893D01*
X182605782Y-67705034D01*
X182576058Y-67680158D01*
X182523393Y-67624391D01*
X182477684Y-67557201D01*
X182439031Y-67478850D01*
X182407536Y-67389599D01*
X182383302Y-67289711D01*
X182366429Y-67179446D01*
X182361335Y-67127360D01*
X182360008Y-67103767D01*
X182358860Y-67068618D01*
X182357917Y-67023902D01*
X182357206Y-66971607D01*
X182356753Y-66913722D01*
X182356583Y-66852238D01*
X182356723Y-66789142D01*
X182356779Y-66778533D01*
X182357223Y-66709082D01*
X182357737Y-66651646D01*
X182358392Y-66604691D01*
X182359259Y-66566685D01*
X182360410Y-66536096D01*
X182361914Y-66511391D01*
X182363843Y-66491039D01*
X182366269Y-66473505D01*
X182369261Y-66457259D01*
X182372318Y-66443253D01*
X182385514Y-66392631D01*
X182399826Y-66352718D01*
X182416493Y-66320680D01*
X182436751Y-66293680D01*
X182438437Y-66291793D01*
X182442498Y-66286789D01*
X182445638Y-66282136D01*
X182448341Y-66277822D01*
X182451090Y-66273834D01*
X182454368Y-66270161D01*
X182458659Y-66266789D01*
X182464447Y-66263707D01*
X182472215Y-66260903D01*
X182482447Y-66258365D01*
X182495626Y-66256080D01*
X182512236Y-66254036D01*
X182532760Y-66252221D01*
X182557681Y-66250623D01*
X182587484Y-66249229D01*
X182622652Y-66248028D01*
X182663667Y-66247007D01*
X182711015Y-66246154D01*
X182765178Y-66245457D01*
X182826639Y-66244903D01*
X182895884Y-66244481D01*
X182973393Y-66244179D01*
X183059653Y-66243983D01*
X183155145Y-66243882D01*
X183260353Y-66243864D01*
X183375762Y-66243916D01*
X183501854Y-66244027D01*
X183639112Y-66244184D01*
X183788022Y-66244375D01*
X183949065Y-66244587D01*
X184122726Y-66244810D01*
X184294374Y-66245012D01*
X184477984Y-66245221D01*
X184648547Y-66245423D01*
X184806565Y-66245623D01*
X184952536Y-66245824D01*
X185086961Y-66246031D01*
X185210341Y-66246247D01*
X185323175Y-66246476D01*
X185425964Y-66246723D01*
X185519208Y-66246991D01*
X185603406Y-66247284D01*
X185679060Y-66247606D01*
X185746670Y-66247961D01*
X185806735Y-66248354D01*
X185859755Y-66248787D01*
X185906232Y-66249264D01*
X185946665Y-66249791D01*
X185981555Y-66250370D01*
X186011401Y-66251006D01*
X186036703Y-66251703D01*
X186057963Y-66252464D01*
X186075680Y-66253293D01*
X186090354Y-66254195D01*
X186102486Y-66255173D01*
X186112575Y-66256231D01*
X186121123Y-66257374D01*
X186128628Y-66258605D01*
X186133334Y-66259482D01*
X186215041Y-66278629D01*
X186285120Y-66302473D01*
X186344919Y-66331822D01*
X186395786Y-66367485D01*
X186439071Y-66410269D01*
X186476120Y-66460983D01*
X186479978Y-66467254D01*
X186509844Y-66526256D01*
X186535690Y-66597584D01*
X186557369Y-66680585D01*
X186574737Y-66774605D01*
X186587649Y-66878989D01*
X186595725Y-66988507D01*
X186597307Y-67018987D01*
X186677878Y-67020903D01*
X186758449Y-67022820D01*
X186753912Y-66790610D01*
X186752716Y-66732039D01*
X186751447Y-66674494D01*
X186750161Y-66620224D01*
X186748914Y-66571477D01*
X186747764Y-66530501D01*
X186746765Y-66499545D01*
X186746288Y-66487280D01*
X186739764Y-66310913D01*
X186735567Y-66134412D01*
X186733695Y-65955381D01*
X186734147Y-65771423D01*
X186736921Y-65580141D01*
X186742015Y-65379139D01*
X186745529Y-65271467D01*
X186746761Y-65233441D01*
X186748182Y-65185015D01*
X186749709Y-65129336D01*
X186751257Y-65069548D01*
X186752744Y-65008795D01*
X186754058Y-64951427D01*
X186758566Y-64746533D01*
X186593920Y-64746533D01*
X186593437Y-64792253D01*
X186592750Y-64820816D01*
X186591460Y-64848286D01*
X186590179Y-64865067D01*
X186578884Y-64961579D01*
X186565832Y-65045917D01*
X186550608Y-65119383D01*
X186532797Y-65183283D01*
X186511984Y-65238920D01*
X186487754Y-65287601D01*
X186459692Y-65330628D01*
X186431095Y-65365294D01*
X186390633Y-65403891D01*
X186344981Y-65436157D01*
X186292793Y-65462577D01*
X186232724Y-65483634D01*
X186163425Y-65499812D01*
X186083552Y-65511596D01*
X186004640Y-65518635D01*
X185987137Y-65519351D01*
X185956459Y-65520033D01*
X185912977Y-65520680D01*
X185857064Y-65521291D01*
X185789090Y-65521865D01*
X185709427Y-65522400D01*
X185618447Y-65522895D01*
X185516521Y-65523348D01*
X185404021Y-65523759D01*
X185281318Y-65524124D01*
X185148785Y-65524444D01*
X185006792Y-65524717D01*
X184855711Y-65524942D01*
X184695913Y-65525116D01*
X184527771Y-65525239D01*
X184351656Y-65525309D01*
X184219225Y-65525326D01*
X184038115Y-65525337D01*
X183870054Y-65525353D01*
X183714543Y-65525364D01*
X183571085Y-65525360D01*
X183439180Y-65525330D01*
X183318331Y-65525264D01*
X183208040Y-65525150D01*
X183107808Y-65524979D01*
X183017138Y-65524740D01*
X182935530Y-65524422D01*
X182862488Y-65524014D01*
X182797512Y-65523507D01*
X182740104Y-65522890D01*
X182689767Y-65522151D01*
X182646003Y-65521281D01*
X182608312Y-65520268D01*
X182576197Y-65519103D01*
X182549160Y-65517774D01*
X182526702Y-65516272D01*
X182508326Y-65514585D01*
X182493533Y-65512703D01*
X182481825Y-65510616D01*
X182472703Y-65508312D01*
X182465671Y-65505782D01*
X182460228Y-65503014D01*
X182455878Y-65499999D01*
X182452123Y-65496725D01*
X182448463Y-65493182D01*
X182444400Y-65489360D01*
X182442407Y-65487628D01*
X182423034Y-65465369D01*
X182404025Y-65432767D01*
X182386870Y-65392979D01*
X182373062Y-65349161D01*
X182369071Y-65332427D01*
X182366333Y-65318425D01*
X182364049Y-65303035D01*
X182362181Y-65284955D01*
X182360689Y-65262882D01*
X182359535Y-65235512D01*
X182358678Y-65201543D01*
X182358080Y-65159673D01*
X182357702Y-65108598D01*
X182357504Y-65047016D01*
X182357447Y-64973624D01*
X182357452Y-64946347D01*
X182357598Y-64859412D01*
X182358015Y-64784492D01*
X182358783Y-64720059D01*
X182359980Y-64664581D01*
X182361687Y-64616530D01*
X182363982Y-64574375D01*
X182366945Y-64536586D01*
X182370653Y-64501635D01*
X182375187Y-64467990D01*
X182380625Y-64434123D01*
X182385281Y-64408000D01*
X182407043Y-64316328D01*
X182436793Y-64235227D01*
X182474903Y-64164064D01*
X182521746Y-64102207D01*
X182577694Y-64049022D01*
X182611200Y-64024110D01*
X182666422Y-63991240D01*
X182729653Y-63962863D01*
X182801797Y-63938745D01*
X182883762Y-63918653D01*
X182976451Y-63902355D01*
X183080770Y-63889618D01*
X183161534Y-63882672D01*
X183220800Y-63878330D01*
X183220800Y-63716987D01*
X182130294Y-63716987D01*
X182130294Y-65864133D01*
X182130296Y-66066600D01*
G36*
X184186330Y-57721993D02*
G01*
X184187832Y-57745951D01*
X184191270Y-57764820D01*
X184197411Y-57782827D01*
X184206874Y-57803886D01*
X184238269Y-57854594D01*
X184280195Y-57897474D01*
X184331265Y-57931137D01*
X184336806Y-57933936D01*
X184358280Y-57944059D01*
X184375867Y-57950543D01*
X184393751Y-57954180D01*
X184416116Y-57955767D01*
X184447146Y-57956097D01*
X184453428Y-57956086D01*
X184487067Y-57955636D01*
X184511216Y-57954020D01*
X184529925Y-57950540D01*
X184547241Y-57944499D01*
X184563222Y-57937153D01*
X184615177Y-57904987D01*
X184657990Y-57864153D01*
X184690607Y-57816174D01*
X184711978Y-57762574D01*
X184720834Y-57709040D01*
X184721512Y-57679300D01*
X184720372Y-57650526D01*
X184717724Y-57629332D01*
X184705360Y-57591850D01*
X184685024Y-57552111D01*
X184659889Y-57515555D01*
X184636920Y-57490867D01*
X184588401Y-57456133D01*
X184534858Y-57432718D01*
X184478380Y-57420851D01*
X184421059Y-57420764D01*
X184364982Y-57432690D01*
X184314972Y-57455235D01*
X184280567Y-57480693D01*
X184247084Y-57514759D01*
X184218613Y-57552867D01*
X184204153Y-57578869D01*
X184195718Y-57598400D01*
X184190364Y-57616194D01*
X184187414Y-57636346D01*
X184186191Y-57662955D01*
X184186000Y-57688720D01*
X184186330Y-57721993D01*
G37*
X184186330Y-57721993D02*
X184187832Y-57745951D01*
X184191270Y-57764820D01*
X184197411Y-57782827D01*
X184206874Y-57803886D01*
X184238269Y-57854594D01*
X184280195Y-57897474D01*
X184331265Y-57931137D01*
X184336806Y-57933936D01*
X184358280Y-57944059D01*
X184375867Y-57950543D01*
X184393751Y-57954180D01*
X184416116Y-57955767D01*
X184447146Y-57956097D01*
X184453428Y-57956086D01*
X184487067Y-57955636D01*
X184511216Y-57954020D01*
X184529925Y-57950540D01*
X184547241Y-57944499D01*
X184563222Y-57937153D01*
X184615177Y-57904987D01*
X184657990Y-57864153D01*
X184690607Y-57816174D01*
X184711978Y-57762574D01*
X184720834Y-57709040D01*
X184721512Y-57679300D01*
X184720372Y-57650526D01*
X184717724Y-57629332D01*
X184705360Y-57591850D01*
X184685024Y-57552111D01*
X184659889Y-57515555D01*
X184636920Y-57490867D01*
X184588401Y-57456133D01*
X184534858Y-57432718D01*
X184478380Y-57420851D01*
X184421059Y-57420764D01*
X184364982Y-57432690D01*
X184314972Y-57455235D01*
X184280567Y-57480693D01*
X184247084Y-57514759D01*
X184218613Y-57552867D01*
X184204153Y-57578869D01*
X184195718Y-57598400D01*
X184190364Y-57616194D01*
X184187414Y-57636346D01*
X184186191Y-57662955D01*
X184186000Y-57688720D01*
X184186330Y-57721993D01*
G36*
X184159205Y-62872080D02*
G01*
X184160719Y-62895024D01*
X184164440Y-62913573D01*
X184171343Y-62932301D01*
X184182404Y-62955784D01*
X184184458Y-62959952D01*
X184215840Y-63009786D01*
X184254711Y-63049648D01*
X184299409Y-63079555D01*
X184348275Y-63099526D01*
X184399649Y-63109578D01*
X184451870Y-63109730D01*
X184503277Y-63100000D01*
X184552211Y-63080405D01*
X184597012Y-63050964D01*
X184636019Y-63011695D01*
X184667571Y-62962615D01*
X184671445Y-62954650D01*
X184686331Y-62911559D01*
X184694578Y-62862951D01*
X184695697Y-62814169D01*
X184689198Y-62770555D01*
X184688561Y-62768241D01*
X184666555Y-62714850D01*
X184633003Y-62666606D01*
X184589518Y-62625434D01*
X184545187Y-62597037D01*
X184526696Y-62587764D01*
X184511134Y-62581652D01*
X184494854Y-62578046D01*
X184474207Y-62576287D01*
X184445542Y-62575721D01*
X184426454Y-62575680D01*
X184392004Y-62575914D01*
X184367431Y-62577036D01*
X184349063Y-62579679D01*
X184333232Y-62584473D01*
X184316270Y-62592050D01*
X184308347Y-62596000D01*
X184257579Y-62628933D01*
X184215050Y-62671577D01*
X184182754Y-62721896D01*
X184180661Y-62726215D01*
X184170508Y-62748820D01*
X184164117Y-62767572D01*
X184160630Y-62786979D01*
X184159187Y-62811550D01*
X184158924Y-62840167D01*
X184159205Y-62872080D01*
G37*
X184159205Y-62872080D02*
X184160719Y-62895024D01*
X184164440Y-62913573D01*
X184171343Y-62932301D01*
X184182404Y-62955784D01*
X184184458Y-62959952D01*
X184215840Y-63009786D01*
X184254711Y-63049648D01*
X184299409Y-63079555D01*
X184348275Y-63099526D01*
X184399649Y-63109578D01*
X184451870Y-63109730D01*
X184503277Y-63100000D01*
X184552211Y-63080405D01*
X184597012Y-63050964D01*
X184636019Y-63011695D01*
X184667571Y-62962615D01*
X184671445Y-62954650D01*
X184686331Y-62911559D01*
X184694578Y-62862951D01*
X184695697Y-62814169D01*
X184689198Y-62770555D01*
X184688561Y-62768241D01*
X184666555Y-62714850D01*
X184633003Y-62666606D01*
X184589518Y-62625434D01*
X184545187Y-62597037D01*
X184526696Y-62587764D01*
X184511134Y-62581652D01*
X184494854Y-62578046D01*
X184474207Y-62576287D01*
X184445542Y-62575721D01*
X184426454Y-62575680D01*
X184392004Y-62575914D01*
X184367431Y-62577036D01*
X184349063Y-62579679D01*
X184333232Y-62584473D01*
X184316270Y-62592050D01*
X184308347Y-62596000D01*
X184257579Y-62628933D01*
X184215050Y-62671577D01*
X184182754Y-62721896D01*
X184180661Y-62726215D01*
X184170508Y-62748820D01*
X184164117Y-62767572D01*
X184160630Y-62786979D01*
X184159187Y-62811550D01*
X184158924Y-62840167D01*
X184159205Y-62872080D01*
%TO.C,BT1*%
D12*
X208266428Y-60267142D02*
X207123571Y-60267142D01*
X193026428Y-60267142D02*
X191883571Y-60267142D01*
X192455000Y-60838571D02*
X192455000Y-59695714D01*
%TO.C,D1*%
D13*
X185327619Y-50240476D02*
X185327619Y-50040476D01*
X185280000Y-50040476D01*
X185251428Y-50050000D01*
X185232380Y-50069047D01*
X185222857Y-50088095D01*
X185213333Y-50126190D01*
X185213333Y-50154761D01*
X185222857Y-50192857D01*
X185232380Y-50211904D01*
X185251428Y-50230952D01*
X185280000Y-50240476D01*
X185327619Y-50240476D01*
X185022857Y-50240476D02*
X185137142Y-50240476D01*
X185080000Y-50240476D02*
X185080000Y-50040476D01*
X185099047Y-50069047D01*
X185118095Y-50088095D01*
X185137142Y-50097619D01*
%TD*%
M02*
