M48
; DRILL file {KiCad (5.1.9)-1} date 09/26/21 23:12:44
; FORMAT={-:-/ absolute / inch / decimal}
; #@! TF.CreationDate,2021-09-26T23:12:44-04:00
; #@! TF.GenerationSoftware,Kicad,Pcbnew,(5.1.9)-1
; #@! TF.FileFunction,Plated,1,2,PTH
FMAT,2
INCH
T1C0.0157
T2C0.0394
T3C0.0512
%
G90
G05
T1
X7.3253Y-2.1916
X7.5322Y-2.0989
X7.6191Y-2.5644
X7.8017Y-2.3801
X7.8793Y-2.284
X7.9385Y-2.1068
X8.004Y-2.078
X8.075Y-2.5253
X8.1804Y-2.1227
X8.2303Y-2.7685
X8.2576Y-2.0997
X8.2702Y-2.5994
X8.2812Y-2.453
T2
X7.0098Y-2.2685
X7.0098Y-2.3685
X7.0098Y-2.4685
X7.1098Y-2.2685
X7.1098Y-2.3685
X7.1098Y-2.4685
X8.3925Y-2.2685
X8.3925Y-2.3685
X8.3925Y-2.4685
X8.4925Y-2.2685
X8.4925Y-2.3685
X8.4925Y-2.4685
X8.6508Y-2.2685
X8.6508Y-2.3685
X8.6508Y-2.4685
X8.7508Y-2.2685
X8.7508Y-2.3685
X8.7508Y-2.4685
T3
X7.477Y-2.3685
X8.2837Y-2.3685
T0
M30
