%TF.GenerationSoftware,KiCad,Pcbnew,(5.1.9)-1*%
%TF.CreationDate,2021-09-26T23:12:42-04:00*%
%TF.ProjectId,p21014,70323130-3134-42e6-9b69-6361645f7063,rev?*%
%TF.SameCoordinates,Original*%
%TF.FileFunction,Copper,L1,Top*%
%TF.FilePolarity,Positive*%
%FSLAX46Y46*%
G04 Gerber Fmt 4.6, Leading zero omitted, Abs format (unit mm)*
G04 Created by KiCad (PCBNEW (5.1.9)-1) date 2021-09-26 23:12:42*
%MOMM*%
%LPD*%
G01*
G04 APERTURE LIST*
%TA.AperFunction,ComponentPad*%
%ADD10O,1.700000X1.700000*%
%TD*%
%TA.AperFunction,ComponentPad*%
%ADD11R,1.700000X1.700000*%
%TD*%
%TA.AperFunction,ComponentPad*%
%ADD12C,2.040000*%
%TD*%
%TA.AperFunction,SMDPad,CuDef*%
%ADD13R,1.270000X4.200000*%
%TD*%
%TA.AperFunction,SMDPad,CuDef*%
%ADD14R,1.840000X0.930000*%
%TD*%
%TA.AperFunction,SMDPad,CuDef*%
%ADD15R,1.840000X3.190000*%
%TD*%
%TA.AperFunction,ViaPad*%
%ADD16C,0.800000*%
%TD*%
%TA.AperFunction,Conductor*%
%ADD17C,0.250000*%
%TD*%
%TA.AperFunction,Conductor*%
%ADD18C,0.254000*%
%TD*%
%TA.AperFunction,Conductor*%
%ADD19C,0.100000*%
%TD*%
G04 APERTURE END LIST*
D10*
%TO.P,J2,6*%
%TO.N,/RST*%
X178050000Y-57620000D03*
%TO.P,J2,5*%
%TO.N,/SDA*%
X180590000Y-57620000D03*
%TO.P,J2,4*%
%TO.N,/SCL*%
X178050000Y-60160000D03*
%TO.P,J2,3*%
%TO.N,GNDREF*%
X180590000Y-60160000D03*
%TO.P,J2,2*%
%TO.N,/IMU_B/3v*%
X178050000Y-62700000D03*
D11*
%TO.P,J2,1*%
%TO.N,+5V*%
X180590000Y-62700000D03*
%TD*%
D10*
%TO.P,J1,6*%
%TO.N,/RST*%
X222270000Y-62700000D03*
%TO.P,J1,5*%
%TO.N,/SDA*%
X219730000Y-62700000D03*
%TO.P,J1,4*%
%TO.N,/SCL*%
X222270000Y-60160000D03*
%TO.P,J1,3*%
%TO.N,GNDREF*%
X219730000Y-60160000D03*
%TO.P,J1,2*%
%TO.N,/IMU_A/3v*%
X222270000Y-57620000D03*
D11*
%TO.P,J1,1*%
%TO.N,+5V*%
X219730000Y-57620000D03*
%TD*%
D12*
%TO.P,BT1,2*%
%TO.N,GNDREF*%
X210405000Y-60160000D03*
%TO.P,BT1,1*%
%TO.N,Net-(BT1-Pad1)*%
X189915000Y-60160000D03*
%TD*%
D11*
%TO.P,J3,1*%
%TO.N,Net-(J3-Pad1)*%
X213170000Y-57620000D03*
D10*
%TO.P,J3,2*%
%TO.N,Net-(J3-Pad2)*%
X215710000Y-57620000D03*
%TO.P,J3,3*%
%TO.N,Net-(J3-Pad3)*%
X213170000Y-60160000D03*
%TO.P,J3,4*%
%TO.N,Net-(J3-Pad4)*%
X215710000Y-60160000D03*
%TO.P,J3,5*%
%TO.N,Net-(J3-Pad5)*%
X213170000Y-62700000D03*
%TO.P,J3,6*%
%TO.N,Net-(J3-Pad6)*%
X215710000Y-62700000D03*
%TD*%
%TO.P,C1,1*%
%TO.N,+BATT*%
%TA.AperFunction,SMDPad,CuDef*%
G36*
G01*
X196948000Y-58283000D02*
X196948000Y-57783000D01*
G75*
G02*
X197173000Y-57558000I225000J0D01*
G01*
X197623000Y-57558000D01*
G75*
G02*
X197848000Y-57783000I0J-225000D01*
G01*
X197848000Y-58283000D01*
G75*
G02*
X197623000Y-58508000I-225000J0D01*
G01*
X197173000Y-58508000D01*
G75*
G02*
X196948000Y-58283000I0J225000D01*
G01*
G37*
%TD.AperFunction*%
%TO.P,C1,2*%
%TO.N,GNDREF*%
%TA.AperFunction,SMDPad,CuDef*%
G36*
G01*
X198498000Y-58283000D02*
X198498000Y-57783000D01*
G75*
G02*
X198723000Y-57558000I225000J0D01*
G01*
X199173000Y-57558000D01*
G75*
G02*
X199398000Y-57783000I0J-225000D01*
G01*
X199398000Y-58283000D01*
G75*
G02*
X199173000Y-58508000I-225000J0D01*
G01*
X198723000Y-58508000D01*
G75*
G02*
X198498000Y-58283000I0J225000D01*
G01*
G37*
%TD.AperFunction*%
%TD*%
%TO.P,C2,2*%
%TO.N,GNDREF*%
%TA.AperFunction,SMDPad,CuDef*%
G36*
G01*
X198498000Y-55265000D02*
X198498000Y-54765000D01*
G75*
G02*
X198723000Y-54540000I225000J0D01*
G01*
X199173000Y-54540000D01*
G75*
G02*
X199398000Y-54765000I0J-225000D01*
G01*
X199398000Y-55265000D01*
G75*
G02*
X199173000Y-55490000I-225000J0D01*
G01*
X198723000Y-55490000D01*
G75*
G02*
X198498000Y-55265000I0J225000D01*
G01*
G37*
%TD.AperFunction*%
%TO.P,C2,1*%
%TO.N,+5V*%
%TA.AperFunction,SMDPad,CuDef*%
G36*
G01*
X196948000Y-55265000D02*
X196948000Y-54765000D01*
G75*
G02*
X197173000Y-54540000I225000J0D01*
G01*
X197623000Y-54540000D01*
G75*
G02*
X197848000Y-54765000I0J-225000D01*
G01*
X197848000Y-55265000D01*
G75*
G02*
X197623000Y-55490000I-225000J0D01*
G01*
X197173000Y-55490000D01*
G75*
G02*
X196948000Y-55265000I0J225000D01*
G01*
G37*
%TD.AperFunction*%
%TD*%
%TO.P,C3,1*%
%TO.N,Net-(C3-Pad1)*%
%TA.AperFunction,SMDPad,CuDef*%
G36*
G01*
X192938000Y-58283000D02*
X192938000Y-57783000D01*
G75*
G02*
X193163000Y-57558000I225000J0D01*
G01*
X193613000Y-57558000D01*
G75*
G02*
X193838000Y-57783000I0J-225000D01*
G01*
X193838000Y-58283000D01*
G75*
G02*
X193613000Y-58508000I-225000J0D01*
G01*
X193163000Y-58508000D01*
G75*
G02*
X192938000Y-58283000I0J225000D01*
G01*
G37*
%TD.AperFunction*%
%TO.P,C3,2*%
%TO.N,GNDREF*%
%TA.AperFunction,SMDPad,CuDef*%
G36*
G01*
X194488000Y-58283000D02*
X194488000Y-57783000D01*
G75*
G02*
X194713000Y-57558000I225000J0D01*
G01*
X195163000Y-57558000D01*
G75*
G02*
X195388000Y-57783000I0J-225000D01*
G01*
X195388000Y-58283000D01*
G75*
G02*
X195163000Y-58508000I-225000J0D01*
G01*
X194713000Y-58508000D01*
G75*
G02*
X194488000Y-58283000I0J225000D01*
G01*
G37*
%TD.AperFunction*%
%TD*%
%TO.P,C4,2*%
%TO.N,GNDREF*%
%TA.AperFunction,SMDPad,CuDef*%
G36*
G01*
X194488000Y-55265000D02*
X194488000Y-54765000D01*
G75*
G02*
X194713000Y-54540000I225000J0D01*
G01*
X195163000Y-54540000D01*
G75*
G02*
X195388000Y-54765000I0J-225000D01*
G01*
X195388000Y-55265000D01*
G75*
G02*
X195163000Y-55490000I-225000J0D01*
G01*
X194713000Y-55490000D01*
G75*
G02*
X194488000Y-55265000I0J225000D01*
G01*
G37*
%TD.AperFunction*%
%TO.P,C4,1*%
%TO.N,+5V*%
%TA.AperFunction,SMDPad,CuDef*%
G36*
G01*
X192938000Y-55265000D02*
X192938000Y-54765000D01*
G75*
G02*
X193163000Y-54540000I225000J0D01*
G01*
X193613000Y-54540000D01*
G75*
G02*
X193838000Y-54765000I0J-225000D01*
G01*
X193838000Y-55265000D01*
G75*
G02*
X193613000Y-55490000I-225000J0D01*
G01*
X193163000Y-55490000D01*
G75*
G02*
X192938000Y-55265000I0J225000D01*
G01*
G37*
%TD.AperFunction*%
%TD*%
%TO.P,C5,1*%
%TO.N,+5V*%
%TA.AperFunction,SMDPad,CuDef*%
G36*
G01*
X186690000Y-55625001D02*
X186690000Y-54774999D01*
G75*
G02*
X186939999Y-54525000I249999J0D01*
G01*
X187840001Y-54525000D01*
G75*
G02*
X188090000Y-54774999I0J-249999D01*
G01*
X188090000Y-55625001D01*
G75*
G02*
X187840001Y-55875000I-249999J0D01*
G01*
X186939999Y-55875000D01*
G75*
G02*
X186690000Y-55625001I0J249999D01*
G01*
G37*
%TD.AperFunction*%
%TO.P,C5,2*%
%TO.N,GNDREF*%
%TA.AperFunction,SMDPad,CuDef*%
G36*
G01*
X189390000Y-55625001D02*
X189390000Y-54774999D01*
G75*
G02*
X189639999Y-54525000I249999J0D01*
G01*
X190540001Y-54525000D01*
G75*
G02*
X190790000Y-54774999I0J-249999D01*
G01*
X190790000Y-55625001D01*
G75*
G02*
X190540001Y-55875000I-249999J0D01*
G01*
X189639999Y-55875000D01*
G75*
G02*
X189390000Y-55625001I0J249999D01*
G01*
G37*
%TD.AperFunction*%
%TD*%
D13*
%TO.P,J4,1*%
%TO.N,Net-(J3-Pad5)*%
X179840000Y-70320000D03*
%TO.P,J4,2*%
%TO.N,Net-(J4-Pad2)*%
X182380000Y-70320000D03*
%TO.P,J4,4*%
%TO.N,GNDREF*%
X187460000Y-70320000D03*
%TO.P,J4,3*%
%TO.N,Net-(J4-Pad3)*%
X184920000Y-70320000D03*
%TO.P,J4,6*%
%TO.N,Net-(J3-Pad4)*%
X192540000Y-70320000D03*
%TO.P,J4,5*%
%TO.N,Net-(J4-Pad5)*%
X190000000Y-70320000D03*
%TO.P,J4,8*%
%TO.N,Net-(J4-Pad8)*%
X197620000Y-70320000D03*
%TO.P,J4,7*%
%TO.N,Net-(J4-Pad7)*%
X195080000Y-70320000D03*
%TD*%
%TO.P,J5,1*%
%TO.N,+5V*%
X190000000Y-50000000D03*
%TO.P,J5,2*%
%TO.N,GNDREF*%
X192540000Y-50000000D03*
%TO.P,J5,4*%
%TO.N,Net-(J5-Pad4)*%
X197620000Y-50000000D03*
%TO.P,J5,3*%
%TO.N,Net-(J5-Pad3)*%
X195080000Y-50000000D03*
%TO.P,J5,6*%
%TO.N,Net-(J5-Pad6)*%
X202700000Y-50000000D03*
%TO.P,J5,5*%
%TO.N,/RST*%
X200160000Y-50000000D03*
%TO.P,J5,8*%
%TO.N,/Feather_Board/GREEN*%
X207780000Y-50000000D03*
%TO.P,J5,10*%
%TO.N,Net-(J5-Pad10)*%
X212860000Y-50000000D03*
%TO.P,J5,7*%
%TO.N,/Feather_Board/RED*%
X205240000Y-50000000D03*
%TO.P,J5,11*%
%TO.N,/SCL*%
X215400000Y-50000000D03*
%TO.P,J5,12*%
%TO.N,/SDA*%
X217940000Y-50000000D03*
%TO.P,J5,9*%
%TO.N,/Feather_Board/BLUE*%
X210320000Y-50000000D03*
%TD*%
%TO.P,J6,1*%
%TO.N,Net-(J3-Pad3)*%
X205240000Y-70320000D03*
%TO.P,J6,2*%
%TO.N,Net-(J3-Pad2)*%
X207780000Y-70320000D03*
%TO.P,J6,4*%
%TO.N,Net-(J6-Pad4)*%
X212860000Y-70320000D03*
%TO.P,J6,3*%
%TO.N,Net-(J3-Pad1)*%
X210320000Y-70320000D03*
%TO.P,J6,6*%
%TO.N,Net-(J3-Pad6)*%
X217940000Y-70320000D03*
%TO.P,J6,5*%
%TO.N,Net-(J6-Pad5)*%
X215400000Y-70320000D03*
%TD*%
%TO.P,R1,1*%
%TO.N,/Feather_Board/GREEN*%
%TA.AperFunction,SMDPad,CuDef*%
G36*
G01*
X202700000Y-58304000D02*
X202700000Y-57754000D01*
G75*
G02*
X202900000Y-57554000I200000J0D01*
G01*
X203300000Y-57554000D01*
G75*
G02*
X203500000Y-57754000I0J-200000D01*
G01*
X203500000Y-58304000D01*
G75*
G02*
X203300000Y-58504000I-200000J0D01*
G01*
X202900000Y-58504000D01*
G75*
G02*
X202700000Y-58304000I0J200000D01*
G01*
G37*
%TD.AperFunction*%
%TO.P,R1,2*%
%TO.N,Net-(D1-Pad1)*%
%TA.AperFunction,SMDPad,CuDef*%
G36*
G01*
X204350000Y-58304000D02*
X204350000Y-57754000D01*
G75*
G02*
X204550000Y-57554000I200000J0D01*
G01*
X204950000Y-57554000D01*
G75*
G02*
X205150000Y-57754000I0J-200000D01*
G01*
X205150000Y-58304000D01*
G75*
G02*
X204950000Y-58504000I-200000J0D01*
G01*
X204550000Y-58504000D01*
G75*
G02*
X204350000Y-58304000I0J200000D01*
G01*
G37*
%TD.AperFunction*%
%TD*%
%TO.P,R2,2*%
%TO.N,Net-(D1-Pad3)*%
%TA.AperFunction,SMDPad,CuDef*%
G36*
G01*
X208360000Y-55286000D02*
X208360000Y-54736000D01*
G75*
G02*
X208560000Y-54536000I200000J0D01*
G01*
X208960000Y-54536000D01*
G75*
G02*
X209160000Y-54736000I0J-200000D01*
G01*
X209160000Y-55286000D01*
G75*
G02*
X208960000Y-55486000I-200000J0D01*
G01*
X208560000Y-55486000D01*
G75*
G02*
X208360000Y-55286000I0J200000D01*
G01*
G37*
%TD.AperFunction*%
%TO.P,R2,1*%
%TO.N,/Feather_Board/RED*%
%TA.AperFunction,SMDPad,CuDef*%
G36*
G01*
X206710000Y-55286000D02*
X206710000Y-54736000D01*
G75*
G02*
X206910000Y-54536000I200000J0D01*
G01*
X207310000Y-54536000D01*
G75*
G02*
X207510000Y-54736000I0J-200000D01*
G01*
X207510000Y-55286000D01*
G75*
G02*
X207310000Y-55486000I-200000J0D01*
G01*
X206910000Y-55486000D01*
G75*
G02*
X206710000Y-55286000I0J200000D01*
G01*
G37*
%TD.AperFunction*%
%TD*%
%TO.P,R3,2*%
%TO.N,Net-(D1-Pad2)*%
%TA.AperFunction,SMDPad,CuDef*%
G36*
G01*
X210489000Y-65513000D02*
X210489000Y-64963000D01*
G75*
G02*
X210689000Y-64763000I200000J0D01*
G01*
X211089000Y-64763000D01*
G75*
G02*
X211289000Y-64963000I0J-200000D01*
G01*
X211289000Y-65513000D01*
G75*
G02*
X211089000Y-65713000I-200000J0D01*
G01*
X210689000Y-65713000D01*
G75*
G02*
X210489000Y-65513000I0J200000D01*
G01*
G37*
%TD.AperFunction*%
%TO.P,R3,1*%
%TO.N,/Feather_Board/BLUE*%
%TA.AperFunction,SMDPad,CuDef*%
G36*
G01*
X208839000Y-65513000D02*
X208839000Y-64963000D01*
G75*
G02*
X209039000Y-64763000I200000J0D01*
G01*
X209439000Y-64763000D01*
G75*
G02*
X209639000Y-64963000I0J-200000D01*
G01*
X209639000Y-65513000D01*
G75*
G02*
X209439000Y-65713000I-200000J0D01*
G01*
X209039000Y-65713000D01*
G75*
G02*
X208839000Y-65513000I0J200000D01*
G01*
G37*
%TD.AperFunction*%
%TD*%
%TO.P,R4,1*%
%TO.N,+BATT*%
%TA.AperFunction,SMDPad,CuDef*%
G36*
G01*
X202700000Y-55286000D02*
X202700000Y-54736000D01*
G75*
G02*
X202900000Y-54536000I200000J0D01*
G01*
X203300000Y-54536000D01*
G75*
G02*
X203500000Y-54736000I0J-200000D01*
G01*
X203500000Y-55286000D01*
G75*
G02*
X203300000Y-55486000I-200000J0D01*
G01*
X202900000Y-55486000D01*
G75*
G02*
X202700000Y-55286000I0J200000D01*
G01*
G37*
%TD.AperFunction*%
%TO.P,R4,2*%
%TO.N,Net-(D2-Pad2)*%
%TA.AperFunction,SMDPad,CuDef*%
G36*
G01*
X204350000Y-55286000D02*
X204350000Y-54736000D01*
G75*
G02*
X204550000Y-54536000I200000J0D01*
G01*
X204950000Y-54536000D01*
G75*
G02*
X205150000Y-54736000I0J-200000D01*
G01*
X205150000Y-55286000D01*
G75*
G02*
X204950000Y-55486000I-200000J0D01*
G01*
X204550000Y-55486000D01*
G75*
G02*
X204350000Y-55286000I0J200000D01*
G01*
G37*
%TD.AperFunction*%
%TD*%
%TO.P,R5,2*%
%TO.N,+5V*%
%TA.AperFunction,SMDPad,CuDef*%
G36*
G01*
X207955000Y-62285000D02*
X207955000Y-61735000D01*
G75*
G02*
X208155000Y-61535000I200000J0D01*
G01*
X208555000Y-61535000D01*
G75*
G02*
X208755000Y-61735000I0J-200000D01*
G01*
X208755000Y-62285000D01*
G75*
G02*
X208555000Y-62485000I-200000J0D01*
G01*
X208155000Y-62485000D01*
G75*
G02*
X207955000Y-62285000I0J200000D01*
G01*
G37*
%TD.AperFunction*%
%TO.P,R5,1*%
%TO.N,/SDA*%
%TA.AperFunction,SMDPad,CuDef*%
G36*
G01*
X206305000Y-62285000D02*
X206305000Y-61735000D01*
G75*
G02*
X206505000Y-61535000I200000J0D01*
G01*
X206905000Y-61535000D01*
G75*
G02*
X207105000Y-61735000I0J-200000D01*
G01*
X207105000Y-62285000D01*
G75*
G02*
X206905000Y-62485000I-200000J0D01*
G01*
X206505000Y-62485000D01*
G75*
G02*
X206305000Y-62285000I0J200000D01*
G01*
G37*
%TD.AperFunction*%
%TD*%
%TO.P,R6,1*%
%TO.N,+5V*%
%TA.AperFunction,SMDPad,CuDef*%
G36*
G01*
X206710000Y-58304000D02*
X206710000Y-57754000D01*
G75*
G02*
X206910000Y-57554000I200000J0D01*
G01*
X207310000Y-57554000D01*
G75*
G02*
X207510000Y-57754000I0J-200000D01*
G01*
X207510000Y-58304000D01*
G75*
G02*
X207310000Y-58504000I-200000J0D01*
G01*
X206910000Y-58504000D01*
G75*
G02*
X206710000Y-58304000I0J200000D01*
G01*
G37*
%TD.AperFunction*%
%TO.P,R6,2*%
%TO.N,/SCL*%
%TA.AperFunction,SMDPad,CuDef*%
G36*
G01*
X208360000Y-58304000D02*
X208360000Y-57754000D01*
G75*
G02*
X208560000Y-57554000I200000J0D01*
G01*
X208960000Y-57554000D01*
G75*
G02*
X209160000Y-57754000I0J-200000D01*
G01*
X209160000Y-58304000D01*
G75*
G02*
X208960000Y-58504000I-200000J0D01*
G01*
X208560000Y-58504000D01*
G75*
G02*
X208360000Y-58304000I0J200000D01*
G01*
G37*
%TD.AperFunction*%
%TD*%
%TO.P,R7,1*%
%TO.N,/RST*%
%TA.AperFunction,SMDPad,CuDef*%
G36*
G01*
X204521000Y-65513000D02*
X204521000Y-64963000D01*
G75*
G02*
X204721000Y-64763000I200000J0D01*
G01*
X205121000Y-64763000D01*
G75*
G02*
X205321000Y-64963000I0J-200000D01*
G01*
X205321000Y-65513000D01*
G75*
G02*
X205121000Y-65713000I-200000J0D01*
G01*
X204721000Y-65713000D01*
G75*
G02*
X204521000Y-65513000I0J200000D01*
G01*
G37*
%TD.AperFunction*%
%TO.P,R7,2*%
%TO.N,GNDREF*%
%TA.AperFunction,SMDPad,CuDef*%
G36*
G01*
X206171000Y-65513000D02*
X206171000Y-64963000D01*
G75*
G02*
X206371000Y-64763000I200000J0D01*
G01*
X206771000Y-64763000D01*
G75*
G02*
X206971000Y-64963000I0J-200000D01*
G01*
X206971000Y-65513000D01*
G75*
G02*
X206771000Y-65713000I-200000J0D01*
G01*
X206371000Y-65713000D01*
G75*
G02*
X206171000Y-65513000I0J200000D01*
G01*
G37*
%TD.AperFunction*%
%TD*%
D14*
%TO.P,VR1,1*%
%TO.N,GNDREF*%
X195075000Y-61020000D03*
%TO.P,VR1,2*%
%TO.N,+5V*%
X195075000Y-63320000D03*
%TO.P,VR1,3*%
%TO.N,+BATT*%
X195075000Y-65620000D03*
D15*
%TO.P,VR1,4*%
%TO.N,+5V*%
X201245000Y-63320000D03*
%TD*%
D16*
%TO.N,GNDREF*%
X191318300Y-53312000D03*
%TO.N,+BATT*%
X198162500Y-60454300D03*
X193523900Y-65136700D03*
%TO.N,Net-(D1-Pad1)*%
X203302600Y-52781800D03*
%TO.N,Net-(D1-Pad3)*%
X207782200Y-53915500D03*
%TO.N,Net-(D1-Pad2)*%
X210064000Y-66025300D03*
%TO.N,Net-(D2-Pad2)*%
X201639100Y-53512700D03*
%TO.N,/RST*%
X200134500Y-58012400D03*
X205105500Y-64141900D03*
%TO.N,Net-(J3-Pad2)*%
X209050000Y-70320000D03*
%TO.N,Net-(J3-Pad5)*%
X186063700Y-55666900D03*
%TO.N,/Feather_Board/BLUE*%
X209742100Y-53332600D03*
X210343400Y-62306300D03*
%TD*%
D17*
%TO.N,GNDREF*%
X191485900Y-53479400D02*
X191485900Y-53479500D01*
X191485900Y-53479500D02*
X191485900Y-53804100D01*
X191485900Y-53804100D02*
X190090000Y-55200000D01*
X191318300Y-53312000D02*
X191318400Y-53312000D01*
X191318400Y-53312000D02*
X191485900Y-53479400D01*
X191485900Y-53479400D02*
X192540000Y-52425300D01*
X195033900Y-54919100D02*
X194938000Y-55015000D01*
X198948000Y-55015000D02*
X198138600Y-54205600D01*
X198138600Y-54205600D02*
X195747400Y-54205600D01*
X195747400Y-54205600D02*
X195033900Y-54919100D01*
X192540000Y-52425300D02*
X195033900Y-54919100D01*
X192540000Y-50000000D02*
X192540000Y-52425300D01*
X193829700Y-61020000D02*
X193829700Y-59141300D01*
X193829700Y-59141300D02*
X194938000Y-58033000D01*
X193829700Y-63925100D02*
X191429600Y-63925100D01*
X191429600Y-63925100D02*
X187460000Y-67894700D01*
X206571000Y-65238000D02*
X205751900Y-66057100D01*
X205751900Y-66057100D02*
X199999600Y-66057100D01*
X199999600Y-66057100D02*
X198116000Y-64173500D01*
X198116000Y-64173500D02*
X194078100Y-64173500D01*
X194078100Y-64173500D02*
X193829700Y-63925100D01*
X193829700Y-63925100D02*
X193829700Y-61020000D01*
X195075000Y-61020000D02*
X193829700Y-61020000D01*
X210405000Y-60160000D02*
X209167800Y-61397200D01*
X209167800Y-61397200D02*
X209167800Y-62641200D01*
X209167800Y-62641200D02*
X206571000Y-65238000D01*
X198948000Y-55015000D02*
X198948000Y-58033000D01*
X180590000Y-60160000D02*
X180590000Y-61335300D01*
X187460000Y-67894700D02*
X183618500Y-67894700D01*
X183618500Y-67894700D02*
X179414700Y-63690900D01*
X179414700Y-63690900D02*
X179414700Y-61702500D01*
X179414700Y-61702500D02*
X179781900Y-61335300D01*
X179781900Y-61335300D02*
X180590000Y-61335300D01*
X187460000Y-68007300D02*
X187460000Y-67894700D01*
X187460000Y-70320000D02*
X187460000Y-68007300D01*
%TO.N,+BATT*%
X198162500Y-60454300D02*
X198718400Y-60454300D01*
X198718400Y-60454300D02*
X203100000Y-56072700D01*
X203100000Y-56072700D02*
X203100000Y-55011000D01*
X198162500Y-60454300D02*
X197398000Y-59689800D01*
X197398000Y-59689800D02*
X197398000Y-58033000D01*
X193829700Y-65620000D02*
X193829700Y-65442500D01*
X193829700Y-65442500D02*
X193523900Y-65136700D01*
X195075000Y-65620000D02*
X193829700Y-65620000D01*
%TO.N,+5V*%
X196440400Y-55847000D02*
X196566000Y-55847000D01*
X196566000Y-55847000D02*
X197398000Y-55015000D01*
X193388000Y-55015000D02*
X194220000Y-55847000D01*
X194220000Y-55847000D02*
X196440400Y-55847000D01*
X196440400Y-63199900D02*
X196440400Y-55847000D01*
X196440400Y-63199900D02*
X196320300Y-63320000D01*
X201245000Y-63199900D02*
X196440400Y-63199900D01*
X195075000Y-63320000D02*
X196320300Y-63320000D01*
X201245000Y-63199900D02*
X201245000Y-63079900D01*
X201245000Y-63320000D02*
X201245000Y-63199900D01*
X205923700Y-62506100D02*
X205923700Y-60055200D01*
X205923700Y-60055200D02*
X207110000Y-58868900D01*
X208355000Y-62010000D02*
X207517400Y-62847600D01*
X207517400Y-62847600D02*
X206265200Y-62847600D01*
X206265200Y-62847600D02*
X205923700Y-62506100D01*
X201245000Y-63079900D02*
X205349900Y-63079900D01*
X205349900Y-63079900D02*
X205923700Y-62506100D01*
X190000000Y-50000000D02*
X190000000Y-52425300D01*
X190000000Y-52425300D02*
X187390000Y-55035300D01*
X187390000Y-55035300D02*
X187390000Y-55200000D01*
X188263900Y-56201400D02*
X181765300Y-62700000D01*
X193388000Y-55015000D02*
X192201600Y-56201400D01*
X192201600Y-56201400D02*
X188263900Y-56201400D01*
X188263900Y-56201400D02*
X188263900Y-56073900D01*
X188263900Y-56073900D02*
X187390000Y-55200000D01*
X218554700Y-57620000D02*
X216466100Y-55531400D01*
X216466100Y-55531400D02*
X211761000Y-55531400D01*
X211761000Y-55531400D02*
X210697300Y-56595100D01*
X210697300Y-56595100D02*
X210697300Y-57313900D01*
X210697300Y-57313900D02*
X209142300Y-58868900D01*
X209142300Y-58868900D02*
X207110000Y-58868900D01*
X180590000Y-62700000D02*
X181765300Y-62700000D01*
X207110000Y-58868900D02*
X207110000Y-58029000D01*
X219730000Y-57620000D02*
X218554700Y-57620000D01*
%TO.N,Net-(D1-Pad1)*%
X204750000Y-58029000D02*
X205489100Y-57289900D01*
X205489100Y-57289900D02*
X205489100Y-54453100D01*
X205489100Y-54453100D02*
X203817800Y-52781800D01*
X203817800Y-52781800D02*
X203302600Y-52781800D01*
%TO.N,Net-(D1-Pad3)*%
X208760000Y-55011000D02*
X207782200Y-54033200D01*
X207782200Y-54033200D02*
X207782200Y-53915500D01*
%TO.N,Net-(D1-Pad2)*%
X210889000Y-65238000D02*
X210101700Y-66025300D01*
X210101700Y-66025300D02*
X210064000Y-66025300D01*
%TO.N,Net-(D2-Pad2)*%
X204750000Y-55011000D02*
X203251700Y-53512700D01*
X203251700Y-53512700D02*
X201639100Y-53512700D01*
%TO.N,/SCL*%
X222270000Y-60160000D02*
X222270000Y-58984700D01*
X215400000Y-52425300D02*
X216702900Y-52425300D01*
X216702900Y-52425300D02*
X221094700Y-56817100D01*
X221094700Y-56817100D02*
X221094700Y-58176800D01*
X221094700Y-58176800D02*
X221902600Y-58984700D01*
X221902600Y-58984700D02*
X222270000Y-58984700D01*
X215400000Y-52312700D02*
X215400000Y-52425300D01*
X215400000Y-50000000D02*
X215400000Y-52312700D01*
X208760000Y-58029000D02*
X208760000Y-57856000D01*
X208760000Y-57856000D02*
X214190700Y-52425300D01*
X214190700Y-52425300D02*
X215400000Y-52425300D01*
%TO.N,/SDA*%
X217940000Y-50000000D02*
X217940000Y-52425300D01*
X217940000Y-52425300D02*
X218780300Y-52425300D01*
X218780300Y-52425300D02*
X223474400Y-57119400D01*
X223474400Y-57119400D02*
X223474400Y-60628800D01*
X223474400Y-60628800D02*
X222578500Y-61524700D01*
X222578500Y-61524700D02*
X219730000Y-61524700D01*
X219730000Y-62700000D02*
X219730000Y-61524700D01*
X206705000Y-62010000D02*
X206705000Y-61943200D01*
X206705000Y-61943200D02*
X211186700Y-57461500D01*
X211186700Y-57461500D02*
X211186700Y-56742600D01*
X211186700Y-56742600D02*
X211947500Y-55981800D01*
X211947500Y-55981800D02*
X215749000Y-55981800D01*
X215749000Y-55981800D02*
X218554700Y-58787500D01*
X218554700Y-58787500D02*
X218554700Y-60716800D01*
X218554700Y-60716800D02*
X219362600Y-61524700D01*
X219362600Y-61524700D02*
X219730000Y-61524700D01*
%TO.N,/RST*%
X200160000Y-50000000D02*
X200160000Y-52425300D01*
X200134500Y-58012400D02*
X200134500Y-52450800D01*
X200134500Y-52450800D02*
X200160000Y-52425300D01*
X204921000Y-65238000D02*
X205105400Y-65053600D01*
X205105400Y-65053600D02*
X205105400Y-64141900D01*
X205105400Y-64141900D02*
X205105500Y-64141900D01*
%TO.N,Net-(J3-Pad1)*%
X213170000Y-57620000D02*
X213170000Y-58795300D01*
X210320000Y-70320000D02*
X210320000Y-67894700D01*
X210320000Y-67894700D02*
X214345300Y-63869400D01*
X214345300Y-63869400D02*
X214345300Y-59603200D01*
X214345300Y-59603200D02*
X213537400Y-58795300D01*
X213537400Y-58795300D02*
X213170000Y-58795300D01*
%TO.N,Net-(J3-Pad2)*%
X207780000Y-70320000D02*
X209050000Y-70320000D01*
%TO.N,Net-(J3-Pad3)*%
X213170000Y-60160000D02*
X213170000Y-61335300D01*
X205240000Y-70320000D02*
X205240000Y-67894700D01*
X205240000Y-67894700D02*
X209454300Y-67894700D01*
X209454300Y-67894700D02*
X211994700Y-65354300D01*
X211994700Y-65354300D02*
X211994700Y-62143200D01*
X211994700Y-62143200D02*
X212802600Y-61335300D01*
X212802600Y-61335300D02*
X213170000Y-61335300D01*
%TO.N,Net-(J3-Pad4)*%
X215710000Y-58984700D02*
X215342600Y-58984700D01*
X215342600Y-58984700D02*
X214534700Y-58176800D01*
X214534700Y-58176800D02*
X214534700Y-56778200D01*
X214534700Y-56778200D02*
X214201100Y-56444600D01*
X214201100Y-56444600D02*
X212121600Y-56444600D01*
X212121600Y-56444600D02*
X211994600Y-56571600D01*
X211994600Y-56571600D02*
X211994600Y-60487200D01*
X211994600Y-60487200D02*
X210900800Y-61581000D01*
X210900800Y-61581000D02*
X210043000Y-61581000D01*
X210043000Y-61581000D02*
X209618100Y-62005900D01*
X209618100Y-62005900D02*
X209618100Y-63419000D01*
X209618100Y-63419000D02*
X206511700Y-66525400D01*
X206511700Y-66525400D02*
X193909300Y-66525400D01*
X193909300Y-66525400D02*
X192540000Y-67894700D01*
X215710000Y-60160000D02*
X215710000Y-58984700D01*
X192540000Y-70320000D02*
X192540000Y-67894700D01*
%TO.N,Net-(J3-Pad5)*%
X179840000Y-67894700D02*
X176844000Y-64898700D01*
X176844000Y-64898700D02*
X176844000Y-59690000D01*
X176844000Y-59690000D02*
X177644000Y-58890000D01*
X177644000Y-58890000D02*
X182840600Y-58890000D01*
X182840600Y-58890000D02*
X186063700Y-55666900D01*
X179840000Y-70320000D02*
X179840000Y-67894700D01*
%TO.N,Net-(J3-Pad6)*%
X215710000Y-62700000D02*
X215710000Y-63875300D01*
X217940000Y-70320000D02*
X217940000Y-66105300D01*
X217940000Y-66105300D02*
X215710000Y-63875300D01*
%TO.N,/Feather_Board/GREEN*%
X207780000Y-52425300D02*
X209525500Y-54170800D01*
X209525500Y-54170800D02*
X209525500Y-55500900D01*
X209525500Y-55500900D02*
X209208200Y-55818200D01*
X209208200Y-55818200D02*
X208020500Y-55818200D01*
X208020500Y-55818200D02*
X206241600Y-57597100D01*
X206241600Y-57597100D02*
X206241600Y-57768700D01*
X206241600Y-57768700D02*
X205167400Y-58842900D01*
X205167400Y-58842900D02*
X203913900Y-58842900D01*
X203913900Y-58842900D02*
X203100000Y-58029000D01*
X207780000Y-50000000D02*
X207780000Y-52425300D01*
%TO.N,/Feather_Board/RED*%
X205240000Y-50000000D02*
X205240000Y-52425300D01*
X207110000Y-55011000D02*
X207110000Y-54295300D01*
X207110000Y-54295300D02*
X205240000Y-52425300D01*
%TO.N,/Feather_Board/BLUE*%
X209239000Y-65238000D02*
X210343400Y-64133600D01*
X210343400Y-64133600D02*
X210343400Y-62306300D01*
X210320000Y-50000000D02*
X210320000Y-52754700D01*
X210320000Y-52754700D02*
X209742100Y-53332600D01*
%TD*%
D18*
%TO.N,GNDREF*%
X193656201Y-56358002D02*
X193679999Y-56387001D01*
X193795724Y-56481974D01*
X193927753Y-56552546D01*
X194071014Y-56596003D01*
X194182667Y-56607000D01*
X194182675Y-56607000D01*
X194220000Y-56610676D01*
X194257325Y-56607000D01*
X195680401Y-56607000D01*
X195680401Y-56994273D01*
X195632180Y-56968498D01*
X195512482Y-56932188D01*
X195388000Y-56919928D01*
X195223750Y-56923000D01*
X195065000Y-57081750D01*
X195065000Y-57906000D01*
X195085000Y-57906000D01*
X195085000Y-58160000D01*
X195065000Y-58160000D01*
X195065000Y-58984250D01*
X195223750Y-59143000D01*
X195388000Y-59146072D01*
X195512482Y-59133812D01*
X195632180Y-59097502D01*
X195680401Y-59071727D01*
X195680400Y-59918452D01*
X195360750Y-59920000D01*
X195202000Y-60078750D01*
X195202000Y-60893000D01*
X195222000Y-60893000D01*
X195222000Y-61147000D01*
X195202000Y-61147000D01*
X195202000Y-61961250D01*
X195360750Y-62120000D01*
X195680400Y-62121548D01*
X195680400Y-62216928D01*
X194155000Y-62216928D01*
X194030518Y-62229188D01*
X193910820Y-62265498D01*
X193800506Y-62324463D01*
X193703815Y-62403815D01*
X193624463Y-62500506D01*
X193565498Y-62610820D01*
X193529188Y-62730518D01*
X193516928Y-62855000D01*
X193516928Y-63785000D01*
X193529188Y-63909482D01*
X193565498Y-64029180D01*
X193604261Y-64101700D01*
X193421961Y-64101700D01*
X193222002Y-64141474D01*
X193033644Y-64219495D01*
X192864126Y-64332763D01*
X192719963Y-64476926D01*
X192606695Y-64646444D01*
X192528674Y-64834802D01*
X192488900Y-65034761D01*
X192488900Y-65238639D01*
X192528674Y-65438598D01*
X192606695Y-65626956D01*
X192719963Y-65796474D01*
X192864126Y-65940637D01*
X193033644Y-66053905D01*
X193222002Y-66131926D01*
X193226982Y-66132917D01*
X192028998Y-67330901D01*
X192000000Y-67354699D01*
X191976202Y-67383697D01*
X191976201Y-67383698D01*
X191905026Y-67470424D01*
X191842115Y-67588121D01*
X191780518Y-67594188D01*
X191660820Y-67630498D01*
X191550506Y-67689463D01*
X191453815Y-67768815D01*
X191374463Y-67865506D01*
X191315498Y-67975820D01*
X191279188Y-68095518D01*
X191270000Y-68188808D01*
X191260812Y-68095518D01*
X191224502Y-67975820D01*
X191165537Y-67865506D01*
X191086185Y-67768815D01*
X190989494Y-67689463D01*
X190879180Y-67630498D01*
X190759482Y-67594188D01*
X190635000Y-67581928D01*
X189365000Y-67581928D01*
X189240518Y-67594188D01*
X189120820Y-67630498D01*
X189010506Y-67689463D01*
X188913815Y-67768815D01*
X188834463Y-67865506D01*
X188775498Y-67975820D01*
X188739188Y-68095518D01*
X188730000Y-68188808D01*
X188720812Y-68095518D01*
X188684502Y-67975820D01*
X188625537Y-67865506D01*
X188546185Y-67768815D01*
X188449494Y-67689463D01*
X188339180Y-67630498D01*
X188219482Y-67594188D01*
X188095000Y-67581928D01*
X187745750Y-67585000D01*
X187587000Y-67743750D01*
X187587000Y-70193000D01*
X187607000Y-70193000D01*
X187607000Y-70447000D01*
X187587000Y-70447000D01*
X187587000Y-70467000D01*
X187333000Y-70467000D01*
X187333000Y-70447000D01*
X187313000Y-70447000D01*
X187313000Y-70193000D01*
X187333000Y-70193000D01*
X187333000Y-67743750D01*
X187174250Y-67585000D01*
X186825000Y-67581928D01*
X186700518Y-67594188D01*
X186580820Y-67630498D01*
X186470506Y-67689463D01*
X186373815Y-67768815D01*
X186294463Y-67865506D01*
X186235498Y-67975820D01*
X186199188Y-68095518D01*
X186190000Y-68188808D01*
X186180812Y-68095518D01*
X186144502Y-67975820D01*
X186085537Y-67865506D01*
X186006185Y-67768815D01*
X185909494Y-67689463D01*
X185799180Y-67630498D01*
X185679482Y-67594188D01*
X185555000Y-67581928D01*
X184285000Y-67581928D01*
X184160518Y-67594188D01*
X184040820Y-67630498D01*
X183930506Y-67689463D01*
X183833815Y-67768815D01*
X183754463Y-67865506D01*
X183695498Y-67975820D01*
X183659188Y-68095518D01*
X183650000Y-68188808D01*
X183640812Y-68095518D01*
X183604502Y-67975820D01*
X183545537Y-67865506D01*
X183466185Y-67768815D01*
X183369494Y-67689463D01*
X183259180Y-67630498D01*
X183139482Y-67594188D01*
X183015000Y-67581928D01*
X181745000Y-67581928D01*
X181620518Y-67594188D01*
X181500820Y-67630498D01*
X181390506Y-67689463D01*
X181293815Y-67768815D01*
X181214463Y-67865506D01*
X181155498Y-67975820D01*
X181119188Y-68095518D01*
X181110000Y-68188808D01*
X181100812Y-68095518D01*
X181064502Y-67975820D01*
X181005537Y-67865506D01*
X180926185Y-67768815D01*
X180829494Y-67689463D01*
X180719180Y-67630498D01*
X180599482Y-67594188D01*
X180537886Y-67588121D01*
X180474974Y-67470424D01*
X180380001Y-67354699D01*
X180351003Y-67330901D01*
X177604000Y-64583899D01*
X177604000Y-64122613D01*
X177616842Y-64127932D01*
X177903740Y-64185000D01*
X178196260Y-64185000D01*
X178483158Y-64127932D01*
X178753411Y-64015990D01*
X178996632Y-63853475D01*
X179128487Y-63721620D01*
X179150498Y-63794180D01*
X179209463Y-63904494D01*
X179288815Y-64001185D01*
X179385506Y-64080537D01*
X179495820Y-64139502D01*
X179615518Y-64175812D01*
X179740000Y-64188072D01*
X181440000Y-64188072D01*
X181564482Y-64175812D01*
X181684180Y-64139502D01*
X181794494Y-64080537D01*
X181891185Y-64001185D01*
X181970537Y-63904494D01*
X182029502Y-63794180D01*
X182065812Y-63674482D01*
X182078072Y-63550000D01*
X182078072Y-63394575D01*
X182189576Y-63334974D01*
X182305301Y-63240001D01*
X182329104Y-63210997D01*
X185543104Y-59996997D01*
X188260000Y-59996997D01*
X188260000Y-60323003D01*
X188323601Y-60642746D01*
X188448358Y-60943937D01*
X188629477Y-61215001D01*
X188859999Y-61445523D01*
X189131063Y-61626642D01*
X189432254Y-61751399D01*
X189751997Y-61815000D01*
X190078003Y-61815000D01*
X190397746Y-61751399D01*
X190698937Y-61626642D01*
X190910919Y-61485000D01*
X193516928Y-61485000D01*
X193529188Y-61609482D01*
X193565498Y-61729180D01*
X193624463Y-61839494D01*
X193703815Y-61936185D01*
X193800506Y-62015537D01*
X193910820Y-62074502D01*
X194030518Y-62110812D01*
X194155000Y-62123072D01*
X194789250Y-62120000D01*
X194948000Y-61961250D01*
X194948000Y-61147000D01*
X193678750Y-61147000D01*
X193520000Y-61305750D01*
X193516928Y-61485000D01*
X190910919Y-61485000D01*
X190970001Y-61445523D01*
X191200523Y-61215001D01*
X191381642Y-60943937D01*
X191506399Y-60642746D01*
X191523852Y-60555000D01*
X193516928Y-60555000D01*
X193520000Y-60734250D01*
X193678750Y-60893000D01*
X194948000Y-60893000D01*
X194948000Y-60078750D01*
X194789250Y-59920000D01*
X194155000Y-59916928D01*
X194030518Y-59929188D01*
X193910820Y-59965498D01*
X193800506Y-60024463D01*
X193703815Y-60103815D01*
X193624463Y-60200506D01*
X193565498Y-60310820D01*
X193529188Y-60430518D01*
X193516928Y-60555000D01*
X191523852Y-60555000D01*
X191570000Y-60323003D01*
X191570000Y-59996997D01*
X191506399Y-59677254D01*
X191381642Y-59376063D01*
X191200523Y-59104999D01*
X190970001Y-58874477D01*
X190698937Y-58693358D01*
X190397746Y-58568601D01*
X190078003Y-58505000D01*
X189751997Y-58505000D01*
X189432254Y-58568601D01*
X189131063Y-58693358D01*
X188859999Y-58874477D01*
X188629477Y-59104999D01*
X188448358Y-59376063D01*
X188323601Y-59677254D01*
X188260000Y-59996997D01*
X185543104Y-59996997D01*
X187757101Y-57783000D01*
X192299928Y-57783000D01*
X192299928Y-58283000D01*
X192316512Y-58451377D01*
X192365625Y-58613283D01*
X192445382Y-58762497D01*
X192552716Y-58893284D01*
X192683503Y-59000618D01*
X192832717Y-59080375D01*
X192994623Y-59129488D01*
X193163000Y-59146072D01*
X193613000Y-59146072D01*
X193781377Y-59129488D01*
X193943283Y-59080375D01*
X194089351Y-59002300D01*
X194133506Y-59038537D01*
X194243820Y-59097502D01*
X194363518Y-59133812D01*
X194488000Y-59146072D01*
X194652250Y-59143000D01*
X194811000Y-58984250D01*
X194811000Y-58160000D01*
X194791000Y-58160000D01*
X194791000Y-57906000D01*
X194811000Y-57906000D01*
X194811000Y-57081750D01*
X194652250Y-56923000D01*
X194488000Y-56919928D01*
X194363518Y-56932188D01*
X194243820Y-56968498D01*
X194133506Y-57027463D01*
X194089351Y-57063700D01*
X193943283Y-56985625D01*
X193781377Y-56936512D01*
X193613000Y-56919928D01*
X193163000Y-56919928D01*
X192994623Y-56936512D01*
X192832717Y-56985625D01*
X192683503Y-57065382D01*
X192552716Y-57172716D01*
X192445382Y-57303503D01*
X192365625Y-57452717D01*
X192316512Y-57614623D01*
X192299928Y-57783000D01*
X187757101Y-57783000D01*
X188578702Y-56961400D01*
X192164278Y-56961400D01*
X192201600Y-56965076D01*
X192238922Y-56961400D01*
X192238933Y-56961400D01*
X192350586Y-56950403D01*
X192493847Y-56906946D01*
X192625876Y-56836374D01*
X192741601Y-56741401D01*
X192765404Y-56712397D01*
X193349730Y-56128072D01*
X193426270Y-56128072D01*
X193656201Y-56358002D01*
%TA.AperFunction,Conductor*%
D19*
G36*
X193656201Y-56358002D02*
G01*
X193679999Y-56387001D01*
X193795724Y-56481974D01*
X193927753Y-56552546D01*
X194071014Y-56596003D01*
X194182667Y-56607000D01*
X194182675Y-56607000D01*
X194220000Y-56610676D01*
X194257325Y-56607000D01*
X195680401Y-56607000D01*
X195680401Y-56994273D01*
X195632180Y-56968498D01*
X195512482Y-56932188D01*
X195388000Y-56919928D01*
X195223750Y-56923000D01*
X195065000Y-57081750D01*
X195065000Y-57906000D01*
X195085000Y-57906000D01*
X195085000Y-58160000D01*
X195065000Y-58160000D01*
X195065000Y-58984250D01*
X195223750Y-59143000D01*
X195388000Y-59146072D01*
X195512482Y-59133812D01*
X195632180Y-59097502D01*
X195680401Y-59071727D01*
X195680400Y-59918452D01*
X195360750Y-59920000D01*
X195202000Y-60078750D01*
X195202000Y-60893000D01*
X195222000Y-60893000D01*
X195222000Y-61147000D01*
X195202000Y-61147000D01*
X195202000Y-61961250D01*
X195360750Y-62120000D01*
X195680400Y-62121548D01*
X195680400Y-62216928D01*
X194155000Y-62216928D01*
X194030518Y-62229188D01*
X193910820Y-62265498D01*
X193800506Y-62324463D01*
X193703815Y-62403815D01*
X193624463Y-62500506D01*
X193565498Y-62610820D01*
X193529188Y-62730518D01*
X193516928Y-62855000D01*
X193516928Y-63785000D01*
X193529188Y-63909482D01*
X193565498Y-64029180D01*
X193604261Y-64101700D01*
X193421961Y-64101700D01*
X193222002Y-64141474D01*
X193033644Y-64219495D01*
X192864126Y-64332763D01*
X192719963Y-64476926D01*
X192606695Y-64646444D01*
X192528674Y-64834802D01*
X192488900Y-65034761D01*
X192488900Y-65238639D01*
X192528674Y-65438598D01*
X192606695Y-65626956D01*
X192719963Y-65796474D01*
X192864126Y-65940637D01*
X193033644Y-66053905D01*
X193222002Y-66131926D01*
X193226982Y-66132917D01*
X192028998Y-67330901D01*
X192000000Y-67354699D01*
X191976202Y-67383697D01*
X191976201Y-67383698D01*
X191905026Y-67470424D01*
X191842115Y-67588121D01*
X191780518Y-67594188D01*
X191660820Y-67630498D01*
X191550506Y-67689463D01*
X191453815Y-67768815D01*
X191374463Y-67865506D01*
X191315498Y-67975820D01*
X191279188Y-68095518D01*
X191270000Y-68188808D01*
X191260812Y-68095518D01*
X191224502Y-67975820D01*
X191165537Y-67865506D01*
X191086185Y-67768815D01*
X190989494Y-67689463D01*
X190879180Y-67630498D01*
X190759482Y-67594188D01*
X190635000Y-67581928D01*
X189365000Y-67581928D01*
X189240518Y-67594188D01*
X189120820Y-67630498D01*
X189010506Y-67689463D01*
X188913815Y-67768815D01*
X188834463Y-67865506D01*
X188775498Y-67975820D01*
X188739188Y-68095518D01*
X188730000Y-68188808D01*
X188720812Y-68095518D01*
X188684502Y-67975820D01*
X188625537Y-67865506D01*
X188546185Y-67768815D01*
X188449494Y-67689463D01*
X188339180Y-67630498D01*
X188219482Y-67594188D01*
X188095000Y-67581928D01*
X187745750Y-67585000D01*
X187587000Y-67743750D01*
X187587000Y-70193000D01*
X187607000Y-70193000D01*
X187607000Y-70447000D01*
X187587000Y-70447000D01*
X187587000Y-70467000D01*
X187333000Y-70467000D01*
X187333000Y-70447000D01*
X187313000Y-70447000D01*
X187313000Y-70193000D01*
X187333000Y-70193000D01*
X187333000Y-67743750D01*
X187174250Y-67585000D01*
X186825000Y-67581928D01*
X186700518Y-67594188D01*
X186580820Y-67630498D01*
X186470506Y-67689463D01*
X186373815Y-67768815D01*
X186294463Y-67865506D01*
X186235498Y-67975820D01*
X186199188Y-68095518D01*
X186190000Y-68188808D01*
X186180812Y-68095518D01*
X186144502Y-67975820D01*
X186085537Y-67865506D01*
X186006185Y-67768815D01*
X185909494Y-67689463D01*
X185799180Y-67630498D01*
X185679482Y-67594188D01*
X185555000Y-67581928D01*
X184285000Y-67581928D01*
X184160518Y-67594188D01*
X184040820Y-67630498D01*
X183930506Y-67689463D01*
X183833815Y-67768815D01*
X183754463Y-67865506D01*
X183695498Y-67975820D01*
X183659188Y-68095518D01*
X183650000Y-68188808D01*
X183640812Y-68095518D01*
X183604502Y-67975820D01*
X183545537Y-67865506D01*
X183466185Y-67768815D01*
X183369494Y-67689463D01*
X183259180Y-67630498D01*
X183139482Y-67594188D01*
X183015000Y-67581928D01*
X181745000Y-67581928D01*
X181620518Y-67594188D01*
X181500820Y-67630498D01*
X181390506Y-67689463D01*
X181293815Y-67768815D01*
X181214463Y-67865506D01*
X181155498Y-67975820D01*
X181119188Y-68095518D01*
X181110000Y-68188808D01*
X181100812Y-68095518D01*
X181064502Y-67975820D01*
X181005537Y-67865506D01*
X180926185Y-67768815D01*
X180829494Y-67689463D01*
X180719180Y-67630498D01*
X180599482Y-67594188D01*
X180537886Y-67588121D01*
X180474974Y-67470424D01*
X180380001Y-67354699D01*
X180351003Y-67330901D01*
X177604000Y-64583899D01*
X177604000Y-64122613D01*
X177616842Y-64127932D01*
X177903740Y-64185000D01*
X178196260Y-64185000D01*
X178483158Y-64127932D01*
X178753411Y-64015990D01*
X178996632Y-63853475D01*
X179128487Y-63721620D01*
X179150498Y-63794180D01*
X179209463Y-63904494D01*
X179288815Y-64001185D01*
X179385506Y-64080537D01*
X179495820Y-64139502D01*
X179615518Y-64175812D01*
X179740000Y-64188072D01*
X181440000Y-64188072D01*
X181564482Y-64175812D01*
X181684180Y-64139502D01*
X181794494Y-64080537D01*
X181891185Y-64001185D01*
X181970537Y-63904494D01*
X182029502Y-63794180D01*
X182065812Y-63674482D01*
X182078072Y-63550000D01*
X182078072Y-63394575D01*
X182189576Y-63334974D01*
X182305301Y-63240001D01*
X182329104Y-63210997D01*
X185543104Y-59996997D01*
X188260000Y-59996997D01*
X188260000Y-60323003D01*
X188323601Y-60642746D01*
X188448358Y-60943937D01*
X188629477Y-61215001D01*
X188859999Y-61445523D01*
X189131063Y-61626642D01*
X189432254Y-61751399D01*
X189751997Y-61815000D01*
X190078003Y-61815000D01*
X190397746Y-61751399D01*
X190698937Y-61626642D01*
X190910919Y-61485000D01*
X193516928Y-61485000D01*
X193529188Y-61609482D01*
X193565498Y-61729180D01*
X193624463Y-61839494D01*
X193703815Y-61936185D01*
X193800506Y-62015537D01*
X193910820Y-62074502D01*
X194030518Y-62110812D01*
X194155000Y-62123072D01*
X194789250Y-62120000D01*
X194948000Y-61961250D01*
X194948000Y-61147000D01*
X193678750Y-61147000D01*
X193520000Y-61305750D01*
X193516928Y-61485000D01*
X190910919Y-61485000D01*
X190970001Y-61445523D01*
X191200523Y-61215001D01*
X191381642Y-60943937D01*
X191506399Y-60642746D01*
X191523852Y-60555000D01*
X193516928Y-60555000D01*
X193520000Y-60734250D01*
X193678750Y-60893000D01*
X194948000Y-60893000D01*
X194948000Y-60078750D01*
X194789250Y-59920000D01*
X194155000Y-59916928D01*
X194030518Y-59929188D01*
X193910820Y-59965498D01*
X193800506Y-60024463D01*
X193703815Y-60103815D01*
X193624463Y-60200506D01*
X193565498Y-60310820D01*
X193529188Y-60430518D01*
X193516928Y-60555000D01*
X191523852Y-60555000D01*
X191570000Y-60323003D01*
X191570000Y-59996997D01*
X191506399Y-59677254D01*
X191381642Y-59376063D01*
X191200523Y-59104999D01*
X190970001Y-58874477D01*
X190698937Y-58693358D01*
X190397746Y-58568601D01*
X190078003Y-58505000D01*
X189751997Y-58505000D01*
X189432254Y-58568601D01*
X189131063Y-58693358D01*
X188859999Y-58874477D01*
X188629477Y-59104999D01*
X188448358Y-59376063D01*
X188323601Y-59677254D01*
X188260000Y-59996997D01*
X185543104Y-59996997D01*
X187757101Y-57783000D01*
X192299928Y-57783000D01*
X192299928Y-58283000D01*
X192316512Y-58451377D01*
X192365625Y-58613283D01*
X192445382Y-58762497D01*
X192552716Y-58893284D01*
X192683503Y-59000618D01*
X192832717Y-59080375D01*
X192994623Y-59129488D01*
X193163000Y-59146072D01*
X193613000Y-59146072D01*
X193781377Y-59129488D01*
X193943283Y-59080375D01*
X194089351Y-59002300D01*
X194133506Y-59038537D01*
X194243820Y-59097502D01*
X194363518Y-59133812D01*
X194488000Y-59146072D01*
X194652250Y-59143000D01*
X194811000Y-58984250D01*
X194811000Y-58160000D01*
X194791000Y-58160000D01*
X194791000Y-57906000D01*
X194811000Y-57906000D01*
X194811000Y-57081750D01*
X194652250Y-56923000D01*
X194488000Y-56919928D01*
X194363518Y-56932188D01*
X194243820Y-56968498D01*
X194133506Y-57027463D01*
X194089351Y-57063700D01*
X193943283Y-56985625D01*
X193781377Y-56936512D01*
X193613000Y-56919928D01*
X193163000Y-56919928D01*
X192994623Y-56936512D01*
X192832717Y-56985625D01*
X192683503Y-57065382D01*
X192552716Y-57172716D01*
X192445382Y-57303503D01*
X192365625Y-57452717D01*
X192316512Y-57614623D01*
X192299928Y-57783000D01*
X187757101Y-57783000D01*
X188578702Y-56961400D01*
X192164278Y-56961400D01*
X192201600Y-56965076D01*
X192238922Y-56961400D01*
X192238933Y-56961400D01*
X192350586Y-56950403D01*
X192493847Y-56906946D01*
X192625876Y-56836374D01*
X192741601Y-56741401D01*
X192765404Y-56712397D01*
X193349730Y-56128072D01*
X193426270Y-56128072D01*
X193656201Y-56358002D01*
G37*
%TD.AperFunction*%
D18*
X204110274Y-63840002D02*
X204070500Y-64039961D01*
X204070500Y-64243839D01*
X204102057Y-64402486D01*
X204024169Y-64497392D01*
X203946722Y-64642284D01*
X203899031Y-64799500D01*
X203882928Y-64963000D01*
X203882928Y-65513000D01*
X203899031Y-65676500D01*
X203925999Y-65765400D01*
X196633072Y-65765400D01*
X196633072Y-65155000D01*
X196620812Y-65030518D01*
X196584502Y-64910820D01*
X196525537Y-64800506D01*
X196446185Y-64703815D01*
X196349494Y-64624463D01*
X196239180Y-64565498D01*
X196119482Y-64529188D01*
X195995000Y-64516928D01*
X194354565Y-64516928D01*
X194327837Y-64476926D01*
X194273983Y-64423072D01*
X195995000Y-64423072D01*
X196119482Y-64410812D01*
X196239180Y-64374502D01*
X196349494Y-64315537D01*
X196446185Y-64236185D01*
X196525537Y-64139494D01*
X196581393Y-64034996D01*
X196612547Y-64025546D01*
X196735360Y-63959900D01*
X199686928Y-63959900D01*
X199686928Y-64915000D01*
X199699188Y-65039482D01*
X199735498Y-65159180D01*
X199794463Y-65269494D01*
X199873815Y-65366185D01*
X199970506Y-65445537D01*
X200080820Y-65504502D01*
X200200518Y-65540812D01*
X200325000Y-65553072D01*
X202165000Y-65553072D01*
X202289482Y-65540812D01*
X202409180Y-65504502D01*
X202519494Y-65445537D01*
X202616185Y-65366185D01*
X202695537Y-65269494D01*
X202754502Y-65159180D01*
X202790812Y-65039482D01*
X202803072Y-64915000D01*
X202803072Y-63839900D01*
X204110316Y-63839900D01*
X204110274Y-63840002D01*
%TA.AperFunction,Conductor*%
D19*
G36*
X204110274Y-63840002D02*
G01*
X204070500Y-64039961D01*
X204070500Y-64243839D01*
X204102057Y-64402486D01*
X204024169Y-64497392D01*
X203946722Y-64642284D01*
X203899031Y-64799500D01*
X203882928Y-64963000D01*
X203882928Y-65513000D01*
X203899031Y-65676500D01*
X203925999Y-65765400D01*
X196633072Y-65765400D01*
X196633072Y-65155000D01*
X196620812Y-65030518D01*
X196584502Y-64910820D01*
X196525537Y-64800506D01*
X196446185Y-64703815D01*
X196349494Y-64624463D01*
X196239180Y-64565498D01*
X196119482Y-64529188D01*
X195995000Y-64516928D01*
X194354565Y-64516928D01*
X194327837Y-64476926D01*
X194273983Y-64423072D01*
X195995000Y-64423072D01*
X196119482Y-64410812D01*
X196239180Y-64374502D01*
X196349494Y-64315537D01*
X196446185Y-64236185D01*
X196525537Y-64139494D01*
X196581393Y-64034996D01*
X196612547Y-64025546D01*
X196735360Y-63959900D01*
X199686928Y-63959900D01*
X199686928Y-64915000D01*
X199699188Y-65039482D01*
X199735498Y-65159180D01*
X199794463Y-65269494D01*
X199873815Y-65366185D01*
X199970506Y-65445537D01*
X200080820Y-65504502D01*
X200200518Y-65540812D01*
X200325000Y-65553072D01*
X202165000Y-65553072D01*
X202289482Y-65540812D01*
X202409180Y-65504502D01*
X202519494Y-65445537D01*
X202616185Y-65366185D01*
X202695537Y-65269494D01*
X202754502Y-65159180D01*
X202790812Y-65039482D01*
X202803072Y-64915000D01*
X202803072Y-63839900D01*
X204110316Y-63839900D01*
X204110274Y-63840002D01*
G37*
%TD.AperFunction*%
D18*
X208858101Y-63104197D02*
X207519739Y-64442559D01*
X207501537Y-64408506D01*
X207422185Y-64311815D01*
X207325494Y-64232463D01*
X207215180Y-64173498D01*
X207095482Y-64137188D01*
X206971000Y-64124928D01*
X206856750Y-64128000D01*
X206698000Y-64286750D01*
X206698000Y-65111000D01*
X206718000Y-65111000D01*
X206718000Y-65244299D01*
X206577299Y-65385000D01*
X206444000Y-65385000D01*
X206444000Y-65365000D01*
X206424000Y-65365000D01*
X206424000Y-65111000D01*
X206444000Y-65111000D01*
X206444000Y-64286750D01*
X206285250Y-64128000D01*
X206171000Y-64124928D01*
X206140500Y-64127932D01*
X206140500Y-64039961D01*
X206100726Y-63840002D01*
X206022705Y-63651644D01*
X205954714Y-63549887D01*
X205958943Y-63545658D01*
X205972953Y-63553146D01*
X206116214Y-63596603D01*
X206227867Y-63607600D01*
X206227877Y-63607600D01*
X206265200Y-63611276D01*
X206302523Y-63607600D01*
X207480078Y-63607600D01*
X207517400Y-63611276D01*
X207554722Y-63607600D01*
X207554733Y-63607600D01*
X207666386Y-63596603D01*
X207809647Y-63553146D01*
X207941676Y-63482574D01*
X208057401Y-63387601D01*
X208081203Y-63358598D01*
X208316729Y-63123072D01*
X208555000Y-63123072D01*
X208718500Y-63106969D01*
X208858101Y-63064622D01*
X208858101Y-63104197D01*
%TA.AperFunction,Conductor*%
D19*
G36*
X208858101Y-63104197D02*
G01*
X207519739Y-64442559D01*
X207501537Y-64408506D01*
X207422185Y-64311815D01*
X207325494Y-64232463D01*
X207215180Y-64173498D01*
X207095482Y-64137188D01*
X206971000Y-64124928D01*
X206856750Y-64128000D01*
X206698000Y-64286750D01*
X206698000Y-65111000D01*
X206718000Y-65111000D01*
X206718000Y-65244299D01*
X206577299Y-65385000D01*
X206444000Y-65385000D01*
X206444000Y-65365000D01*
X206424000Y-65365000D01*
X206424000Y-65111000D01*
X206444000Y-65111000D01*
X206444000Y-64286750D01*
X206285250Y-64128000D01*
X206171000Y-64124928D01*
X206140500Y-64127932D01*
X206140500Y-64039961D01*
X206100726Y-63840002D01*
X206022705Y-63651644D01*
X205954714Y-63549887D01*
X205958943Y-63545658D01*
X205972953Y-63553146D01*
X206116214Y-63596603D01*
X206227867Y-63607600D01*
X206227877Y-63607600D01*
X206265200Y-63611276D01*
X206302523Y-63607600D01*
X207480078Y-63607600D01*
X207517400Y-63611276D01*
X207554722Y-63607600D01*
X207554733Y-63607600D01*
X207666386Y-63596603D01*
X207809647Y-63553146D01*
X207941676Y-63482574D01*
X208057401Y-63387601D01*
X208081203Y-63358598D01*
X208316729Y-63123072D01*
X208555000Y-63123072D01*
X208718500Y-63106969D01*
X208858101Y-63064622D01*
X208858101Y-63104197D01*
G37*
%TD.AperFunction*%
D18*
X186766745Y-56496008D02*
X186883036Y-56507462D01*
X181936485Y-61454014D01*
X181891185Y-61398815D01*
X181794494Y-61319463D01*
X181684180Y-61260498D01*
X181603534Y-61236034D01*
X181687588Y-61160269D01*
X181861641Y-60926920D01*
X181986825Y-60664099D01*
X182031476Y-60516890D01*
X181910155Y-60287000D01*
X180717000Y-60287000D01*
X180717000Y-60307000D01*
X180463000Y-60307000D01*
X180463000Y-60287000D01*
X180443000Y-60287000D01*
X180443000Y-60033000D01*
X180463000Y-60033000D01*
X180463000Y-60013000D01*
X180717000Y-60013000D01*
X180717000Y-60033000D01*
X181910155Y-60033000D01*
X182031476Y-59803110D01*
X181986825Y-59655901D01*
X181984014Y-59650000D01*
X182803278Y-59650000D01*
X182840600Y-59653676D01*
X182877922Y-59650000D01*
X182877933Y-59650000D01*
X182989586Y-59639003D01*
X183132847Y-59595546D01*
X183264876Y-59524974D01*
X183380601Y-59430001D01*
X183404404Y-59400997D01*
X186103502Y-56701900D01*
X186165639Y-56701900D01*
X186365598Y-56662126D01*
X186553956Y-56584105D01*
X186711076Y-56479121D01*
X186766745Y-56496008D01*
%TA.AperFunction,Conductor*%
D19*
G36*
X186766745Y-56496008D02*
G01*
X186883036Y-56507462D01*
X181936485Y-61454014D01*
X181891185Y-61398815D01*
X181794494Y-61319463D01*
X181684180Y-61260498D01*
X181603534Y-61236034D01*
X181687588Y-61160269D01*
X181861641Y-60926920D01*
X181986825Y-60664099D01*
X182031476Y-60516890D01*
X181910155Y-60287000D01*
X180717000Y-60287000D01*
X180717000Y-60307000D01*
X180463000Y-60307000D01*
X180463000Y-60287000D01*
X180443000Y-60287000D01*
X180443000Y-60033000D01*
X180463000Y-60033000D01*
X180463000Y-60013000D01*
X180717000Y-60013000D01*
X180717000Y-60033000D01*
X181910155Y-60033000D01*
X182031476Y-59803110D01*
X181986825Y-59655901D01*
X181984014Y-59650000D01*
X182803278Y-59650000D01*
X182840600Y-59653676D01*
X182877922Y-59650000D01*
X182877933Y-59650000D01*
X182989586Y-59639003D01*
X183132847Y-59595546D01*
X183264876Y-59524974D01*
X183380601Y-59430001D01*
X183404404Y-59400997D01*
X186103502Y-56701900D01*
X186165639Y-56701900D01*
X186365598Y-56662126D01*
X186553956Y-56584105D01*
X186711076Y-56479121D01*
X186766745Y-56496008D01*
G37*
%TD.AperFunction*%
D18*
X210598748Y-60145858D02*
X210584605Y-60160000D01*
X210598748Y-60174143D01*
X210419143Y-60353748D01*
X210405000Y-60339605D01*
X210390858Y-60353748D01*
X210211253Y-60174143D01*
X210225395Y-60160000D01*
X210211253Y-60145858D01*
X210390858Y-59966253D01*
X210405000Y-59980395D01*
X210419143Y-59966253D01*
X210598748Y-60145858D01*
%TA.AperFunction,Conductor*%
D19*
G36*
X210598748Y-60145858D02*
G01*
X210584605Y-60160000D01*
X210598748Y-60174143D01*
X210419143Y-60353748D01*
X210405000Y-60339605D01*
X210390858Y-60353748D01*
X210211253Y-60174143D01*
X210225395Y-60160000D01*
X210211253Y-60145858D01*
X210390858Y-59966253D01*
X210405000Y-59980395D01*
X210419143Y-59966253D01*
X210598748Y-60145858D01*
G37*
%TD.AperFunction*%
D18*
X219857000Y-60033000D02*
X219877000Y-60033000D01*
X219877000Y-60287000D01*
X219857000Y-60287000D01*
X219857000Y-60307000D01*
X219603000Y-60307000D01*
X219603000Y-60287000D01*
X219583000Y-60287000D01*
X219583000Y-60033000D01*
X219603000Y-60033000D01*
X219603000Y-60013000D01*
X219857000Y-60013000D01*
X219857000Y-60033000D01*
%TA.AperFunction,Conductor*%
D19*
G36*
X219857000Y-60033000D02*
G01*
X219877000Y-60033000D01*
X219877000Y-60287000D01*
X219857000Y-60287000D01*
X219857000Y-60307000D01*
X219603000Y-60307000D01*
X219603000Y-60287000D01*
X219583000Y-60287000D01*
X219583000Y-60033000D01*
X219603000Y-60033000D01*
X219603000Y-60013000D01*
X219857000Y-60013000D01*
X219857000Y-60033000D01*
G37*
%TD.AperFunction*%
D18*
X192667000Y-49873000D02*
X192687000Y-49873000D01*
X192687000Y-50127000D01*
X192667000Y-50127000D01*
X192667000Y-52576250D01*
X192825750Y-52735000D01*
X193175000Y-52738072D01*
X193299482Y-52725812D01*
X193419180Y-52689502D01*
X193529494Y-52630537D01*
X193626185Y-52551185D01*
X193705537Y-52454494D01*
X193764502Y-52344180D01*
X193800812Y-52224482D01*
X193810000Y-52131192D01*
X193819188Y-52224482D01*
X193855498Y-52344180D01*
X193914463Y-52454494D01*
X193993815Y-52551185D01*
X194090506Y-52630537D01*
X194200820Y-52689502D01*
X194320518Y-52725812D01*
X194445000Y-52738072D01*
X195715000Y-52738072D01*
X195839482Y-52725812D01*
X195959180Y-52689502D01*
X196069494Y-52630537D01*
X196166185Y-52551185D01*
X196245537Y-52454494D01*
X196304502Y-52344180D01*
X196340812Y-52224482D01*
X196350000Y-52131192D01*
X196359188Y-52224482D01*
X196395498Y-52344180D01*
X196454463Y-52454494D01*
X196533815Y-52551185D01*
X196630506Y-52630537D01*
X196740820Y-52689502D01*
X196860518Y-52725812D01*
X196985000Y-52738072D01*
X198255000Y-52738072D01*
X198379482Y-52725812D01*
X198499180Y-52689502D01*
X198609494Y-52630537D01*
X198706185Y-52551185D01*
X198785537Y-52454494D01*
X198844502Y-52344180D01*
X198880812Y-52224482D01*
X198890000Y-52131192D01*
X198899188Y-52224482D01*
X198935498Y-52344180D01*
X198994463Y-52454494D01*
X199073815Y-52551185D01*
X199170506Y-52630537D01*
X199280820Y-52689502D01*
X199374501Y-52717920D01*
X199374501Y-53902368D01*
X199233750Y-53905000D01*
X199075000Y-54063750D01*
X199075000Y-54888000D01*
X199095000Y-54888000D01*
X199095000Y-55142000D01*
X199075000Y-55142000D01*
X199075000Y-55966250D01*
X199233750Y-56125000D01*
X199374500Y-56127632D01*
X199374500Y-56920368D01*
X199233750Y-56923000D01*
X199075000Y-57081750D01*
X199075000Y-57906000D01*
X199095000Y-57906000D01*
X199095000Y-58160000D01*
X199075000Y-58160000D01*
X199075000Y-58984250D01*
X199094324Y-59003574D01*
X198587736Y-59510163D01*
X198464398Y-59459074D01*
X198264439Y-59419300D01*
X198202301Y-59419300D01*
X198158000Y-59374999D01*
X198158000Y-59046284D01*
X198253820Y-59097502D01*
X198373518Y-59133812D01*
X198498000Y-59146072D01*
X198662250Y-59143000D01*
X198821000Y-58984250D01*
X198821000Y-58160000D01*
X198801000Y-58160000D01*
X198801000Y-57906000D01*
X198821000Y-57906000D01*
X198821000Y-57081750D01*
X198662250Y-56923000D01*
X198498000Y-56919928D01*
X198373518Y-56932188D01*
X198253820Y-56968498D01*
X198143506Y-57027463D01*
X198099351Y-57063700D01*
X197953283Y-56985625D01*
X197791377Y-56936512D01*
X197623000Y-56919928D01*
X197200400Y-56919928D01*
X197200400Y-56287401D01*
X197359729Y-56128072D01*
X197623000Y-56128072D01*
X197791377Y-56111488D01*
X197953283Y-56062375D01*
X198099351Y-55984300D01*
X198143506Y-56020537D01*
X198253820Y-56079502D01*
X198373518Y-56115812D01*
X198498000Y-56128072D01*
X198662250Y-56125000D01*
X198821000Y-55966250D01*
X198821000Y-55142000D01*
X198801000Y-55142000D01*
X198801000Y-54888000D01*
X198821000Y-54888000D01*
X198821000Y-54063750D01*
X198662250Y-53905000D01*
X198498000Y-53901928D01*
X198373518Y-53914188D01*
X198253820Y-53950498D01*
X198143506Y-54009463D01*
X198099351Y-54045700D01*
X197953283Y-53967625D01*
X197791377Y-53918512D01*
X197623000Y-53901928D01*
X197173000Y-53901928D01*
X197004623Y-53918512D01*
X196842717Y-53967625D01*
X196693503Y-54047382D01*
X196562716Y-54154716D01*
X196455382Y-54285503D01*
X196375625Y-54434717D01*
X196326512Y-54596623D01*
X196309928Y-54765000D01*
X196309928Y-55028271D01*
X196251199Y-55087000D01*
X194791000Y-55087000D01*
X194791000Y-54888000D01*
X194811000Y-54888000D01*
X194811000Y-54063750D01*
X195065000Y-54063750D01*
X195065000Y-54888000D01*
X195864250Y-54888000D01*
X196023000Y-54729250D01*
X196026072Y-54540000D01*
X196013812Y-54415518D01*
X195977502Y-54295820D01*
X195918537Y-54185506D01*
X195839185Y-54088815D01*
X195742494Y-54009463D01*
X195632180Y-53950498D01*
X195512482Y-53914188D01*
X195388000Y-53901928D01*
X195223750Y-53905000D01*
X195065000Y-54063750D01*
X194811000Y-54063750D01*
X194652250Y-53905000D01*
X194488000Y-53901928D01*
X194363518Y-53914188D01*
X194243820Y-53950498D01*
X194133506Y-54009463D01*
X194089351Y-54045700D01*
X193943283Y-53967625D01*
X193781377Y-53918512D01*
X193613000Y-53901928D01*
X193163000Y-53901928D01*
X192994623Y-53918512D01*
X192832717Y-53967625D01*
X192683503Y-54047382D01*
X192552716Y-54154716D01*
X192445382Y-54285503D01*
X192365625Y-54434717D01*
X192316512Y-54596623D01*
X192299928Y-54765000D01*
X192299928Y-55028270D01*
X191886799Y-55441400D01*
X191380650Y-55441400D01*
X191266250Y-55327000D01*
X190217000Y-55327000D01*
X190217000Y-55347000D01*
X189963000Y-55347000D01*
X189963000Y-55327000D01*
X188913750Y-55327000D01*
X188799350Y-55441400D01*
X188728072Y-55441400D01*
X188728072Y-54774999D01*
X188727806Y-54772296D01*
X188753676Y-54746426D01*
X188755000Y-54914250D01*
X188913750Y-55073000D01*
X189963000Y-55073000D01*
X189963000Y-54048750D01*
X190217000Y-54048750D01*
X190217000Y-55073000D01*
X191266250Y-55073000D01*
X191425000Y-54914250D01*
X191428072Y-54525000D01*
X191415812Y-54400518D01*
X191379502Y-54280820D01*
X191320537Y-54170506D01*
X191241185Y-54073815D01*
X191144494Y-53994463D01*
X191034180Y-53935498D01*
X190914482Y-53899188D01*
X190790000Y-53886928D01*
X190375750Y-53890000D01*
X190217000Y-54048750D01*
X189963000Y-54048750D01*
X189804250Y-53890000D01*
X189611531Y-53888571D01*
X190511008Y-52989095D01*
X190540001Y-52965301D01*
X190563795Y-52936308D01*
X190563799Y-52936304D01*
X190634973Y-52849577D01*
X190634974Y-52849576D01*
X190697886Y-52731879D01*
X190759482Y-52725812D01*
X190879180Y-52689502D01*
X190989494Y-52630537D01*
X191086185Y-52551185D01*
X191165537Y-52454494D01*
X191224502Y-52344180D01*
X191260812Y-52224482D01*
X191270000Y-52131192D01*
X191279188Y-52224482D01*
X191315498Y-52344180D01*
X191374463Y-52454494D01*
X191453815Y-52551185D01*
X191550506Y-52630537D01*
X191660820Y-52689502D01*
X191780518Y-52725812D01*
X191905000Y-52738072D01*
X192254250Y-52735000D01*
X192413000Y-52576250D01*
X192413000Y-50127000D01*
X192393000Y-50127000D01*
X192393000Y-49873000D01*
X192413000Y-49873000D01*
X192413000Y-49853000D01*
X192667000Y-49853000D01*
X192667000Y-49873000D01*
%TA.AperFunction,Conductor*%
D19*
G36*
X192667000Y-49873000D02*
G01*
X192687000Y-49873000D01*
X192687000Y-50127000D01*
X192667000Y-50127000D01*
X192667000Y-52576250D01*
X192825750Y-52735000D01*
X193175000Y-52738072D01*
X193299482Y-52725812D01*
X193419180Y-52689502D01*
X193529494Y-52630537D01*
X193626185Y-52551185D01*
X193705537Y-52454494D01*
X193764502Y-52344180D01*
X193800812Y-52224482D01*
X193810000Y-52131192D01*
X193819188Y-52224482D01*
X193855498Y-52344180D01*
X193914463Y-52454494D01*
X193993815Y-52551185D01*
X194090506Y-52630537D01*
X194200820Y-52689502D01*
X194320518Y-52725812D01*
X194445000Y-52738072D01*
X195715000Y-52738072D01*
X195839482Y-52725812D01*
X195959180Y-52689502D01*
X196069494Y-52630537D01*
X196166185Y-52551185D01*
X196245537Y-52454494D01*
X196304502Y-52344180D01*
X196340812Y-52224482D01*
X196350000Y-52131192D01*
X196359188Y-52224482D01*
X196395498Y-52344180D01*
X196454463Y-52454494D01*
X196533815Y-52551185D01*
X196630506Y-52630537D01*
X196740820Y-52689502D01*
X196860518Y-52725812D01*
X196985000Y-52738072D01*
X198255000Y-52738072D01*
X198379482Y-52725812D01*
X198499180Y-52689502D01*
X198609494Y-52630537D01*
X198706185Y-52551185D01*
X198785537Y-52454494D01*
X198844502Y-52344180D01*
X198880812Y-52224482D01*
X198890000Y-52131192D01*
X198899188Y-52224482D01*
X198935498Y-52344180D01*
X198994463Y-52454494D01*
X199073815Y-52551185D01*
X199170506Y-52630537D01*
X199280820Y-52689502D01*
X199374501Y-52717920D01*
X199374501Y-53902368D01*
X199233750Y-53905000D01*
X199075000Y-54063750D01*
X199075000Y-54888000D01*
X199095000Y-54888000D01*
X199095000Y-55142000D01*
X199075000Y-55142000D01*
X199075000Y-55966250D01*
X199233750Y-56125000D01*
X199374500Y-56127632D01*
X199374500Y-56920368D01*
X199233750Y-56923000D01*
X199075000Y-57081750D01*
X199075000Y-57906000D01*
X199095000Y-57906000D01*
X199095000Y-58160000D01*
X199075000Y-58160000D01*
X199075000Y-58984250D01*
X199094324Y-59003574D01*
X198587736Y-59510163D01*
X198464398Y-59459074D01*
X198264439Y-59419300D01*
X198202301Y-59419300D01*
X198158000Y-59374999D01*
X198158000Y-59046284D01*
X198253820Y-59097502D01*
X198373518Y-59133812D01*
X198498000Y-59146072D01*
X198662250Y-59143000D01*
X198821000Y-58984250D01*
X198821000Y-58160000D01*
X198801000Y-58160000D01*
X198801000Y-57906000D01*
X198821000Y-57906000D01*
X198821000Y-57081750D01*
X198662250Y-56923000D01*
X198498000Y-56919928D01*
X198373518Y-56932188D01*
X198253820Y-56968498D01*
X198143506Y-57027463D01*
X198099351Y-57063700D01*
X197953283Y-56985625D01*
X197791377Y-56936512D01*
X197623000Y-56919928D01*
X197200400Y-56919928D01*
X197200400Y-56287401D01*
X197359729Y-56128072D01*
X197623000Y-56128072D01*
X197791377Y-56111488D01*
X197953283Y-56062375D01*
X198099351Y-55984300D01*
X198143506Y-56020537D01*
X198253820Y-56079502D01*
X198373518Y-56115812D01*
X198498000Y-56128072D01*
X198662250Y-56125000D01*
X198821000Y-55966250D01*
X198821000Y-55142000D01*
X198801000Y-55142000D01*
X198801000Y-54888000D01*
X198821000Y-54888000D01*
X198821000Y-54063750D01*
X198662250Y-53905000D01*
X198498000Y-53901928D01*
X198373518Y-53914188D01*
X198253820Y-53950498D01*
X198143506Y-54009463D01*
X198099351Y-54045700D01*
X197953283Y-53967625D01*
X197791377Y-53918512D01*
X197623000Y-53901928D01*
X197173000Y-53901928D01*
X197004623Y-53918512D01*
X196842717Y-53967625D01*
X196693503Y-54047382D01*
X196562716Y-54154716D01*
X196455382Y-54285503D01*
X196375625Y-54434717D01*
X196326512Y-54596623D01*
X196309928Y-54765000D01*
X196309928Y-55028271D01*
X196251199Y-55087000D01*
X194791000Y-55087000D01*
X194791000Y-54888000D01*
X194811000Y-54888000D01*
X194811000Y-54063750D01*
X195065000Y-54063750D01*
X195065000Y-54888000D01*
X195864250Y-54888000D01*
X196023000Y-54729250D01*
X196026072Y-54540000D01*
X196013812Y-54415518D01*
X195977502Y-54295820D01*
X195918537Y-54185506D01*
X195839185Y-54088815D01*
X195742494Y-54009463D01*
X195632180Y-53950498D01*
X195512482Y-53914188D01*
X195388000Y-53901928D01*
X195223750Y-53905000D01*
X195065000Y-54063750D01*
X194811000Y-54063750D01*
X194652250Y-53905000D01*
X194488000Y-53901928D01*
X194363518Y-53914188D01*
X194243820Y-53950498D01*
X194133506Y-54009463D01*
X194089351Y-54045700D01*
X193943283Y-53967625D01*
X193781377Y-53918512D01*
X193613000Y-53901928D01*
X193163000Y-53901928D01*
X192994623Y-53918512D01*
X192832717Y-53967625D01*
X192683503Y-54047382D01*
X192552716Y-54154716D01*
X192445382Y-54285503D01*
X192365625Y-54434717D01*
X192316512Y-54596623D01*
X192299928Y-54765000D01*
X192299928Y-55028270D01*
X191886799Y-55441400D01*
X191380650Y-55441400D01*
X191266250Y-55327000D01*
X190217000Y-55327000D01*
X190217000Y-55347000D01*
X189963000Y-55347000D01*
X189963000Y-55327000D01*
X188913750Y-55327000D01*
X188799350Y-55441400D01*
X188728072Y-55441400D01*
X188728072Y-54774999D01*
X188727806Y-54772296D01*
X188753676Y-54746426D01*
X188755000Y-54914250D01*
X188913750Y-55073000D01*
X189963000Y-55073000D01*
X189963000Y-54048750D01*
X190217000Y-54048750D01*
X190217000Y-55073000D01*
X191266250Y-55073000D01*
X191425000Y-54914250D01*
X191428072Y-54525000D01*
X191415812Y-54400518D01*
X191379502Y-54280820D01*
X191320537Y-54170506D01*
X191241185Y-54073815D01*
X191144494Y-53994463D01*
X191034180Y-53935498D01*
X190914482Y-53899188D01*
X190790000Y-53886928D01*
X190375750Y-53890000D01*
X190217000Y-54048750D01*
X189963000Y-54048750D01*
X189804250Y-53890000D01*
X189611531Y-53888571D01*
X190511008Y-52989095D01*
X190540001Y-52965301D01*
X190563795Y-52936308D01*
X190563799Y-52936304D01*
X190634973Y-52849577D01*
X190634974Y-52849576D01*
X190697886Y-52731879D01*
X190759482Y-52725812D01*
X190879180Y-52689502D01*
X190989494Y-52630537D01*
X191086185Y-52551185D01*
X191165537Y-52454494D01*
X191224502Y-52344180D01*
X191260812Y-52224482D01*
X191270000Y-52131192D01*
X191279188Y-52224482D01*
X191315498Y-52344180D01*
X191374463Y-52454494D01*
X191453815Y-52551185D01*
X191550506Y-52630537D01*
X191660820Y-52689502D01*
X191780518Y-52725812D01*
X191905000Y-52738072D01*
X192254250Y-52735000D01*
X192413000Y-52576250D01*
X192413000Y-50127000D01*
X192393000Y-50127000D01*
X192393000Y-49873000D01*
X192413000Y-49873000D01*
X192413000Y-49853000D01*
X192667000Y-49853000D01*
X192667000Y-49873000D01*
G37*
%TD.AperFunction*%
%TD*%
M02*
