%TF.GenerationSoftware,KiCad,Pcbnew,(5.1.9)-1*%
%TF.CreationDate,2021-09-26T23:12:42-04:00*%
%TF.ProjectId,p21014,70323130-3134-42e6-9b69-6361645f7063,rev?*%
%TF.SameCoordinates,Original*%
%TF.FileFunction,Copper,L2,Bot*%
%TF.FilePolarity,Positive*%
%FSLAX46Y46*%
G04 Gerber Fmt 4.6, Leading zero omitted, Abs format (unit mm)*
G04 Created by KiCad (PCBNEW (5.1.9)-1) date 2021-09-26 23:12:42*
%MOMM*%
%LPD*%
G01*
G04 APERTURE LIST*
%TA.AperFunction,ComponentPad*%
%ADD10O,1.700000X1.700000*%
%TD*%
%TA.AperFunction,ComponentPad*%
%ADD11R,1.700000X1.700000*%
%TD*%
%TA.AperFunction,ComponentPad*%
%ADD12C,2.040000*%
%TD*%
%TA.AperFunction,SMDPad,CuDef*%
%ADD13R,0.600000X0.600000*%
%TD*%
%TA.AperFunction,SMDPad,CuDef*%
%ADD14R,0.500000X0.600000*%
%TD*%
%TA.AperFunction,SMDPad,CuDef*%
%ADD15R,2.000000X1.800000*%
%TD*%
%TA.AperFunction,ViaPad*%
%ADD16C,0.800000*%
%TD*%
%TA.AperFunction,Conductor*%
%ADD17C,0.250000*%
%TD*%
%TA.AperFunction,Conductor*%
%ADD18C,0.254000*%
%TD*%
%TA.AperFunction,Conductor*%
%ADD19C,0.100000*%
%TD*%
G04 APERTURE END LIST*
D10*
%TO.P,J2,6*%
%TO.N,/RST*%
X178050000Y-57620000D03*
%TO.P,J2,5*%
%TO.N,/SDA*%
X180590000Y-57620000D03*
%TO.P,J2,4*%
%TO.N,/SCL*%
X178050000Y-60160000D03*
%TO.P,J2,3*%
%TO.N,GNDREF*%
X180590000Y-60160000D03*
%TO.P,J2,2*%
%TO.N,/IMU_B/3v*%
X178050000Y-62700000D03*
D11*
%TO.P,J2,1*%
%TO.N,+5V*%
X180590000Y-62700000D03*
%TD*%
D10*
%TO.P,J1,6*%
%TO.N,/RST*%
X222270000Y-62700000D03*
%TO.P,J1,5*%
%TO.N,/SDA*%
X219730000Y-62700000D03*
%TO.P,J1,4*%
%TO.N,/SCL*%
X222270000Y-60160000D03*
%TO.P,J1,3*%
%TO.N,GNDREF*%
X219730000Y-60160000D03*
%TO.P,J1,2*%
%TO.N,/IMU_A/3v*%
X222270000Y-57620000D03*
D11*
%TO.P,J1,1*%
%TO.N,+5V*%
X219730000Y-57620000D03*
%TD*%
%TO.P,D2,2*%
%TO.N,Net-(D2-Pad2)*%
%TA.AperFunction,SMDPad,CuDef*%
G36*
G01*
X188070000Y-49723750D02*
X188070000Y-50636250D01*
G75*
G02*
X187826250Y-50880000I-243750J0D01*
G01*
X187338750Y-50880000D01*
G75*
G02*
X187095000Y-50636250I0J243750D01*
G01*
X187095000Y-49723750D01*
G75*
G02*
X187338750Y-49480000I243750J0D01*
G01*
X187826250Y-49480000D01*
G75*
G02*
X188070000Y-49723750I0J-243750D01*
G01*
G37*
%TD.AperFunction*%
%TO.P,D2,1*%
%TO.N,GNDREF*%
%TA.AperFunction,SMDPad,CuDef*%
G36*
G01*
X189945000Y-49723750D02*
X189945000Y-50636250D01*
G75*
G02*
X189701250Y-50880000I-243750J0D01*
G01*
X189213750Y-50880000D01*
G75*
G02*
X188970000Y-50636250I0J243750D01*
G01*
X188970000Y-49723750D01*
G75*
G02*
X189213750Y-49480000I243750J0D01*
G01*
X189701250Y-49480000D01*
G75*
G02*
X189945000Y-49723750I0J-243750D01*
G01*
G37*
%TD.AperFunction*%
%TD*%
D12*
%TO.P,BT1,2*%
%TO.N,GNDREF*%
X210405000Y-60160000D03*
%TO.P,BT1,1*%
%TO.N,Net-(BT1-Pad1)*%
X189915000Y-60160000D03*
%TD*%
D11*
%TO.P,J3,1*%
%TO.N,Net-(J3-Pad1)*%
X213170000Y-57620000D03*
D10*
%TO.P,J3,2*%
%TO.N,Net-(J3-Pad2)*%
X215710000Y-57620000D03*
%TO.P,J3,3*%
%TO.N,Net-(J3-Pad3)*%
X213170000Y-60160000D03*
%TO.P,J3,4*%
%TO.N,Net-(J3-Pad4)*%
X215710000Y-60160000D03*
%TO.P,J3,5*%
%TO.N,Net-(J3-Pad5)*%
X213170000Y-62700000D03*
%TO.P,J3,6*%
%TO.N,Net-(J3-Pad6)*%
X215710000Y-62700000D03*
%TD*%
D13*
%TO.P,D1,6*%
%TO.N,GNDREF*%
X184430000Y-50800000D03*
%TO.P,D1,1*%
%TO.N,Net-(D1-Pad1)*%
X184430000Y-49450000D03*
%TO.P,D1,3*%
%TO.N,Net-(D1-Pad3)*%
X185880000Y-49450000D03*
%TO.P,D1,4*%
%TO.N,GNDREF*%
X185890000Y-50800000D03*
D14*
%TO.P,D1,5*%
X185160000Y-50800000D03*
%TO.P,D1,2*%
%TO.N,Net-(D1-Pad2)*%
X185170000Y-49450000D03*
%TD*%
D15*
%TO.P,SW1,1*%
%TO.N,Net-(BT1-Pad1)*%
X184730000Y-70160000D03*
%TO.P,SW1,2*%
%TO.N,+BATT*%
X190330000Y-70160000D03*
%TD*%
D16*
%TO.N,GNDREF*%
X191318300Y-53312000D03*
%TO.N,+BATT*%
X198162500Y-60454300D03*
X193523900Y-65136700D03*
%TO.N,Net-(D1-Pad1)*%
X203302600Y-52781800D03*
%TO.N,Net-(D1-Pad3)*%
X207782200Y-53915500D03*
%TO.N,Net-(D1-Pad2)*%
X210064000Y-66025300D03*
%TO.N,Net-(D2-Pad2)*%
X201639100Y-53512700D03*
%TO.N,/RST*%
X200134500Y-58012400D03*
X205105500Y-64141900D03*
%TO.N,Net-(J3-Pad2)*%
X209050000Y-70320000D03*
%TO.N,Net-(J3-Pad5)*%
X186063700Y-55666900D03*
%TO.N,/Feather_Board/BLUE*%
X209742100Y-53332600D03*
X210343400Y-62306300D03*
%TD*%
D17*
%TO.N,GNDREF*%
X189216100Y-51209800D02*
X191318300Y-53312000D01*
X189216100Y-51209800D02*
X189457500Y-50968400D01*
X189457500Y-50968400D02*
X189457500Y-50180000D01*
X186515300Y-50800000D02*
X186925100Y-51209800D01*
X186925100Y-51209800D02*
X189216100Y-51209800D01*
X185890000Y-50800000D02*
X186515300Y-50800000D01*
X185160000Y-50800000D02*
X185890000Y-50800000D01*
X180590000Y-60160000D02*
X179414700Y-60160000D01*
X179414700Y-60160000D02*
X179414700Y-60527300D01*
X179414700Y-60527300D02*
X178585500Y-61356500D01*
X178585500Y-61356500D02*
X177527100Y-61356500D01*
X177527100Y-61356500D02*
X176376500Y-60205900D01*
X176376500Y-60205900D02*
X176376500Y-56970400D01*
X176376500Y-56970400D02*
X182546900Y-50800000D01*
X182546900Y-50800000D02*
X184430000Y-50800000D01*
X184430000Y-50800000D02*
X184584700Y-50800000D01*
X185160000Y-50800000D02*
X184584700Y-50800000D01*
X210405000Y-60160000D02*
X211580300Y-58984700D01*
X211580300Y-58984700D02*
X217379400Y-58984700D01*
X217379400Y-58984700D02*
X218554700Y-60160000D01*
X219730000Y-60160000D02*
X218554700Y-60160000D01*
%TO.N,Net-(BT1-Pad1)*%
X184730000Y-70160000D02*
X184730000Y-68934700D01*
X184730000Y-68934700D02*
X189915000Y-63749700D01*
X189915000Y-63749700D02*
X189915000Y-60160000D01*
%TO.N,+BATT*%
X193523900Y-65136700D02*
X198162500Y-60498100D01*
X198162500Y-60498100D02*
X198162500Y-60454300D01*
X190330000Y-68934700D02*
X193523800Y-65740900D01*
X193523800Y-65740900D02*
X193523800Y-65136700D01*
X193523800Y-65136700D02*
X193523900Y-65136700D01*
X190330000Y-70160000D02*
X190330000Y-68934700D01*
%TO.N,Net-(D1-Pad1)*%
X184430000Y-49450000D02*
X184430000Y-48824700D01*
X203302600Y-52781800D02*
X198735400Y-48214600D01*
X198735400Y-48214600D02*
X185040100Y-48214600D01*
X185040100Y-48214600D02*
X184430000Y-48824700D01*
%TO.N,Net-(D1-Pad3)*%
X186505300Y-49450000D02*
X187285800Y-48669500D01*
X187285800Y-48669500D02*
X197922000Y-48669500D01*
X197922000Y-48669500D02*
X203168000Y-53915500D01*
X203168000Y-53915500D02*
X207782200Y-53915500D01*
X185880000Y-49450000D02*
X186505300Y-49450000D01*
%TO.N,Net-(D1-Pad2)*%
X185170000Y-50075300D02*
X182609400Y-50075300D01*
X182609400Y-50075300D02*
X175926100Y-56758600D01*
X175926100Y-56758600D02*
X175926100Y-63782100D01*
X175926100Y-63782100D02*
X183529400Y-71385400D01*
X183529400Y-71385400D02*
X204703900Y-71385400D01*
X204703900Y-71385400D02*
X210064000Y-66025300D01*
X185170000Y-49450000D02*
X185170000Y-50075300D01*
%TO.N,Net-(D2-Pad2)*%
X201639100Y-53512700D02*
X197263200Y-49136800D01*
X197263200Y-49136800D02*
X188625700Y-49136800D01*
X188625700Y-49136800D02*
X187582500Y-50180000D01*
%TO.N,/SCL*%
X178050000Y-60160000D02*
X178050000Y-58984700D01*
X222270000Y-60160000D02*
X221094700Y-60160000D01*
X221094700Y-60160000D02*
X221094700Y-60527400D01*
X221094700Y-60527400D02*
X220286800Y-61335300D01*
X220286800Y-61335300D02*
X219235100Y-61335300D01*
X219235100Y-61335300D02*
X216681700Y-63888700D01*
X216681700Y-63888700D02*
X208958500Y-63888700D01*
X208958500Y-63888700D02*
X201507800Y-56438000D01*
X201507800Y-56438000D02*
X177553900Y-56438000D01*
X177553900Y-56438000D02*
X176874700Y-57117200D01*
X176874700Y-57117200D02*
X176874700Y-58176800D01*
X176874700Y-58176800D02*
X177682600Y-58984700D01*
X177682600Y-58984700D02*
X178050000Y-58984700D01*
%TO.N,/SDA*%
X218554700Y-62700000D02*
X216915600Y-64339100D01*
X216915600Y-64339100D02*
X207487000Y-64339100D01*
X207487000Y-64339100D02*
X200435000Y-57287100D01*
X200435000Y-57287100D02*
X182098200Y-57287100D01*
X182098200Y-57287100D02*
X181765300Y-57620000D01*
X180590000Y-57620000D02*
X181765300Y-57620000D01*
X219730000Y-62700000D02*
X218554700Y-62700000D01*
%TO.N,/RST*%
X199758900Y-58795300D02*
X180033200Y-58795300D01*
X180033200Y-58795300D02*
X179225300Y-57987400D01*
X179225300Y-57987400D02*
X179225300Y-57620000D01*
X205105500Y-64141900D02*
X199758900Y-58795300D01*
X200134500Y-58012400D02*
X199758900Y-58388000D01*
X199758900Y-58388000D02*
X199758900Y-58795300D01*
X178050000Y-57620000D02*
X179225300Y-57620000D01*
X221094700Y-62700000D02*
X221094700Y-63067300D01*
X221094700Y-63067300D02*
X219344900Y-64817100D01*
X219344900Y-64817100D02*
X205780700Y-64817100D01*
X205780700Y-64817100D02*
X205105500Y-64141900D01*
X222270000Y-62700000D02*
X221094700Y-62700000D01*
%TO.N,Net-(J3-Pad2)*%
X215710000Y-57620000D02*
X217235700Y-57620000D01*
X217235700Y-57620000D02*
X218411100Y-58795400D01*
X218411100Y-58795400D02*
X222570700Y-58795400D01*
X222570700Y-58795400D02*
X223449600Y-59674300D01*
X223449600Y-59674300D02*
X223449600Y-63231800D01*
X223449600Y-63231800D02*
X216361400Y-70320000D01*
X216361400Y-70320000D02*
X209050000Y-70320000D01*
%TO.N,Net-(J3-Pad5)*%
X211994700Y-62700000D02*
X211642700Y-63052000D01*
X211642700Y-63052000D02*
X209593100Y-63052000D01*
X209593100Y-63052000D02*
X202208000Y-55666900D01*
X202208000Y-55666900D02*
X186063700Y-55666900D01*
X213170000Y-62700000D02*
X211994700Y-62700000D01*
%TO.N,/Feather_Board/BLUE*%
X209742100Y-53332600D02*
X209001900Y-54072800D01*
X209001900Y-54072800D02*
X209001900Y-60964800D01*
X209001900Y-60964800D02*
X210343400Y-62306300D01*
%TD*%
D18*
%TO.N,GNDREF*%
X183918998Y-48260901D02*
X183890000Y-48284699D01*
X183866202Y-48313697D01*
X183866201Y-48313698D01*
X183795026Y-48400424D01*
X183751088Y-48482625D01*
X183724454Y-48532453D01*
X183680997Y-48675714D01*
X183678709Y-48698944D01*
X183599463Y-48795506D01*
X183540498Y-48905820D01*
X183504188Y-49025518D01*
X183491928Y-49150000D01*
X183491928Y-49315300D01*
X182646733Y-49315300D01*
X182609400Y-49311623D01*
X182572067Y-49315300D01*
X182460414Y-49326297D01*
X182317153Y-49369754D01*
X182185124Y-49440326D01*
X182069399Y-49535299D01*
X182045601Y-49564297D01*
X175415103Y-56194796D01*
X175386099Y-56218599D01*
X175330971Y-56285774D01*
X175291126Y-56334324D01*
X175249792Y-56411654D01*
X175220554Y-56466354D01*
X175177097Y-56609615D01*
X175166100Y-56721268D01*
X175166100Y-56721278D01*
X175162424Y-56758600D01*
X175166100Y-56795923D01*
X175166101Y-63744768D01*
X175162424Y-63782100D01*
X175166101Y-63819433D01*
X175169078Y-63849653D01*
X175177098Y-63931085D01*
X175220554Y-64074346D01*
X175291126Y-64206376D01*
X175335712Y-64260703D01*
X175386100Y-64322101D01*
X175415098Y-64345899D01*
X182965601Y-71896403D01*
X182989399Y-71925401D01*
X183018397Y-71949199D01*
X183105123Y-72020374D01*
X183193059Y-72067377D01*
X183237153Y-72090946D01*
X183380414Y-72134403D01*
X183492067Y-72145400D01*
X183492077Y-72145400D01*
X183529400Y-72149076D01*
X183566722Y-72145400D01*
X204666578Y-72145400D01*
X204703900Y-72149076D01*
X204741222Y-72145400D01*
X204741233Y-72145400D01*
X204852886Y-72134403D01*
X204996147Y-72090946D01*
X205128176Y-72020374D01*
X205243901Y-71925401D01*
X205267704Y-71896397D01*
X210103802Y-67060300D01*
X210165939Y-67060300D01*
X210365898Y-67020526D01*
X210554256Y-66942505D01*
X210723774Y-66829237D01*
X210867937Y-66685074D01*
X210981205Y-66515556D01*
X211059226Y-66327198D01*
X211099000Y-66127239D01*
X211099000Y-65923361D01*
X211059226Y-65723402D01*
X210998625Y-65577100D01*
X219307578Y-65577100D01*
X219344900Y-65580776D01*
X219382222Y-65577100D01*
X219382233Y-65577100D01*
X219493886Y-65566103D01*
X219637147Y-65522646D01*
X219769176Y-65452074D01*
X219884901Y-65357101D01*
X219908704Y-65328097D01*
X221359311Y-63877491D01*
X221566589Y-64015990D01*
X221583573Y-64023025D01*
X216046599Y-69560000D01*
X209753711Y-69560000D01*
X209709774Y-69516063D01*
X209540256Y-69402795D01*
X209351898Y-69324774D01*
X209151939Y-69285000D01*
X208948061Y-69285000D01*
X208748102Y-69324774D01*
X208559744Y-69402795D01*
X208390226Y-69516063D01*
X208246063Y-69660226D01*
X208132795Y-69829744D01*
X208054774Y-70018102D01*
X208015000Y-70218061D01*
X208015000Y-70421939D01*
X208054774Y-70621898D01*
X208132795Y-70810256D01*
X208246063Y-70979774D01*
X208390226Y-71123937D01*
X208559744Y-71237205D01*
X208748102Y-71315226D01*
X208948061Y-71355000D01*
X209151939Y-71355000D01*
X209351898Y-71315226D01*
X209540256Y-71237205D01*
X209709774Y-71123937D01*
X209753711Y-71080000D01*
X216324078Y-71080000D01*
X216361400Y-71083676D01*
X216398722Y-71080000D01*
X216398733Y-71080000D01*
X216510386Y-71069003D01*
X216653647Y-71025546D01*
X216785676Y-70954974D01*
X216901401Y-70860001D01*
X216925204Y-70830997D01*
X223960603Y-63795599D01*
X223989601Y-63771801D01*
X224084574Y-63656076D01*
X224155146Y-63524047D01*
X224198603Y-63380786D01*
X224209600Y-63269133D01*
X224213277Y-63231800D01*
X224209600Y-63194467D01*
X224209600Y-59711622D01*
X224213276Y-59674299D01*
X224209600Y-59636976D01*
X224209600Y-59636967D01*
X224198603Y-59525314D01*
X224155146Y-59382053D01*
X224084574Y-59250024D01*
X223989601Y-59134299D01*
X223960604Y-59110502D01*
X223420104Y-58570003D01*
X223423475Y-58566632D01*
X223585990Y-58323411D01*
X223697932Y-58053158D01*
X223755000Y-57766260D01*
X223755000Y-57473740D01*
X223697932Y-57186842D01*
X223585990Y-56916589D01*
X223423475Y-56673368D01*
X223216632Y-56466525D01*
X222973411Y-56304010D01*
X222703158Y-56192068D01*
X222416260Y-56135000D01*
X222123740Y-56135000D01*
X221836842Y-56192068D01*
X221566589Y-56304010D01*
X221323368Y-56466525D01*
X221191513Y-56598380D01*
X221169502Y-56525820D01*
X221110537Y-56415506D01*
X221031185Y-56318815D01*
X220934494Y-56239463D01*
X220824180Y-56180498D01*
X220704482Y-56144188D01*
X220580000Y-56131928D01*
X218880000Y-56131928D01*
X218755518Y-56144188D01*
X218635820Y-56180498D01*
X218525506Y-56239463D01*
X218428815Y-56318815D01*
X218349463Y-56415506D01*
X218290498Y-56525820D01*
X218254188Y-56645518D01*
X218241928Y-56770000D01*
X218241928Y-57551427D01*
X217799504Y-57109003D01*
X217775701Y-57079999D01*
X217659976Y-56985026D01*
X217527947Y-56914454D01*
X217384686Y-56870997D01*
X217273033Y-56860000D01*
X217273022Y-56860000D01*
X217235700Y-56856324D01*
X217198378Y-56860000D01*
X216988178Y-56860000D01*
X216863475Y-56673368D01*
X216656632Y-56466525D01*
X216413411Y-56304010D01*
X216143158Y-56192068D01*
X215856260Y-56135000D01*
X215563740Y-56135000D01*
X215276842Y-56192068D01*
X215006589Y-56304010D01*
X214763368Y-56466525D01*
X214631513Y-56598380D01*
X214609502Y-56525820D01*
X214550537Y-56415506D01*
X214471185Y-56318815D01*
X214374494Y-56239463D01*
X214264180Y-56180498D01*
X214144482Y-56144188D01*
X214020000Y-56131928D01*
X212320000Y-56131928D01*
X212195518Y-56144188D01*
X212075820Y-56180498D01*
X211965506Y-56239463D01*
X211868815Y-56318815D01*
X211789463Y-56415506D01*
X211730498Y-56525820D01*
X211694188Y-56645518D01*
X211681928Y-56770000D01*
X211681928Y-58470000D01*
X211694188Y-58594482D01*
X211730498Y-58714180D01*
X211789463Y-58824494D01*
X211868815Y-58921185D01*
X211965506Y-59000537D01*
X212075820Y-59059502D01*
X212148380Y-59081513D01*
X212016525Y-59213368D01*
X211885770Y-59409056D01*
X211821122Y-59288108D01*
X211554676Y-59189929D01*
X210584605Y-60160000D01*
X211554676Y-61130071D01*
X211821122Y-61031892D01*
X211882492Y-60906037D01*
X212016525Y-61106632D01*
X212223368Y-61313475D01*
X212397760Y-61430000D01*
X212223368Y-61546525D01*
X212016525Y-61753368D01*
X211887204Y-61946911D01*
X211845714Y-61950997D01*
X211702453Y-61994454D01*
X211570424Y-62065026D01*
X211454699Y-62159999D01*
X211430896Y-62189003D01*
X211378400Y-62241499D01*
X211378400Y-62204361D01*
X211338626Y-62004402D01*
X211260605Y-61816044D01*
X211147337Y-61646526D01*
X211146584Y-61645773D01*
X211276892Y-61576122D01*
X211375071Y-61309676D01*
X210405000Y-60339605D01*
X210390858Y-60353748D01*
X210211253Y-60174143D01*
X210225395Y-60160000D01*
X210211253Y-60145858D01*
X210390858Y-59966253D01*
X210405000Y-59980395D01*
X211375071Y-59010324D01*
X211276892Y-58743878D01*
X210983867Y-58600991D01*
X210668597Y-58518015D01*
X210343197Y-58498140D01*
X210020171Y-58542130D01*
X209761900Y-58631084D01*
X209761900Y-54387601D01*
X209781901Y-54367600D01*
X209844039Y-54367600D01*
X210043998Y-54327826D01*
X210232356Y-54249805D01*
X210401874Y-54136537D01*
X210546037Y-53992374D01*
X210659305Y-53822856D01*
X210737326Y-53634498D01*
X210777100Y-53434539D01*
X210777100Y-53230661D01*
X210737326Y-53030702D01*
X210659305Y-52842344D01*
X210546037Y-52672826D01*
X210401874Y-52528663D01*
X210232356Y-52415395D01*
X210043998Y-52337374D01*
X209844039Y-52297600D01*
X209640161Y-52297600D01*
X209440202Y-52337374D01*
X209251844Y-52415395D01*
X209082326Y-52528663D01*
X208938163Y-52672826D01*
X208824895Y-52842344D01*
X208746874Y-53030702D01*
X208707100Y-53230661D01*
X208707100Y-53292799D01*
X208649437Y-53350462D01*
X208586137Y-53255726D01*
X208441974Y-53111563D01*
X208272456Y-52998295D01*
X208084098Y-52920274D01*
X207884139Y-52880500D01*
X207680261Y-52880500D01*
X207480302Y-52920274D01*
X207291944Y-52998295D01*
X207122426Y-53111563D01*
X207078489Y-53155500D01*
X204268084Y-53155500D01*
X204297826Y-53083698D01*
X204337600Y-52883739D01*
X204337600Y-52679861D01*
X204297826Y-52479902D01*
X204219805Y-52291544D01*
X204106537Y-52122026D01*
X203962374Y-51977863D01*
X203792856Y-51864595D01*
X203604498Y-51786574D01*
X203404539Y-51746800D01*
X203342402Y-51746800D01*
X199715601Y-48120000D01*
X222987721Y-48120000D01*
X223631222Y-48183096D01*
X224219164Y-48360606D01*
X224761436Y-48648937D01*
X225237364Y-49037094D01*
X225628845Y-49510314D01*
X225920951Y-50050552D01*
X226102563Y-50637244D01*
X226121044Y-50813089D01*
X226102561Y-50720166D01*
X225960466Y-50377118D01*
X225754175Y-50068382D01*
X225491618Y-49805825D01*
X225182882Y-49599534D01*
X224839834Y-49457439D01*
X224475656Y-49385000D01*
X224104344Y-49385000D01*
X223740166Y-49457439D01*
X223397118Y-49599534D01*
X223088382Y-49805825D01*
X222825825Y-50068382D01*
X222619534Y-50377118D01*
X222477439Y-50720166D01*
X222405000Y-51084344D01*
X222405000Y-51455656D01*
X222477439Y-51819834D01*
X222619534Y-52162882D01*
X222825825Y-52471618D01*
X223088382Y-52734175D01*
X223397118Y-52940466D01*
X223740166Y-53082561D01*
X224104344Y-53155000D01*
X224475656Y-53155000D01*
X224839834Y-53082561D01*
X225182882Y-52940466D01*
X225491618Y-52734175D01*
X225754175Y-52471618D01*
X225960466Y-52162882D01*
X226102561Y-51819834D01*
X226170001Y-51480788D01*
X226170000Y-68839207D01*
X226102561Y-68500166D01*
X225960466Y-68157118D01*
X225754175Y-67848382D01*
X225491618Y-67585825D01*
X225182882Y-67379534D01*
X224839834Y-67237439D01*
X224475656Y-67165000D01*
X224104344Y-67165000D01*
X223740166Y-67237439D01*
X223397118Y-67379534D01*
X223088382Y-67585825D01*
X222825825Y-67848382D01*
X222619534Y-68157118D01*
X222477439Y-68500166D01*
X222405000Y-68864344D01*
X222405000Y-69235656D01*
X222477439Y-69599834D01*
X222619534Y-69942882D01*
X222825825Y-70251618D01*
X223088382Y-70514175D01*
X223397118Y-70720466D01*
X223740166Y-70862561D01*
X224104344Y-70935000D01*
X224475656Y-70935000D01*
X224839834Y-70862561D01*
X225182882Y-70720466D01*
X225491618Y-70514175D01*
X225754175Y-70251618D01*
X225960466Y-69942882D01*
X226102561Y-69599834D01*
X226122997Y-69497095D01*
X226106904Y-69661221D01*
X225929394Y-70249164D01*
X225641063Y-70791436D01*
X225252906Y-71267364D01*
X224779686Y-71658845D01*
X224239449Y-71950950D01*
X223652756Y-72132563D01*
X223011130Y-72200000D01*
X177332279Y-72200000D01*
X176688779Y-72136904D01*
X176100836Y-71959394D01*
X175558564Y-71671063D01*
X175082636Y-71282906D01*
X174691155Y-70809686D01*
X174399050Y-70269449D01*
X174217437Y-69682756D01*
X174198955Y-69506908D01*
X174217439Y-69599834D01*
X174359534Y-69942882D01*
X174565825Y-70251618D01*
X174828382Y-70514175D01*
X175137118Y-70720466D01*
X175480166Y-70862561D01*
X175844344Y-70935000D01*
X176215656Y-70935000D01*
X176579834Y-70862561D01*
X176922882Y-70720466D01*
X177231618Y-70514175D01*
X177494175Y-70251618D01*
X177700466Y-69942882D01*
X177842561Y-69599834D01*
X177915000Y-69235656D01*
X177915000Y-68864344D01*
X177842561Y-68500166D01*
X177700466Y-68157118D01*
X177494175Y-67848382D01*
X177231618Y-67585825D01*
X176922882Y-67379534D01*
X176579834Y-67237439D01*
X176215656Y-67165000D01*
X175844344Y-67165000D01*
X175480166Y-67237439D01*
X175137118Y-67379534D01*
X174828382Y-67585825D01*
X174565825Y-67848382D01*
X174359534Y-68157118D01*
X174217439Y-68500166D01*
X174150000Y-68839207D01*
X174150000Y-51480793D01*
X174217439Y-51819834D01*
X174359534Y-52162882D01*
X174565825Y-52471618D01*
X174828382Y-52734175D01*
X175137118Y-52940466D01*
X175480166Y-53082561D01*
X175844344Y-53155000D01*
X176215656Y-53155000D01*
X176579834Y-53082561D01*
X176922882Y-52940466D01*
X177231618Y-52734175D01*
X177494175Y-52471618D01*
X177700466Y-52162882D01*
X177842561Y-51819834D01*
X177915000Y-51455656D01*
X177915000Y-51084344D01*
X177842561Y-50720166D01*
X177700466Y-50377118D01*
X177494175Y-50068382D01*
X177231618Y-49805825D01*
X176922882Y-49599534D01*
X176579834Y-49457439D01*
X176215656Y-49385000D01*
X175844344Y-49385000D01*
X175480166Y-49457439D01*
X175137118Y-49599534D01*
X174828382Y-49805825D01*
X174565825Y-50068382D01*
X174359534Y-50377118D01*
X174217439Y-50720166D01*
X174197003Y-50822905D01*
X174213096Y-50658778D01*
X174390606Y-50070836D01*
X174678937Y-49528564D01*
X175067094Y-49052636D01*
X175540314Y-48661155D01*
X176080552Y-48369049D01*
X176667244Y-48187437D01*
X177308879Y-48120000D01*
X184059899Y-48120000D01*
X183918998Y-48260901D01*
%TA.AperFunction,Conductor*%
D19*
G36*
X183918998Y-48260901D02*
G01*
X183890000Y-48284699D01*
X183866202Y-48313697D01*
X183866201Y-48313698D01*
X183795026Y-48400424D01*
X183751088Y-48482625D01*
X183724454Y-48532453D01*
X183680997Y-48675714D01*
X183678709Y-48698944D01*
X183599463Y-48795506D01*
X183540498Y-48905820D01*
X183504188Y-49025518D01*
X183491928Y-49150000D01*
X183491928Y-49315300D01*
X182646733Y-49315300D01*
X182609400Y-49311623D01*
X182572067Y-49315300D01*
X182460414Y-49326297D01*
X182317153Y-49369754D01*
X182185124Y-49440326D01*
X182069399Y-49535299D01*
X182045601Y-49564297D01*
X175415103Y-56194796D01*
X175386099Y-56218599D01*
X175330971Y-56285774D01*
X175291126Y-56334324D01*
X175249792Y-56411654D01*
X175220554Y-56466354D01*
X175177097Y-56609615D01*
X175166100Y-56721268D01*
X175166100Y-56721278D01*
X175162424Y-56758600D01*
X175166100Y-56795923D01*
X175166101Y-63744768D01*
X175162424Y-63782100D01*
X175166101Y-63819433D01*
X175169078Y-63849653D01*
X175177098Y-63931085D01*
X175220554Y-64074346D01*
X175291126Y-64206376D01*
X175335712Y-64260703D01*
X175386100Y-64322101D01*
X175415098Y-64345899D01*
X182965601Y-71896403D01*
X182989399Y-71925401D01*
X183018397Y-71949199D01*
X183105123Y-72020374D01*
X183193059Y-72067377D01*
X183237153Y-72090946D01*
X183380414Y-72134403D01*
X183492067Y-72145400D01*
X183492077Y-72145400D01*
X183529400Y-72149076D01*
X183566722Y-72145400D01*
X204666578Y-72145400D01*
X204703900Y-72149076D01*
X204741222Y-72145400D01*
X204741233Y-72145400D01*
X204852886Y-72134403D01*
X204996147Y-72090946D01*
X205128176Y-72020374D01*
X205243901Y-71925401D01*
X205267704Y-71896397D01*
X210103802Y-67060300D01*
X210165939Y-67060300D01*
X210365898Y-67020526D01*
X210554256Y-66942505D01*
X210723774Y-66829237D01*
X210867937Y-66685074D01*
X210981205Y-66515556D01*
X211059226Y-66327198D01*
X211099000Y-66127239D01*
X211099000Y-65923361D01*
X211059226Y-65723402D01*
X210998625Y-65577100D01*
X219307578Y-65577100D01*
X219344900Y-65580776D01*
X219382222Y-65577100D01*
X219382233Y-65577100D01*
X219493886Y-65566103D01*
X219637147Y-65522646D01*
X219769176Y-65452074D01*
X219884901Y-65357101D01*
X219908704Y-65328097D01*
X221359311Y-63877491D01*
X221566589Y-64015990D01*
X221583573Y-64023025D01*
X216046599Y-69560000D01*
X209753711Y-69560000D01*
X209709774Y-69516063D01*
X209540256Y-69402795D01*
X209351898Y-69324774D01*
X209151939Y-69285000D01*
X208948061Y-69285000D01*
X208748102Y-69324774D01*
X208559744Y-69402795D01*
X208390226Y-69516063D01*
X208246063Y-69660226D01*
X208132795Y-69829744D01*
X208054774Y-70018102D01*
X208015000Y-70218061D01*
X208015000Y-70421939D01*
X208054774Y-70621898D01*
X208132795Y-70810256D01*
X208246063Y-70979774D01*
X208390226Y-71123937D01*
X208559744Y-71237205D01*
X208748102Y-71315226D01*
X208948061Y-71355000D01*
X209151939Y-71355000D01*
X209351898Y-71315226D01*
X209540256Y-71237205D01*
X209709774Y-71123937D01*
X209753711Y-71080000D01*
X216324078Y-71080000D01*
X216361400Y-71083676D01*
X216398722Y-71080000D01*
X216398733Y-71080000D01*
X216510386Y-71069003D01*
X216653647Y-71025546D01*
X216785676Y-70954974D01*
X216901401Y-70860001D01*
X216925204Y-70830997D01*
X223960603Y-63795599D01*
X223989601Y-63771801D01*
X224084574Y-63656076D01*
X224155146Y-63524047D01*
X224198603Y-63380786D01*
X224209600Y-63269133D01*
X224213277Y-63231800D01*
X224209600Y-63194467D01*
X224209600Y-59711622D01*
X224213276Y-59674299D01*
X224209600Y-59636976D01*
X224209600Y-59636967D01*
X224198603Y-59525314D01*
X224155146Y-59382053D01*
X224084574Y-59250024D01*
X223989601Y-59134299D01*
X223960604Y-59110502D01*
X223420104Y-58570003D01*
X223423475Y-58566632D01*
X223585990Y-58323411D01*
X223697932Y-58053158D01*
X223755000Y-57766260D01*
X223755000Y-57473740D01*
X223697932Y-57186842D01*
X223585990Y-56916589D01*
X223423475Y-56673368D01*
X223216632Y-56466525D01*
X222973411Y-56304010D01*
X222703158Y-56192068D01*
X222416260Y-56135000D01*
X222123740Y-56135000D01*
X221836842Y-56192068D01*
X221566589Y-56304010D01*
X221323368Y-56466525D01*
X221191513Y-56598380D01*
X221169502Y-56525820D01*
X221110537Y-56415506D01*
X221031185Y-56318815D01*
X220934494Y-56239463D01*
X220824180Y-56180498D01*
X220704482Y-56144188D01*
X220580000Y-56131928D01*
X218880000Y-56131928D01*
X218755518Y-56144188D01*
X218635820Y-56180498D01*
X218525506Y-56239463D01*
X218428815Y-56318815D01*
X218349463Y-56415506D01*
X218290498Y-56525820D01*
X218254188Y-56645518D01*
X218241928Y-56770000D01*
X218241928Y-57551427D01*
X217799504Y-57109003D01*
X217775701Y-57079999D01*
X217659976Y-56985026D01*
X217527947Y-56914454D01*
X217384686Y-56870997D01*
X217273033Y-56860000D01*
X217273022Y-56860000D01*
X217235700Y-56856324D01*
X217198378Y-56860000D01*
X216988178Y-56860000D01*
X216863475Y-56673368D01*
X216656632Y-56466525D01*
X216413411Y-56304010D01*
X216143158Y-56192068D01*
X215856260Y-56135000D01*
X215563740Y-56135000D01*
X215276842Y-56192068D01*
X215006589Y-56304010D01*
X214763368Y-56466525D01*
X214631513Y-56598380D01*
X214609502Y-56525820D01*
X214550537Y-56415506D01*
X214471185Y-56318815D01*
X214374494Y-56239463D01*
X214264180Y-56180498D01*
X214144482Y-56144188D01*
X214020000Y-56131928D01*
X212320000Y-56131928D01*
X212195518Y-56144188D01*
X212075820Y-56180498D01*
X211965506Y-56239463D01*
X211868815Y-56318815D01*
X211789463Y-56415506D01*
X211730498Y-56525820D01*
X211694188Y-56645518D01*
X211681928Y-56770000D01*
X211681928Y-58470000D01*
X211694188Y-58594482D01*
X211730498Y-58714180D01*
X211789463Y-58824494D01*
X211868815Y-58921185D01*
X211965506Y-59000537D01*
X212075820Y-59059502D01*
X212148380Y-59081513D01*
X212016525Y-59213368D01*
X211885770Y-59409056D01*
X211821122Y-59288108D01*
X211554676Y-59189929D01*
X210584605Y-60160000D01*
X211554676Y-61130071D01*
X211821122Y-61031892D01*
X211882492Y-60906037D01*
X212016525Y-61106632D01*
X212223368Y-61313475D01*
X212397760Y-61430000D01*
X212223368Y-61546525D01*
X212016525Y-61753368D01*
X211887204Y-61946911D01*
X211845714Y-61950997D01*
X211702453Y-61994454D01*
X211570424Y-62065026D01*
X211454699Y-62159999D01*
X211430896Y-62189003D01*
X211378400Y-62241499D01*
X211378400Y-62204361D01*
X211338626Y-62004402D01*
X211260605Y-61816044D01*
X211147337Y-61646526D01*
X211146584Y-61645773D01*
X211276892Y-61576122D01*
X211375071Y-61309676D01*
X210405000Y-60339605D01*
X210390858Y-60353748D01*
X210211253Y-60174143D01*
X210225395Y-60160000D01*
X210211253Y-60145858D01*
X210390858Y-59966253D01*
X210405000Y-59980395D01*
X211375071Y-59010324D01*
X211276892Y-58743878D01*
X210983867Y-58600991D01*
X210668597Y-58518015D01*
X210343197Y-58498140D01*
X210020171Y-58542130D01*
X209761900Y-58631084D01*
X209761900Y-54387601D01*
X209781901Y-54367600D01*
X209844039Y-54367600D01*
X210043998Y-54327826D01*
X210232356Y-54249805D01*
X210401874Y-54136537D01*
X210546037Y-53992374D01*
X210659305Y-53822856D01*
X210737326Y-53634498D01*
X210777100Y-53434539D01*
X210777100Y-53230661D01*
X210737326Y-53030702D01*
X210659305Y-52842344D01*
X210546037Y-52672826D01*
X210401874Y-52528663D01*
X210232356Y-52415395D01*
X210043998Y-52337374D01*
X209844039Y-52297600D01*
X209640161Y-52297600D01*
X209440202Y-52337374D01*
X209251844Y-52415395D01*
X209082326Y-52528663D01*
X208938163Y-52672826D01*
X208824895Y-52842344D01*
X208746874Y-53030702D01*
X208707100Y-53230661D01*
X208707100Y-53292799D01*
X208649437Y-53350462D01*
X208586137Y-53255726D01*
X208441974Y-53111563D01*
X208272456Y-52998295D01*
X208084098Y-52920274D01*
X207884139Y-52880500D01*
X207680261Y-52880500D01*
X207480302Y-52920274D01*
X207291944Y-52998295D01*
X207122426Y-53111563D01*
X207078489Y-53155500D01*
X204268084Y-53155500D01*
X204297826Y-53083698D01*
X204337600Y-52883739D01*
X204337600Y-52679861D01*
X204297826Y-52479902D01*
X204219805Y-52291544D01*
X204106537Y-52122026D01*
X203962374Y-51977863D01*
X203792856Y-51864595D01*
X203604498Y-51786574D01*
X203404539Y-51746800D01*
X203342402Y-51746800D01*
X199715601Y-48120000D01*
X222987721Y-48120000D01*
X223631222Y-48183096D01*
X224219164Y-48360606D01*
X224761436Y-48648937D01*
X225237364Y-49037094D01*
X225628845Y-49510314D01*
X225920951Y-50050552D01*
X226102563Y-50637244D01*
X226121044Y-50813089D01*
X226102561Y-50720166D01*
X225960466Y-50377118D01*
X225754175Y-50068382D01*
X225491618Y-49805825D01*
X225182882Y-49599534D01*
X224839834Y-49457439D01*
X224475656Y-49385000D01*
X224104344Y-49385000D01*
X223740166Y-49457439D01*
X223397118Y-49599534D01*
X223088382Y-49805825D01*
X222825825Y-50068382D01*
X222619534Y-50377118D01*
X222477439Y-50720166D01*
X222405000Y-51084344D01*
X222405000Y-51455656D01*
X222477439Y-51819834D01*
X222619534Y-52162882D01*
X222825825Y-52471618D01*
X223088382Y-52734175D01*
X223397118Y-52940466D01*
X223740166Y-53082561D01*
X224104344Y-53155000D01*
X224475656Y-53155000D01*
X224839834Y-53082561D01*
X225182882Y-52940466D01*
X225491618Y-52734175D01*
X225754175Y-52471618D01*
X225960466Y-52162882D01*
X226102561Y-51819834D01*
X226170001Y-51480788D01*
X226170000Y-68839207D01*
X226102561Y-68500166D01*
X225960466Y-68157118D01*
X225754175Y-67848382D01*
X225491618Y-67585825D01*
X225182882Y-67379534D01*
X224839834Y-67237439D01*
X224475656Y-67165000D01*
X224104344Y-67165000D01*
X223740166Y-67237439D01*
X223397118Y-67379534D01*
X223088382Y-67585825D01*
X222825825Y-67848382D01*
X222619534Y-68157118D01*
X222477439Y-68500166D01*
X222405000Y-68864344D01*
X222405000Y-69235656D01*
X222477439Y-69599834D01*
X222619534Y-69942882D01*
X222825825Y-70251618D01*
X223088382Y-70514175D01*
X223397118Y-70720466D01*
X223740166Y-70862561D01*
X224104344Y-70935000D01*
X224475656Y-70935000D01*
X224839834Y-70862561D01*
X225182882Y-70720466D01*
X225491618Y-70514175D01*
X225754175Y-70251618D01*
X225960466Y-69942882D01*
X226102561Y-69599834D01*
X226122997Y-69497095D01*
X226106904Y-69661221D01*
X225929394Y-70249164D01*
X225641063Y-70791436D01*
X225252906Y-71267364D01*
X224779686Y-71658845D01*
X224239449Y-71950950D01*
X223652756Y-72132563D01*
X223011130Y-72200000D01*
X177332279Y-72200000D01*
X176688779Y-72136904D01*
X176100836Y-71959394D01*
X175558564Y-71671063D01*
X175082636Y-71282906D01*
X174691155Y-70809686D01*
X174399050Y-70269449D01*
X174217437Y-69682756D01*
X174198955Y-69506908D01*
X174217439Y-69599834D01*
X174359534Y-69942882D01*
X174565825Y-70251618D01*
X174828382Y-70514175D01*
X175137118Y-70720466D01*
X175480166Y-70862561D01*
X175844344Y-70935000D01*
X176215656Y-70935000D01*
X176579834Y-70862561D01*
X176922882Y-70720466D01*
X177231618Y-70514175D01*
X177494175Y-70251618D01*
X177700466Y-69942882D01*
X177842561Y-69599834D01*
X177915000Y-69235656D01*
X177915000Y-68864344D01*
X177842561Y-68500166D01*
X177700466Y-68157118D01*
X177494175Y-67848382D01*
X177231618Y-67585825D01*
X176922882Y-67379534D01*
X176579834Y-67237439D01*
X176215656Y-67165000D01*
X175844344Y-67165000D01*
X175480166Y-67237439D01*
X175137118Y-67379534D01*
X174828382Y-67585825D01*
X174565825Y-67848382D01*
X174359534Y-68157118D01*
X174217439Y-68500166D01*
X174150000Y-68839207D01*
X174150000Y-51480793D01*
X174217439Y-51819834D01*
X174359534Y-52162882D01*
X174565825Y-52471618D01*
X174828382Y-52734175D01*
X175137118Y-52940466D01*
X175480166Y-53082561D01*
X175844344Y-53155000D01*
X176215656Y-53155000D01*
X176579834Y-53082561D01*
X176922882Y-52940466D01*
X177231618Y-52734175D01*
X177494175Y-52471618D01*
X177700466Y-52162882D01*
X177842561Y-51819834D01*
X177915000Y-51455656D01*
X177915000Y-51084344D01*
X177842561Y-50720166D01*
X177700466Y-50377118D01*
X177494175Y-50068382D01*
X177231618Y-49805825D01*
X176922882Y-49599534D01*
X176579834Y-49457439D01*
X176215656Y-49385000D01*
X175844344Y-49385000D01*
X175480166Y-49457439D01*
X175137118Y-49599534D01*
X174828382Y-49805825D01*
X174565825Y-50068382D01*
X174359534Y-50377118D01*
X174217439Y-50720166D01*
X174197003Y-50822905D01*
X174213096Y-50658778D01*
X174390606Y-50070836D01*
X174678937Y-49528564D01*
X175067094Y-49052636D01*
X175540314Y-48661155D01*
X176080552Y-48369049D01*
X176667244Y-48187437D01*
X177308879Y-48120000D01*
X184059899Y-48120000D01*
X183918998Y-48260901D01*
G37*
%TD.AperFunction*%
D18*
X188323601Y-59677254D02*
X188260000Y-59996997D01*
X188260000Y-60323003D01*
X188323601Y-60642746D01*
X188448358Y-60943937D01*
X188629477Y-61215001D01*
X188859999Y-61445523D01*
X189131063Y-61626642D01*
X189155001Y-61636557D01*
X189155000Y-63434898D01*
X184218998Y-68370901D01*
X184190000Y-68394699D01*
X184166202Y-68423697D01*
X184166201Y-68423698D01*
X184095026Y-68510424D01*
X184035425Y-68621928D01*
X183730000Y-68621928D01*
X183605518Y-68634188D01*
X183485820Y-68670498D01*
X183375506Y-68729463D01*
X183278815Y-68808815D01*
X183199463Y-68905506D01*
X183140498Y-69015820D01*
X183104188Y-69135518D01*
X183091928Y-69260000D01*
X183091928Y-69873126D01*
X176686100Y-63467299D01*
X176686100Y-63287746D01*
X176734010Y-63403411D01*
X176896525Y-63646632D01*
X177103368Y-63853475D01*
X177346589Y-64015990D01*
X177616842Y-64127932D01*
X177903740Y-64185000D01*
X178196260Y-64185000D01*
X178483158Y-64127932D01*
X178753411Y-64015990D01*
X178996632Y-63853475D01*
X179128487Y-63721620D01*
X179150498Y-63794180D01*
X179209463Y-63904494D01*
X179288815Y-64001185D01*
X179385506Y-64080537D01*
X179495820Y-64139502D01*
X179615518Y-64175812D01*
X179740000Y-64188072D01*
X181440000Y-64188072D01*
X181564482Y-64175812D01*
X181684180Y-64139502D01*
X181794494Y-64080537D01*
X181891185Y-64001185D01*
X181970537Y-63904494D01*
X182029502Y-63794180D01*
X182065812Y-63674482D01*
X182078072Y-63550000D01*
X182078072Y-61850000D01*
X182065812Y-61725518D01*
X182029502Y-61605820D01*
X181970537Y-61495506D01*
X181891185Y-61398815D01*
X181794494Y-61319463D01*
X181684180Y-61260498D01*
X181603534Y-61236034D01*
X181687588Y-61160269D01*
X181861641Y-60926920D01*
X181986825Y-60664099D01*
X182031476Y-60516890D01*
X181910155Y-60287000D01*
X180717000Y-60287000D01*
X180717000Y-60307000D01*
X180463000Y-60307000D01*
X180463000Y-60287000D01*
X180443000Y-60287000D01*
X180443000Y-60033000D01*
X180463000Y-60033000D01*
X180463000Y-60013000D01*
X180717000Y-60013000D01*
X180717000Y-60033000D01*
X181910155Y-60033000D01*
X182031476Y-59803110D01*
X181986825Y-59655901D01*
X181938908Y-59555300D01*
X188374116Y-59555300D01*
X188323601Y-59677254D01*
%TA.AperFunction,Conductor*%
D19*
G36*
X188323601Y-59677254D02*
G01*
X188260000Y-59996997D01*
X188260000Y-60323003D01*
X188323601Y-60642746D01*
X188448358Y-60943937D01*
X188629477Y-61215001D01*
X188859999Y-61445523D01*
X189131063Y-61626642D01*
X189155001Y-61636557D01*
X189155000Y-63434898D01*
X184218998Y-68370901D01*
X184190000Y-68394699D01*
X184166202Y-68423697D01*
X184166201Y-68423698D01*
X184095026Y-68510424D01*
X184035425Y-68621928D01*
X183730000Y-68621928D01*
X183605518Y-68634188D01*
X183485820Y-68670498D01*
X183375506Y-68729463D01*
X183278815Y-68808815D01*
X183199463Y-68905506D01*
X183140498Y-69015820D01*
X183104188Y-69135518D01*
X183091928Y-69260000D01*
X183091928Y-69873126D01*
X176686100Y-63467299D01*
X176686100Y-63287746D01*
X176734010Y-63403411D01*
X176896525Y-63646632D01*
X177103368Y-63853475D01*
X177346589Y-64015990D01*
X177616842Y-64127932D01*
X177903740Y-64185000D01*
X178196260Y-64185000D01*
X178483158Y-64127932D01*
X178753411Y-64015990D01*
X178996632Y-63853475D01*
X179128487Y-63721620D01*
X179150498Y-63794180D01*
X179209463Y-63904494D01*
X179288815Y-64001185D01*
X179385506Y-64080537D01*
X179495820Y-64139502D01*
X179615518Y-64175812D01*
X179740000Y-64188072D01*
X181440000Y-64188072D01*
X181564482Y-64175812D01*
X181684180Y-64139502D01*
X181794494Y-64080537D01*
X181891185Y-64001185D01*
X181970537Y-63904494D01*
X182029502Y-63794180D01*
X182065812Y-63674482D01*
X182078072Y-63550000D01*
X182078072Y-61850000D01*
X182065812Y-61725518D01*
X182029502Y-61605820D01*
X181970537Y-61495506D01*
X181891185Y-61398815D01*
X181794494Y-61319463D01*
X181684180Y-61260498D01*
X181603534Y-61236034D01*
X181687588Y-61160269D01*
X181861641Y-60926920D01*
X181986825Y-60664099D01*
X182031476Y-60516890D01*
X181910155Y-60287000D01*
X180717000Y-60287000D01*
X180717000Y-60307000D01*
X180463000Y-60307000D01*
X180463000Y-60287000D01*
X180443000Y-60287000D01*
X180443000Y-60033000D01*
X180463000Y-60033000D01*
X180463000Y-60013000D01*
X180717000Y-60013000D01*
X180717000Y-60033000D01*
X181910155Y-60033000D01*
X182031476Y-59803110D01*
X181986825Y-59655901D01*
X181938908Y-59555300D01*
X188374116Y-59555300D01*
X188323601Y-59677254D01*
G37*
%TD.AperFunction*%
D18*
X217847300Y-59306402D02*
X217871099Y-59335401D01*
X217900097Y-59359199D01*
X217986824Y-59430374D01*
X218118853Y-59500946D01*
X218262114Y-59544403D01*
X218380718Y-59556085D01*
X218333175Y-59655901D01*
X218288524Y-59803110D01*
X218409845Y-60033000D01*
X219603000Y-60033000D01*
X219603000Y-60013000D01*
X219857000Y-60013000D01*
X219857000Y-60033000D01*
X219877000Y-60033000D01*
X219877000Y-60287000D01*
X219857000Y-60287000D01*
X219857000Y-60307000D01*
X219603000Y-60307000D01*
X219603000Y-60287000D01*
X218409845Y-60287000D01*
X218288524Y-60516890D01*
X218333175Y-60664099D01*
X218458359Y-60926920D01*
X218505490Y-60990108D01*
X217153001Y-62342598D01*
X217137932Y-62266842D01*
X217025990Y-61996589D01*
X216863475Y-61753368D01*
X216656632Y-61546525D01*
X216482240Y-61430000D01*
X216656632Y-61313475D01*
X216863475Y-61106632D01*
X217025990Y-60863411D01*
X217137932Y-60593158D01*
X217195000Y-60306260D01*
X217195000Y-60013740D01*
X217137932Y-59726842D01*
X217025990Y-59456589D01*
X216863475Y-59213368D01*
X216656632Y-59006525D01*
X216482240Y-58890000D01*
X216656632Y-58773475D01*
X216863475Y-58566632D01*
X216961230Y-58420331D01*
X217847300Y-59306402D01*
%TA.AperFunction,Conductor*%
D19*
G36*
X217847300Y-59306402D02*
G01*
X217871099Y-59335401D01*
X217900097Y-59359199D01*
X217986824Y-59430374D01*
X218118853Y-59500946D01*
X218262114Y-59544403D01*
X218380718Y-59556085D01*
X218333175Y-59655901D01*
X218288524Y-59803110D01*
X218409845Y-60033000D01*
X219603000Y-60033000D01*
X219603000Y-60013000D01*
X219857000Y-60013000D01*
X219857000Y-60033000D01*
X219877000Y-60033000D01*
X219877000Y-60287000D01*
X219857000Y-60287000D01*
X219857000Y-60307000D01*
X219603000Y-60307000D01*
X219603000Y-60287000D01*
X218409845Y-60287000D01*
X218288524Y-60516890D01*
X218333175Y-60664099D01*
X218458359Y-60926920D01*
X218505490Y-60990108D01*
X217153001Y-62342598D01*
X217137932Y-62266842D01*
X217025990Y-61996589D01*
X216863475Y-61753368D01*
X216656632Y-61546525D01*
X216482240Y-61430000D01*
X216656632Y-61313475D01*
X216863475Y-61106632D01*
X217025990Y-60863411D01*
X217137932Y-60593158D01*
X217195000Y-60306260D01*
X217195000Y-60013740D01*
X217137932Y-59726842D01*
X217025990Y-59456589D01*
X216863475Y-59213368D01*
X216656632Y-59006525D01*
X216482240Y-58890000D01*
X216656632Y-58773475D01*
X216863475Y-58566632D01*
X216961230Y-58420331D01*
X217847300Y-59306402D01*
G37*
%TD.AperFunction*%
D18*
X200604100Y-53552502D02*
X200604100Y-53614639D01*
X200643874Y-53814598D01*
X200721895Y-54002956D01*
X200835163Y-54172474D01*
X200979326Y-54316637D01*
X201148844Y-54429905D01*
X201337202Y-54507926D01*
X201537161Y-54547700D01*
X201741039Y-54547700D01*
X201940998Y-54507926D01*
X202129356Y-54429905D01*
X202298874Y-54316637D01*
X202396605Y-54218906D01*
X202604201Y-54426503D01*
X202627999Y-54455501D01*
X202743724Y-54550474D01*
X202875753Y-54621046D01*
X203019014Y-54664503D01*
X203130667Y-54675500D01*
X203130676Y-54675500D01*
X203167999Y-54679176D01*
X203205322Y-54675500D01*
X207078489Y-54675500D01*
X207122426Y-54719437D01*
X207291944Y-54832705D01*
X207480302Y-54910726D01*
X207680261Y-54950500D01*
X207884139Y-54950500D01*
X208084098Y-54910726D01*
X208241900Y-54845362D01*
X208241901Y-60625999D01*
X202771804Y-55155903D01*
X202748001Y-55126899D01*
X202632276Y-55031926D01*
X202500247Y-54961354D01*
X202356986Y-54917897D01*
X202245333Y-54906900D01*
X202245322Y-54906900D01*
X202208000Y-54903224D01*
X202170678Y-54906900D01*
X186767411Y-54906900D01*
X186723474Y-54862963D01*
X186553956Y-54749695D01*
X186365598Y-54671674D01*
X186165639Y-54631900D01*
X185961761Y-54631900D01*
X185761802Y-54671674D01*
X185573444Y-54749695D01*
X185403926Y-54862963D01*
X185259763Y-55007126D01*
X185146495Y-55176644D01*
X185068474Y-55365002D01*
X185028700Y-55564961D01*
X185028700Y-55678000D01*
X178081501Y-55678000D01*
X182924202Y-50835300D01*
X183495000Y-50835300D01*
X183495000Y-50927002D01*
X183653748Y-50927002D01*
X183495000Y-51085750D01*
X183491928Y-51100000D01*
X183504188Y-51224482D01*
X183540498Y-51344180D01*
X183599463Y-51454494D01*
X183678815Y-51551185D01*
X183775506Y-51630537D01*
X183885820Y-51689502D01*
X184005518Y-51725812D01*
X184130000Y-51738072D01*
X184144250Y-51735000D01*
X184303000Y-51576250D01*
X184303000Y-51287503D01*
X184314418Y-51328949D01*
X184370527Y-51440742D01*
X184447369Y-51539441D01*
X184541988Y-51621252D01*
X184650751Y-51683032D01*
X184670248Y-51689498D01*
X184715750Y-51735000D01*
X184730000Y-51738072D01*
X184824445Y-51728770D01*
X184878250Y-51735000D01*
X184901788Y-51711462D01*
X184974180Y-51689502D01*
X185084494Y-51630537D01*
X185160000Y-51568571D01*
X185235506Y-51630537D01*
X185345820Y-51689502D01*
X185418212Y-51711462D01*
X185441750Y-51735000D01*
X185495555Y-51728770D01*
X185590000Y-51738072D01*
X185604250Y-51735000D01*
X185649752Y-51689498D01*
X185669249Y-51683032D01*
X185778012Y-51621252D01*
X185872631Y-51539441D01*
X185949473Y-51440742D01*
X186005582Y-51328949D01*
X186017000Y-51287503D01*
X186017000Y-51576250D01*
X186175750Y-51735000D01*
X186190000Y-51738072D01*
X186314482Y-51725812D01*
X186434180Y-51689502D01*
X186544494Y-51630537D01*
X186641185Y-51551185D01*
X186720537Y-51454494D01*
X186779502Y-51344180D01*
X186787183Y-51318860D01*
X186848836Y-51369458D01*
X187001291Y-51450947D01*
X187166715Y-51501128D01*
X187338750Y-51518072D01*
X187826250Y-51518072D01*
X187998285Y-51501128D01*
X188163709Y-51450947D01*
X188316164Y-51369458D01*
X188449792Y-51259792D01*
X188455008Y-51253436D01*
X188518815Y-51331185D01*
X188615506Y-51410537D01*
X188725820Y-51469502D01*
X188845518Y-51505812D01*
X188970000Y-51518072D01*
X189171750Y-51515000D01*
X189330500Y-51356250D01*
X189330500Y-50307000D01*
X189584500Y-50307000D01*
X189584500Y-51356250D01*
X189743250Y-51515000D01*
X189945000Y-51518072D01*
X190069482Y-51505812D01*
X190189180Y-51469502D01*
X190299494Y-51410537D01*
X190396185Y-51331185D01*
X190475537Y-51234494D01*
X190534502Y-51124180D01*
X190570812Y-51004482D01*
X190583072Y-50880000D01*
X190580000Y-50465750D01*
X190421250Y-50307000D01*
X189584500Y-50307000D01*
X189330500Y-50307000D01*
X189310500Y-50307000D01*
X189310500Y-50053000D01*
X189330500Y-50053000D01*
X189330500Y-50033000D01*
X189584500Y-50033000D01*
X189584500Y-50053000D01*
X190421250Y-50053000D01*
X190577450Y-49896800D01*
X196948399Y-49896800D01*
X200604100Y-53552502D01*
%TA.AperFunction,Conductor*%
D19*
G36*
X200604100Y-53552502D02*
G01*
X200604100Y-53614639D01*
X200643874Y-53814598D01*
X200721895Y-54002956D01*
X200835163Y-54172474D01*
X200979326Y-54316637D01*
X201148844Y-54429905D01*
X201337202Y-54507926D01*
X201537161Y-54547700D01*
X201741039Y-54547700D01*
X201940998Y-54507926D01*
X202129356Y-54429905D01*
X202298874Y-54316637D01*
X202396605Y-54218906D01*
X202604201Y-54426503D01*
X202627999Y-54455501D01*
X202743724Y-54550474D01*
X202875753Y-54621046D01*
X203019014Y-54664503D01*
X203130667Y-54675500D01*
X203130676Y-54675500D01*
X203167999Y-54679176D01*
X203205322Y-54675500D01*
X207078489Y-54675500D01*
X207122426Y-54719437D01*
X207291944Y-54832705D01*
X207480302Y-54910726D01*
X207680261Y-54950500D01*
X207884139Y-54950500D01*
X208084098Y-54910726D01*
X208241900Y-54845362D01*
X208241901Y-60625999D01*
X202771804Y-55155903D01*
X202748001Y-55126899D01*
X202632276Y-55031926D01*
X202500247Y-54961354D01*
X202356986Y-54917897D01*
X202245333Y-54906900D01*
X202245322Y-54906900D01*
X202208000Y-54903224D01*
X202170678Y-54906900D01*
X186767411Y-54906900D01*
X186723474Y-54862963D01*
X186553956Y-54749695D01*
X186365598Y-54671674D01*
X186165639Y-54631900D01*
X185961761Y-54631900D01*
X185761802Y-54671674D01*
X185573444Y-54749695D01*
X185403926Y-54862963D01*
X185259763Y-55007126D01*
X185146495Y-55176644D01*
X185068474Y-55365002D01*
X185028700Y-55564961D01*
X185028700Y-55678000D01*
X178081501Y-55678000D01*
X182924202Y-50835300D01*
X183495000Y-50835300D01*
X183495000Y-50927002D01*
X183653748Y-50927002D01*
X183495000Y-51085750D01*
X183491928Y-51100000D01*
X183504188Y-51224482D01*
X183540498Y-51344180D01*
X183599463Y-51454494D01*
X183678815Y-51551185D01*
X183775506Y-51630537D01*
X183885820Y-51689502D01*
X184005518Y-51725812D01*
X184130000Y-51738072D01*
X184144250Y-51735000D01*
X184303000Y-51576250D01*
X184303000Y-51287503D01*
X184314418Y-51328949D01*
X184370527Y-51440742D01*
X184447369Y-51539441D01*
X184541988Y-51621252D01*
X184650751Y-51683032D01*
X184670248Y-51689498D01*
X184715750Y-51735000D01*
X184730000Y-51738072D01*
X184824445Y-51728770D01*
X184878250Y-51735000D01*
X184901788Y-51711462D01*
X184974180Y-51689502D01*
X185084494Y-51630537D01*
X185160000Y-51568571D01*
X185235506Y-51630537D01*
X185345820Y-51689502D01*
X185418212Y-51711462D01*
X185441750Y-51735000D01*
X185495555Y-51728770D01*
X185590000Y-51738072D01*
X185604250Y-51735000D01*
X185649752Y-51689498D01*
X185669249Y-51683032D01*
X185778012Y-51621252D01*
X185872631Y-51539441D01*
X185949473Y-51440742D01*
X186005582Y-51328949D01*
X186017000Y-51287503D01*
X186017000Y-51576250D01*
X186175750Y-51735000D01*
X186190000Y-51738072D01*
X186314482Y-51725812D01*
X186434180Y-51689502D01*
X186544494Y-51630537D01*
X186641185Y-51551185D01*
X186720537Y-51454494D01*
X186779502Y-51344180D01*
X186787183Y-51318860D01*
X186848836Y-51369458D01*
X187001291Y-51450947D01*
X187166715Y-51501128D01*
X187338750Y-51518072D01*
X187826250Y-51518072D01*
X187998285Y-51501128D01*
X188163709Y-51450947D01*
X188316164Y-51369458D01*
X188449792Y-51259792D01*
X188455008Y-51253436D01*
X188518815Y-51331185D01*
X188615506Y-51410537D01*
X188725820Y-51469502D01*
X188845518Y-51505812D01*
X188970000Y-51518072D01*
X189171750Y-51515000D01*
X189330500Y-51356250D01*
X189330500Y-50307000D01*
X189584500Y-50307000D01*
X189584500Y-51356250D01*
X189743250Y-51515000D01*
X189945000Y-51518072D01*
X190069482Y-51505812D01*
X190189180Y-51469502D01*
X190299494Y-51410537D01*
X190396185Y-51331185D01*
X190475537Y-51234494D01*
X190534502Y-51124180D01*
X190570812Y-51004482D01*
X190583072Y-50880000D01*
X190580000Y-50465750D01*
X190421250Y-50307000D01*
X189584500Y-50307000D01*
X189330500Y-50307000D01*
X189310500Y-50307000D01*
X189310500Y-50053000D01*
X189330500Y-50053000D01*
X189330500Y-50033000D01*
X189584500Y-50033000D01*
X189584500Y-50053000D01*
X190421250Y-50053000D01*
X190577450Y-49896800D01*
X196948399Y-49896800D01*
X200604100Y-53552502D01*
G37*
%TD.AperFunction*%
D18*
X186017000Y-50673000D02*
X186037000Y-50673000D01*
X186037000Y-50927000D01*
X186017000Y-50927000D01*
X186017000Y-51057750D01*
X185886250Y-50927000D01*
X185743000Y-50927000D01*
X185743000Y-50673000D01*
X185886250Y-50673000D01*
X185906250Y-50653000D01*
X186017000Y-50653000D01*
X186017000Y-50673000D01*
%TA.AperFunction,Conductor*%
D19*
G36*
X186017000Y-50673000D02*
G01*
X186037000Y-50673000D01*
X186037000Y-50927000D01*
X186017000Y-50927000D01*
X186017000Y-51057750D01*
X185886250Y-50927000D01*
X185743000Y-50927000D01*
X185743000Y-50673000D01*
X185886250Y-50673000D01*
X185906250Y-50653000D01*
X186017000Y-50653000D01*
X186017000Y-50673000D01*
G37*
%TD.AperFunction*%
%TD*%
M02*
