%TF.GenerationSoftware,KiCad,Pcbnew,(5.1.9)-1*%
%TF.CreationDate,2021-09-26T23:12:42-04:00*%
%TF.ProjectId,p21014,70323130-3134-42e6-9b69-6361645f7063,rev?*%
%TF.SameCoordinates,Original*%
%TF.FileFunction,Legend,Top*%
%TF.FilePolarity,Positive*%
%FSLAX46Y46*%
G04 Gerber Fmt 4.6, Leading zero omitted, Abs format (unit mm)*
G04 Created by KiCad (PCBNEW (5.1.9)-1) date 2021-09-26 23:12:42*
%MOMM*%
%LPD*%
G01*
G04 APERTURE LIST*
%ADD10C,0.150000*%
%ADD11C,0.300000*%
%ADD12C,0.120000*%
G04 APERTURE END LIST*
D10*
X188011428Y-64872380D02*
X187678095Y-64396190D01*
X187440000Y-64872380D02*
X187440000Y-63872380D01*
X187820952Y-63872380D01*
X187916190Y-63920000D01*
X187963809Y-63967619D01*
X188011428Y-64062857D01*
X188011428Y-64205714D01*
X187963809Y-64300952D01*
X187916190Y-64348571D01*
X187820952Y-64396190D01*
X187440000Y-64396190D01*
X188820952Y-64824761D02*
X188725714Y-64872380D01*
X188535238Y-64872380D01*
X188440000Y-64824761D01*
X188392380Y-64729523D01*
X188392380Y-64348571D01*
X188440000Y-64253333D01*
X188535238Y-64205714D01*
X188725714Y-64205714D01*
X188820952Y-64253333D01*
X188868571Y-64348571D01*
X188868571Y-64443809D01*
X188392380Y-64539047D01*
X189201904Y-64205714D02*
X189440000Y-64872380D01*
X189678095Y-64205714D01*
X190011428Y-64586666D02*
X190487619Y-64586666D01*
X189916190Y-64872380D02*
X190249523Y-63872380D01*
X190582857Y-64872380D01*
D11*
X183238571Y-64778571D02*
X184310000Y-64778571D01*
X184524285Y-64850000D01*
X184667142Y-64992857D01*
X184738571Y-65207142D01*
X184738571Y-65350000D01*
X184738571Y-63350000D02*
X184738571Y-64064285D01*
X183238571Y-64064285D01*
X184595714Y-61992857D02*
X184667142Y-62064285D01*
X184738571Y-62278571D01*
X184738571Y-62421428D01*
X184667142Y-62635714D01*
X184524285Y-62778571D01*
X184381428Y-62850000D01*
X184095714Y-62921428D01*
X183881428Y-62921428D01*
X183595714Y-62850000D01*
X183452857Y-62778571D01*
X183310000Y-62635714D01*
X183238571Y-62421428D01*
X183238571Y-62278571D01*
X183310000Y-62064285D01*
X183381428Y-61992857D01*
X183238571Y-60921428D02*
X184310000Y-60921428D01*
X184524285Y-60992857D01*
X184667142Y-61135714D01*
X184738571Y-61350000D01*
X184738571Y-61492857D01*
X184738571Y-59492857D02*
X184738571Y-60207142D01*
X183238571Y-60207142D01*
X184595714Y-58135714D02*
X184667142Y-58207142D01*
X184738571Y-58421428D01*
X184738571Y-58564285D01*
X184667142Y-58778571D01*
X184524285Y-58921428D01*
X184381428Y-58992857D01*
X184095714Y-59064285D01*
X183881428Y-59064285D01*
X183595714Y-58992857D01*
X183452857Y-58921428D01*
X183310000Y-58778571D01*
X183238571Y-58564285D01*
X183238571Y-58421428D01*
X183310000Y-58207142D01*
X183381428Y-58135714D01*
X183238571Y-57064285D02*
X184310000Y-57064285D01*
X184524285Y-57135714D01*
X184667142Y-57278571D01*
X184738571Y-57492857D01*
X184738571Y-57635714D01*
X184738571Y-55635714D02*
X184738571Y-56350000D01*
X183238571Y-56350000D01*
X184595714Y-54278571D02*
X184667142Y-54350000D01*
X184738571Y-54564285D01*
X184738571Y-54707142D01*
X184667142Y-54921428D01*
X184524285Y-55064285D01*
X184381428Y-55135714D01*
X184095714Y-55207142D01*
X183881428Y-55207142D01*
X183595714Y-55135714D01*
X183452857Y-55064285D01*
X183310000Y-54921428D01*
X183238571Y-54707142D01*
X183238571Y-54564285D01*
X183310000Y-54350000D01*
X183381428Y-54278571D01*
X183238571Y-53207142D02*
X184310000Y-53207142D01*
X184524285Y-53278571D01*
X184667142Y-53421428D01*
X184738571Y-53635714D01*
X184738571Y-53778571D01*
X184738571Y-51778571D02*
X184738571Y-52492857D01*
X183238571Y-52492857D01*
X184595714Y-50421428D02*
X184667142Y-50492857D01*
X184738571Y-50707142D01*
X184738571Y-50850000D01*
X184667142Y-51064285D01*
X184524285Y-51207142D01*
X184381428Y-51278571D01*
X184095714Y-51350000D01*
X183881428Y-51350000D01*
X183595714Y-51278571D01*
X183452857Y-51207142D01*
X183310000Y-51064285D01*
X183238571Y-50850000D01*
X183238571Y-50707142D01*
X183310000Y-50492857D01*
X183381428Y-50421428D01*
D12*
%TO.C,J2*%
X176610000Y-64030000D02*
X176610000Y-56290000D01*
X176610000Y-56290000D02*
X173950000Y-56290000D01*
X173950000Y-56290000D02*
X173950000Y-64030000D01*
X173950000Y-64030000D02*
X176610000Y-64030000D01*
X173950000Y-63080000D02*
X167950000Y-63080000D01*
X167950000Y-63080000D02*
X167950000Y-62320000D01*
X167950000Y-62320000D02*
X173950000Y-62320000D01*
X173950000Y-63020000D02*
X167950000Y-63020000D01*
X173950000Y-62900000D02*
X167950000Y-62900000D01*
X173950000Y-62780000D02*
X167950000Y-62780000D01*
X173950000Y-62660000D02*
X167950000Y-62660000D01*
X173950000Y-62540000D02*
X167950000Y-62540000D01*
X173950000Y-62420000D02*
X167950000Y-62420000D01*
X177007071Y-63080000D02*
X176610000Y-63080000D01*
X177007071Y-62320000D02*
X176610000Y-62320000D01*
X179480000Y-63080000D02*
X179092929Y-63080000D01*
X179480000Y-62320000D02*
X179092929Y-62320000D01*
X176610000Y-61430000D02*
X173950000Y-61430000D01*
X173950000Y-60540000D02*
X167950000Y-60540000D01*
X167950000Y-60540000D02*
X167950000Y-59780000D01*
X167950000Y-59780000D02*
X173950000Y-59780000D01*
X177007071Y-60540000D02*
X176610000Y-60540000D01*
X177007071Y-59780000D02*
X176610000Y-59780000D01*
X179547071Y-60540000D02*
X179092929Y-60540000D01*
X179547071Y-59780000D02*
X179092929Y-59780000D01*
X176610000Y-58890000D02*
X173950000Y-58890000D01*
X173950000Y-58000000D02*
X167950000Y-58000000D01*
X167950000Y-58000000D02*
X167950000Y-57240000D01*
X167950000Y-57240000D02*
X173950000Y-57240000D01*
X177007071Y-58000000D02*
X176610000Y-58000000D01*
X177007071Y-57240000D02*
X176610000Y-57240000D01*
X179547071Y-58000000D02*
X179092929Y-58000000D01*
X179547071Y-57240000D02*
X179092929Y-57240000D01*
X181860000Y-62700000D02*
X181860000Y-63970000D01*
X181860000Y-63970000D02*
X180590000Y-63970000D01*
%TO.C,J1*%
X223710000Y-56290000D02*
X223710000Y-64030000D01*
X223710000Y-64030000D02*
X226370000Y-64030000D01*
X226370000Y-64030000D02*
X226370000Y-56290000D01*
X226370000Y-56290000D02*
X223710000Y-56290000D01*
X226370000Y-57240000D02*
X232370000Y-57240000D01*
X232370000Y-57240000D02*
X232370000Y-58000000D01*
X232370000Y-58000000D02*
X226370000Y-58000000D01*
X226370000Y-57300000D02*
X232370000Y-57300000D01*
X226370000Y-57420000D02*
X232370000Y-57420000D01*
X226370000Y-57540000D02*
X232370000Y-57540000D01*
X226370000Y-57660000D02*
X232370000Y-57660000D01*
X226370000Y-57780000D02*
X232370000Y-57780000D01*
X226370000Y-57900000D02*
X232370000Y-57900000D01*
X223312929Y-57240000D02*
X223710000Y-57240000D01*
X223312929Y-58000000D02*
X223710000Y-58000000D01*
X220840000Y-57240000D02*
X221227071Y-57240000D01*
X220840000Y-58000000D02*
X221227071Y-58000000D01*
X223710000Y-58890000D02*
X226370000Y-58890000D01*
X226370000Y-59780000D02*
X232370000Y-59780000D01*
X232370000Y-59780000D02*
X232370000Y-60540000D01*
X232370000Y-60540000D02*
X226370000Y-60540000D01*
X223312929Y-59780000D02*
X223710000Y-59780000D01*
X223312929Y-60540000D02*
X223710000Y-60540000D01*
X220772929Y-59780000D02*
X221227071Y-59780000D01*
X220772929Y-60540000D02*
X221227071Y-60540000D01*
X223710000Y-61430000D02*
X226370000Y-61430000D01*
X226370000Y-62320000D02*
X232370000Y-62320000D01*
X232370000Y-62320000D02*
X232370000Y-63080000D01*
X232370000Y-63080000D02*
X226370000Y-63080000D01*
X223312929Y-62320000D02*
X223710000Y-62320000D01*
X223312929Y-63080000D02*
X223710000Y-63080000D01*
X220772929Y-62320000D02*
X221227071Y-62320000D01*
X220772929Y-63080000D02*
X221227071Y-63080000D01*
X218460000Y-57620000D02*
X218460000Y-56350000D01*
X218460000Y-56350000D02*
X219730000Y-56350000D01*
%TO.C,J3*%
X211840000Y-56290000D02*
X213170000Y-56290000D01*
X211840000Y-57620000D02*
X211840000Y-56290000D01*
X214440000Y-56290000D02*
X217040000Y-56290000D01*
X214440000Y-58890000D02*
X214440000Y-56290000D01*
X211840000Y-58890000D02*
X214440000Y-58890000D01*
X217040000Y-56290000D02*
X217040000Y-64030000D01*
X211840000Y-58890000D02*
X211840000Y-64030000D01*
X211840000Y-64030000D02*
X217040000Y-64030000D01*
%TO.C,C1*%
X198032420Y-58543000D02*
X198313580Y-58543000D01*
X198032420Y-57523000D02*
X198313580Y-57523000D01*
%TO.C,C2*%
X198032420Y-54505000D02*
X198313580Y-54505000D01*
X198032420Y-55525000D02*
X198313580Y-55525000D01*
%TO.C,C3*%
X194022420Y-58543000D02*
X194303580Y-58543000D01*
X194022420Y-57523000D02*
X194303580Y-57523000D01*
%TO.C,C4*%
X194022420Y-54505000D02*
X194303580Y-54505000D01*
X194022420Y-55525000D02*
X194303580Y-55525000D01*
%TO.C,C5*%
X186430000Y-56135000D02*
X190340000Y-56135000D01*
X186430000Y-54265000D02*
X186430000Y-56135000D01*
X190340000Y-54265000D02*
X186430000Y-54265000D01*
%TO.C,R1*%
X203687742Y-58551500D02*
X204162258Y-58551500D01*
X203687742Y-57506500D02*
X204162258Y-57506500D01*
%TO.C,R2*%
X207697742Y-54488500D02*
X208172258Y-54488500D01*
X207697742Y-55533500D02*
X208172258Y-55533500D01*
%TO.C,R3*%
X209826742Y-64715500D02*
X210301258Y-64715500D01*
X209826742Y-65760500D02*
X210301258Y-65760500D01*
%TO.C,R4*%
X203687742Y-55533500D02*
X204162258Y-55533500D01*
X203687742Y-54488500D02*
X204162258Y-54488500D01*
%TO.C,R5*%
X207292742Y-61487500D02*
X207767258Y-61487500D01*
X207292742Y-62532500D02*
X207767258Y-62532500D01*
%TO.C,R6*%
X207697742Y-58551500D02*
X208172258Y-58551500D01*
X207697742Y-57506500D02*
X208172258Y-57506500D01*
%TO.C,R7*%
X205508742Y-65760500D02*
X205983258Y-65760500D01*
X205508742Y-64715500D02*
X205983258Y-64715500D01*
%TO.C,J2*%
D10*
X180256666Y-64862380D02*
X180256666Y-65576666D01*
X180209047Y-65719523D01*
X180113809Y-65814761D01*
X179970952Y-65862380D01*
X179875714Y-65862380D01*
X180685238Y-64957619D02*
X180732857Y-64910000D01*
X180828095Y-64862380D01*
X181066190Y-64862380D01*
X181161428Y-64910000D01*
X181209047Y-64957619D01*
X181256666Y-65052857D01*
X181256666Y-65148095D01*
X181209047Y-65290952D01*
X180637619Y-65862380D01*
X181256666Y-65862380D01*
%TO.C,J1*%
X219406666Y-64542380D02*
X219406666Y-65256666D01*
X219359047Y-65399523D01*
X219263809Y-65494761D01*
X219120952Y-65542380D01*
X219025714Y-65542380D01*
X220406666Y-65542380D02*
X219835238Y-65542380D01*
X220120952Y-65542380D02*
X220120952Y-64542380D01*
X220025714Y-64685238D01*
X219930476Y-64780476D01*
X219835238Y-64828095D01*
%TO.C,C1*%
X198006333Y-56960142D02*
X197958714Y-57007761D01*
X197815857Y-57055380D01*
X197720619Y-57055380D01*
X197577761Y-57007761D01*
X197482523Y-56912523D01*
X197434904Y-56817285D01*
X197387285Y-56626809D01*
X197387285Y-56483952D01*
X197434904Y-56293476D01*
X197482523Y-56198238D01*
X197577761Y-56103000D01*
X197720619Y-56055380D01*
X197815857Y-56055380D01*
X197958714Y-56103000D01*
X198006333Y-56150619D01*
X198958714Y-57055380D02*
X198387285Y-57055380D01*
X198673000Y-57055380D02*
X198673000Y-56055380D01*
X198577761Y-56198238D01*
X198482523Y-56293476D01*
X198387285Y-56341095D01*
%TO.C,C2*%
X198006333Y-53942142D02*
X197958714Y-53989761D01*
X197815857Y-54037380D01*
X197720619Y-54037380D01*
X197577761Y-53989761D01*
X197482523Y-53894523D01*
X197434904Y-53799285D01*
X197387285Y-53608809D01*
X197387285Y-53465952D01*
X197434904Y-53275476D01*
X197482523Y-53180238D01*
X197577761Y-53085000D01*
X197720619Y-53037380D01*
X197815857Y-53037380D01*
X197958714Y-53085000D01*
X198006333Y-53132619D01*
X198387285Y-53132619D02*
X198434904Y-53085000D01*
X198530142Y-53037380D01*
X198768238Y-53037380D01*
X198863476Y-53085000D01*
X198911095Y-53132619D01*
X198958714Y-53227857D01*
X198958714Y-53323095D01*
X198911095Y-53465952D01*
X198339666Y-54037380D01*
X198958714Y-54037380D01*
%TO.C,C3*%
X193996333Y-56960142D02*
X193948714Y-57007761D01*
X193805857Y-57055380D01*
X193710619Y-57055380D01*
X193567761Y-57007761D01*
X193472523Y-56912523D01*
X193424904Y-56817285D01*
X193377285Y-56626809D01*
X193377285Y-56483952D01*
X193424904Y-56293476D01*
X193472523Y-56198238D01*
X193567761Y-56103000D01*
X193710619Y-56055380D01*
X193805857Y-56055380D01*
X193948714Y-56103000D01*
X193996333Y-56150619D01*
X194329666Y-56055380D02*
X194948714Y-56055380D01*
X194615380Y-56436333D01*
X194758238Y-56436333D01*
X194853476Y-56483952D01*
X194901095Y-56531571D01*
X194948714Y-56626809D01*
X194948714Y-56864904D01*
X194901095Y-56960142D01*
X194853476Y-57007761D01*
X194758238Y-57055380D01*
X194472523Y-57055380D01*
X194377285Y-57007761D01*
X194329666Y-56960142D01*
%TO.C,C4*%
X193996333Y-53942142D02*
X193948714Y-53989761D01*
X193805857Y-54037380D01*
X193710619Y-54037380D01*
X193567761Y-53989761D01*
X193472523Y-53894523D01*
X193424904Y-53799285D01*
X193377285Y-53608809D01*
X193377285Y-53465952D01*
X193424904Y-53275476D01*
X193472523Y-53180238D01*
X193567761Y-53085000D01*
X193710619Y-53037380D01*
X193805857Y-53037380D01*
X193948714Y-53085000D01*
X193996333Y-53132619D01*
X194853476Y-53370714D02*
X194853476Y-54037380D01*
X194615380Y-52989761D02*
X194377285Y-53704047D01*
X194996333Y-53704047D01*
%TO.C,C5*%
X188573333Y-53807142D02*
X188525714Y-53854761D01*
X188382857Y-53902380D01*
X188287619Y-53902380D01*
X188144761Y-53854761D01*
X188049523Y-53759523D01*
X188001904Y-53664285D01*
X187954285Y-53473809D01*
X187954285Y-53330952D01*
X188001904Y-53140476D01*
X188049523Y-53045238D01*
X188144761Y-52950000D01*
X188287619Y-52902380D01*
X188382857Y-52902380D01*
X188525714Y-52950000D01*
X188573333Y-52997619D01*
X189478095Y-52902380D02*
X189001904Y-52902380D01*
X188954285Y-53378571D01*
X189001904Y-53330952D01*
X189097142Y-53283333D01*
X189335238Y-53283333D01*
X189430476Y-53330952D01*
X189478095Y-53378571D01*
X189525714Y-53473809D01*
X189525714Y-53711904D01*
X189478095Y-53807142D01*
X189430476Y-53854761D01*
X189335238Y-53902380D01*
X189097142Y-53902380D01*
X189001904Y-53854761D01*
X188954285Y-53807142D01*
%TO.C,R1*%
X203758333Y-57051380D02*
X203425000Y-56575190D01*
X203186904Y-57051380D02*
X203186904Y-56051380D01*
X203567857Y-56051380D01*
X203663095Y-56099000D01*
X203710714Y-56146619D01*
X203758333Y-56241857D01*
X203758333Y-56384714D01*
X203710714Y-56479952D01*
X203663095Y-56527571D01*
X203567857Y-56575190D01*
X203186904Y-56575190D01*
X204710714Y-57051380D02*
X204139285Y-57051380D01*
X204425000Y-57051380D02*
X204425000Y-56051380D01*
X204329761Y-56194238D01*
X204234523Y-56289476D01*
X204139285Y-56337095D01*
%TO.C,R2*%
X207768333Y-54033380D02*
X207435000Y-53557190D01*
X207196904Y-54033380D02*
X207196904Y-53033380D01*
X207577857Y-53033380D01*
X207673095Y-53081000D01*
X207720714Y-53128619D01*
X207768333Y-53223857D01*
X207768333Y-53366714D01*
X207720714Y-53461952D01*
X207673095Y-53509571D01*
X207577857Y-53557190D01*
X207196904Y-53557190D01*
X208149285Y-53128619D02*
X208196904Y-53081000D01*
X208292142Y-53033380D01*
X208530238Y-53033380D01*
X208625476Y-53081000D01*
X208673095Y-53128619D01*
X208720714Y-53223857D01*
X208720714Y-53319095D01*
X208673095Y-53461952D01*
X208101666Y-54033380D01*
X208720714Y-54033380D01*
%TO.C,R3*%
X209897333Y-64260380D02*
X209564000Y-63784190D01*
X209325904Y-64260380D02*
X209325904Y-63260380D01*
X209706857Y-63260380D01*
X209802095Y-63308000D01*
X209849714Y-63355619D01*
X209897333Y-63450857D01*
X209897333Y-63593714D01*
X209849714Y-63688952D01*
X209802095Y-63736571D01*
X209706857Y-63784190D01*
X209325904Y-63784190D01*
X210230666Y-63260380D02*
X210849714Y-63260380D01*
X210516380Y-63641333D01*
X210659238Y-63641333D01*
X210754476Y-63688952D01*
X210802095Y-63736571D01*
X210849714Y-63831809D01*
X210849714Y-64069904D01*
X210802095Y-64165142D01*
X210754476Y-64212761D01*
X210659238Y-64260380D01*
X210373523Y-64260380D01*
X210278285Y-64212761D01*
X210230666Y-64165142D01*
%TO.C,R4*%
X203758333Y-54033380D02*
X203425000Y-53557190D01*
X203186904Y-54033380D02*
X203186904Y-53033380D01*
X203567857Y-53033380D01*
X203663095Y-53081000D01*
X203710714Y-53128619D01*
X203758333Y-53223857D01*
X203758333Y-53366714D01*
X203710714Y-53461952D01*
X203663095Y-53509571D01*
X203567857Y-53557190D01*
X203186904Y-53557190D01*
X204615476Y-53366714D02*
X204615476Y-54033380D01*
X204377380Y-52985761D02*
X204139285Y-53700047D01*
X204758333Y-53700047D01*
%TO.C,R5*%
X207363333Y-61032380D02*
X207030000Y-60556190D01*
X206791904Y-61032380D02*
X206791904Y-60032380D01*
X207172857Y-60032380D01*
X207268095Y-60080000D01*
X207315714Y-60127619D01*
X207363333Y-60222857D01*
X207363333Y-60365714D01*
X207315714Y-60460952D01*
X207268095Y-60508571D01*
X207172857Y-60556190D01*
X206791904Y-60556190D01*
X208268095Y-60032380D02*
X207791904Y-60032380D01*
X207744285Y-60508571D01*
X207791904Y-60460952D01*
X207887142Y-60413333D01*
X208125238Y-60413333D01*
X208220476Y-60460952D01*
X208268095Y-60508571D01*
X208315714Y-60603809D01*
X208315714Y-60841904D01*
X208268095Y-60937142D01*
X208220476Y-60984761D01*
X208125238Y-61032380D01*
X207887142Y-61032380D01*
X207791904Y-60984761D01*
X207744285Y-60937142D01*
%TO.C,R6*%
X207768333Y-57051380D02*
X207435000Y-56575190D01*
X207196904Y-57051380D02*
X207196904Y-56051380D01*
X207577857Y-56051380D01*
X207673095Y-56099000D01*
X207720714Y-56146619D01*
X207768333Y-56241857D01*
X207768333Y-56384714D01*
X207720714Y-56479952D01*
X207673095Y-56527571D01*
X207577857Y-56575190D01*
X207196904Y-56575190D01*
X208625476Y-56051380D02*
X208435000Y-56051380D01*
X208339761Y-56099000D01*
X208292142Y-56146619D01*
X208196904Y-56289476D01*
X208149285Y-56479952D01*
X208149285Y-56860904D01*
X208196904Y-56956142D01*
X208244523Y-57003761D01*
X208339761Y-57051380D01*
X208530238Y-57051380D01*
X208625476Y-57003761D01*
X208673095Y-56956142D01*
X208720714Y-56860904D01*
X208720714Y-56622809D01*
X208673095Y-56527571D01*
X208625476Y-56479952D01*
X208530238Y-56432333D01*
X208339761Y-56432333D01*
X208244523Y-56479952D01*
X208196904Y-56527571D01*
X208149285Y-56622809D01*
%TO.C,R7*%
X205579333Y-64260380D02*
X205246000Y-63784190D01*
X205007904Y-64260380D02*
X205007904Y-63260380D01*
X205388857Y-63260380D01*
X205484095Y-63308000D01*
X205531714Y-63355619D01*
X205579333Y-63450857D01*
X205579333Y-63593714D01*
X205531714Y-63688952D01*
X205484095Y-63736571D01*
X205388857Y-63784190D01*
X205007904Y-63784190D01*
X205912666Y-63260380D02*
X206579333Y-63260380D01*
X206150761Y-64260380D01*
%TD*%
M02*
