%TF.GenerationSoftware,KiCad,Pcbnew,(5.1.9)-1*%
%TF.CreationDate,2021-09-26T23:12:42-04:00*%
%TF.ProjectId,p21014,70323130-3134-42e6-9b69-6361645f7063,rev?*%
%TF.SameCoordinates,Original*%
%TF.FileFunction,Paste,Top*%
%TF.FilePolarity,Positive*%
%FSLAX46Y46*%
G04 Gerber Fmt 4.6, Leading zero omitted, Abs format (unit mm)*
G04 Created by KiCad (PCBNEW (5.1.9)-1) date 2021-09-26 23:12:42*
%MOMM*%
%LPD*%
G01*
G04 APERTURE LIST*
%ADD10R,1.270000X4.200000*%
%ADD11R,1.840000X0.930000*%
%ADD12R,1.840000X3.190000*%
G04 APERTURE END LIST*
%TO.C,C1*%
G36*
G01*
X196948000Y-58283000D02*
X196948000Y-57783000D01*
G75*
G02*
X197173000Y-57558000I225000J0D01*
G01*
X197623000Y-57558000D01*
G75*
G02*
X197848000Y-57783000I0J-225000D01*
G01*
X197848000Y-58283000D01*
G75*
G02*
X197623000Y-58508000I-225000J0D01*
G01*
X197173000Y-58508000D01*
G75*
G02*
X196948000Y-58283000I0J225000D01*
G01*
G37*
G36*
G01*
X198498000Y-58283000D02*
X198498000Y-57783000D01*
G75*
G02*
X198723000Y-57558000I225000J0D01*
G01*
X199173000Y-57558000D01*
G75*
G02*
X199398000Y-57783000I0J-225000D01*
G01*
X199398000Y-58283000D01*
G75*
G02*
X199173000Y-58508000I-225000J0D01*
G01*
X198723000Y-58508000D01*
G75*
G02*
X198498000Y-58283000I0J225000D01*
G01*
G37*
%TD*%
%TO.C,C2*%
G36*
G01*
X198498000Y-55265000D02*
X198498000Y-54765000D01*
G75*
G02*
X198723000Y-54540000I225000J0D01*
G01*
X199173000Y-54540000D01*
G75*
G02*
X199398000Y-54765000I0J-225000D01*
G01*
X199398000Y-55265000D01*
G75*
G02*
X199173000Y-55490000I-225000J0D01*
G01*
X198723000Y-55490000D01*
G75*
G02*
X198498000Y-55265000I0J225000D01*
G01*
G37*
G36*
G01*
X196948000Y-55265000D02*
X196948000Y-54765000D01*
G75*
G02*
X197173000Y-54540000I225000J0D01*
G01*
X197623000Y-54540000D01*
G75*
G02*
X197848000Y-54765000I0J-225000D01*
G01*
X197848000Y-55265000D01*
G75*
G02*
X197623000Y-55490000I-225000J0D01*
G01*
X197173000Y-55490000D01*
G75*
G02*
X196948000Y-55265000I0J225000D01*
G01*
G37*
%TD*%
%TO.C,C3*%
G36*
G01*
X192938000Y-58283000D02*
X192938000Y-57783000D01*
G75*
G02*
X193163000Y-57558000I225000J0D01*
G01*
X193613000Y-57558000D01*
G75*
G02*
X193838000Y-57783000I0J-225000D01*
G01*
X193838000Y-58283000D01*
G75*
G02*
X193613000Y-58508000I-225000J0D01*
G01*
X193163000Y-58508000D01*
G75*
G02*
X192938000Y-58283000I0J225000D01*
G01*
G37*
G36*
G01*
X194488000Y-58283000D02*
X194488000Y-57783000D01*
G75*
G02*
X194713000Y-57558000I225000J0D01*
G01*
X195163000Y-57558000D01*
G75*
G02*
X195388000Y-57783000I0J-225000D01*
G01*
X195388000Y-58283000D01*
G75*
G02*
X195163000Y-58508000I-225000J0D01*
G01*
X194713000Y-58508000D01*
G75*
G02*
X194488000Y-58283000I0J225000D01*
G01*
G37*
%TD*%
%TO.C,C4*%
G36*
G01*
X194488000Y-55265000D02*
X194488000Y-54765000D01*
G75*
G02*
X194713000Y-54540000I225000J0D01*
G01*
X195163000Y-54540000D01*
G75*
G02*
X195388000Y-54765000I0J-225000D01*
G01*
X195388000Y-55265000D01*
G75*
G02*
X195163000Y-55490000I-225000J0D01*
G01*
X194713000Y-55490000D01*
G75*
G02*
X194488000Y-55265000I0J225000D01*
G01*
G37*
G36*
G01*
X192938000Y-55265000D02*
X192938000Y-54765000D01*
G75*
G02*
X193163000Y-54540000I225000J0D01*
G01*
X193613000Y-54540000D01*
G75*
G02*
X193838000Y-54765000I0J-225000D01*
G01*
X193838000Y-55265000D01*
G75*
G02*
X193613000Y-55490000I-225000J0D01*
G01*
X193163000Y-55490000D01*
G75*
G02*
X192938000Y-55265000I0J225000D01*
G01*
G37*
%TD*%
%TO.C,C5*%
G36*
G01*
X186690000Y-55625001D02*
X186690000Y-54774999D01*
G75*
G02*
X186939999Y-54525000I249999J0D01*
G01*
X187840001Y-54525000D01*
G75*
G02*
X188090000Y-54774999I0J-249999D01*
G01*
X188090000Y-55625001D01*
G75*
G02*
X187840001Y-55875000I-249999J0D01*
G01*
X186939999Y-55875000D01*
G75*
G02*
X186690000Y-55625001I0J249999D01*
G01*
G37*
G36*
G01*
X189390000Y-55625001D02*
X189390000Y-54774999D01*
G75*
G02*
X189639999Y-54525000I249999J0D01*
G01*
X190540001Y-54525000D01*
G75*
G02*
X190790000Y-54774999I0J-249999D01*
G01*
X190790000Y-55625001D01*
G75*
G02*
X190540001Y-55875000I-249999J0D01*
G01*
X189639999Y-55875000D01*
G75*
G02*
X189390000Y-55625001I0J249999D01*
G01*
G37*
%TD*%
D10*
%TO.C,J4*%
X179840000Y-70320000D03*
X182380000Y-70320000D03*
X187460000Y-70320000D03*
X184920000Y-70320000D03*
X192540000Y-70320000D03*
X190000000Y-70320000D03*
X197620000Y-70320000D03*
X195080000Y-70320000D03*
%TD*%
%TO.C,J5*%
X190000000Y-50000000D03*
X192540000Y-50000000D03*
X197620000Y-50000000D03*
X195080000Y-50000000D03*
X202700000Y-50000000D03*
X200160000Y-50000000D03*
X207780000Y-50000000D03*
X212860000Y-50000000D03*
X205240000Y-50000000D03*
X215400000Y-50000000D03*
X217940000Y-50000000D03*
X210320000Y-50000000D03*
%TD*%
%TO.C,J6*%
X205240000Y-70320000D03*
X207780000Y-70320000D03*
X212860000Y-70320000D03*
X210320000Y-70320000D03*
X217940000Y-70320000D03*
X215400000Y-70320000D03*
%TD*%
%TO.C,R1*%
G36*
G01*
X202700000Y-58304000D02*
X202700000Y-57754000D01*
G75*
G02*
X202900000Y-57554000I200000J0D01*
G01*
X203300000Y-57554000D01*
G75*
G02*
X203500000Y-57754000I0J-200000D01*
G01*
X203500000Y-58304000D01*
G75*
G02*
X203300000Y-58504000I-200000J0D01*
G01*
X202900000Y-58504000D01*
G75*
G02*
X202700000Y-58304000I0J200000D01*
G01*
G37*
G36*
G01*
X204350000Y-58304000D02*
X204350000Y-57754000D01*
G75*
G02*
X204550000Y-57554000I200000J0D01*
G01*
X204950000Y-57554000D01*
G75*
G02*
X205150000Y-57754000I0J-200000D01*
G01*
X205150000Y-58304000D01*
G75*
G02*
X204950000Y-58504000I-200000J0D01*
G01*
X204550000Y-58504000D01*
G75*
G02*
X204350000Y-58304000I0J200000D01*
G01*
G37*
%TD*%
%TO.C,R2*%
G36*
G01*
X208360000Y-55286000D02*
X208360000Y-54736000D01*
G75*
G02*
X208560000Y-54536000I200000J0D01*
G01*
X208960000Y-54536000D01*
G75*
G02*
X209160000Y-54736000I0J-200000D01*
G01*
X209160000Y-55286000D01*
G75*
G02*
X208960000Y-55486000I-200000J0D01*
G01*
X208560000Y-55486000D01*
G75*
G02*
X208360000Y-55286000I0J200000D01*
G01*
G37*
G36*
G01*
X206710000Y-55286000D02*
X206710000Y-54736000D01*
G75*
G02*
X206910000Y-54536000I200000J0D01*
G01*
X207310000Y-54536000D01*
G75*
G02*
X207510000Y-54736000I0J-200000D01*
G01*
X207510000Y-55286000D01*
G75*
G02*
X207310000Y-55486000I-200000J0D01*
G01*
X206910000Y-55486000D01*
G75*
G02*
X206710000Y-55286000I0J200000D01*
G01*
G37*
%TD*%
%TO.C,R3*%
G36*
G01*
X210489000Y-65513000D02*
X210489000Y-64963000D01*
G75*
G02*
X210689000Y-64763000I200000J0D01*
G01*
X211089000Y-64763000D01*
G75*
G02*
X211289000Y-64963000I0J-200000D01*
G01*
X211289000Y-65513000D01*
G75*
G02*
X211089000Y-65713000I-200000J0D01*
G01*
X210689000Y-65713000D01*
G75*
G02*
X210489000Y-65513000I0J200000D01*
G01*
G37*
G36*
G01*
X208839000Y-65513000D02*
X208839000Y-64963000D01*
G75*
G02*
X209039000Y-64763000I200000J0D01*
G01*
X209439000Y-64763000D01*
G75*
G02*
X209639000Y-64963000I0J-200000D01*
G01*
X209639000Y-65513000D01*
G75*
G02*
X209439000Y-65713000I-200000J0D01*
G01*
X209039000Y-65713000D01*
G75*
G02*
X208839000Y-65513000I0J200000D01*
G01*
G37*
%TD*%
%TO.C,R4*%
G36*
G01*
X202700000Y-55286000D02*
X202700000Y-54736000D01*
G75*
G02*
X202900000Y-54536000I200000J0D01*
G01*
X203300000Y-54536000D01*
G75*
G02*
X203500000Y-54736000I0J-200000D01*
G01*
X203500000Y-55286000D01*
G75*
G02*
X203300000Y-55486000I-200000J0D01*
G01*
X202900000Y-55486000D01*
G75*
G02*
X202700000Y-55286000I0J200000D01*
G01*
G37*
G36*
G01*
X204350000Y-55286000D02*
X204350000Y-54736000D01*
G75*
G02*
X204550000Y-54536000I200000J0D01*
G01*
X204950000Y-54536000D01*
G75*
G02*
X205150000Y-54736000I0J-200000D01*
G01*
X205150000Y-55286000D01*
G75*
G02*
X204950000Y-55486000I-200000J0D01*
G01*
X204550000Y-55486000D01*
G75*
G02*
X204350000Y-55286000I0J200000D01*
G01*
G37*
%TD*%
%TO.C,R5*%
G36*
G01*
X207955000Y-62285000D02*
X207955000Y-61735000D01*
G75*
G02*
X208155000Y-61535000I200000J0D01*
G01*
X208555000Y-61535000D01*
G75*
G02*
X208755000Y-61735000I0J-200000D01*
G01*
X208755000Y-62285000D01*
G75*
G02*
X208555000Y-62485000I-200000J0D01*
G01*
X208155000Y-62485000D01*
G75*
G02*
X207955000Y-62285000I0J200000D01*
G01*
G37*
G36*
G01*
X206305000Y-62285000D02*
X206305000Y-61735000D01*
G75*
G02*
X206505000Y-61535000I200000J0D01*
G01*
X206905000Y-61535000D01*
G75*
G02*
X207105000Y-61735000I0J-200000D01*
G01*
X207105000Y-62285000D01*
G75*
G02*
X206905000Y-62485000I-200000J0D01*
G01*
X206505000Y-62485000D01*
G75*
G02*
X206305000Y-62285000I0J200000D01*
G01*
G37*
%TD*%
%TO.C,R6*%
G36*
G01*
X206710000Y-58304000D02*
X206710000Y-57754000D01*
G75*
G02*
X206910000Y-57554000I200000J0D01*
G01*
X207310000Y-57554000D01*
G75*
G02*
X207510000Y-57754000I0J-200000D01*
G01*
X207510000Y-58304000D01*
G75*
G02*
X207310000Y-58504000I-200000J0D01*
G01*
X206910000Y-58504000D01*
G75*
G02*
X206710000Y-58304000I0J200000D01*
G01*
G37*
G36*
G01*
X208360000Y-58304000D02*
X208360000Y-57754000D01*
G75*
G02*
X208560000Y-57554000I200000J0D01*
G01*
X208960000Y-57554000D01*
G75*
G02*
X209160000Y-57754000I0J-200000D01*
G01*
X209160000Y-58304000D01*
G75*
G02*
X208960000Y-58504000I-200000J0D01*
G01*
X208560000Y-58504000D01*
G75*
G02*
X208360000Y-58304000I0J200000D01*
G01*
G37*
%TD*%
%TO.C,R7*%
G36*
G01*
X204521000Y-65513000D02*
X204521000Y-64963000D01*
G75*
G02*
X204721000Y-64763000I200000J0D01*
G01*
X205121000Y-64763000D01*
G75*
G02*
X205321000Y-64963000I0J-200000D01*
G01*
X205321000Y-65513000D01*
G75*
G02*
X205121000Y-65713000I-200000J0D01*
G01*
X204721000Y-65713000D01*
G75*
G02*
X204521000Y-65513000I0J200000D01*
G01*
G37*
G36*
G01*
X206171000Y-65513000D02*
X206171000Y-64963000D01*
G75*
G02*
X206371000Y-64763000I200000J0D01*
G01*
X206771000Y-64763000D01*
G75*
G02*
X206971000Y-64963000I0J-200000D01*
G01*
X206971000Y-65513000D01*
G75*
G02*
X206771000Y-65713000I-200000J0D01*
G01*
X206371000Y-65713000D01*
G75*
G02*
X206171000Y-65513000I0J200000D01*
G01*
G37*
%TD*%
D11*
%TO.C,VR1*%
X195075000Y-61020000D03*
X195075000Y-63320000D03*
X195075000Y-65620000D03*
D12*
X201245000Y-63320000D03*
%TD*%
M02*
