M48
; DRILL file {KiCad (5.1.9)-1} date 10/03/21 23:22:00
; FORMAT={-:-/ absolute / inch / decimal}
; #@! TF.CreationDate,2021-10-03T23:22:00-04:00
; #@! TF.GenerationSoftware,Kicad,Pcbnew,(5.1.9)-1
; #@! TF.FileFunction,Plated,1,2,PTH
FMAT,2
INCH
T1C0.0157
T2C0.0394
T3C0.0512
%
G90
G05
T1
X7.256Y-2.1685
X7.5521Y-2.2871
X7.5808Y-2.3141
X7.6755Y-2.2172
X7.7167Y-2.1311
X7.7535Y-2.4222
X7.763Y-2.2723
X7.8185Y-2.6597
X7.8734Y-2.3207
X7.9665Y-2.1811
X7.9676Y-2.2586
X7.9881Y-2.0978
X8.2303Y-1.9343
X8.2314Y-1.976
X8.5918Y-2.6616
T2
X6.8701Y-2.3185
X6.8701Y-2.4185
X6.9701Y-2.3185
X6.9701Y-2.4185
X7.0701Y-2.3185
X7.0701Y-2.4185
T3
X7.7165Y-2.3685
X8.5232Y-2.3685
T0
M30
