%TF.GenerationSoftware,KiCad,Pcbnew,(5.1.9)-1*%
%TF.CreationDate,2021-10-03T23:21:57-04:00*%
%TF.ProjectId,p21014,70323130-3134-42e6-9b69-6361645f7063,rev?*%
%TF.SameCoordinates,Original*%
%TF.FileFunction,Copper,L2,Bot*%
%TF.FilePolarity,Positive*%
%FSLAX46Y46*%
G04 Gerber Fmt 4.6, Leading zero omitted, Abs format (unit mm)*
G04 Created by KiCad (PCBNEW (5.1.9)-1) date 2021-10-03 23:21:57*
%MOMM*%
%LPD*%
G01*
G04 APERTURE LIST*
%TA.AperFunction,ComponentPad*%
%ADD10C,2.040000*%
%TD*%
%TA.AperFunction,SMDPad,CuDef*%
%ADD11R,0.600000X0.600000*%
%TD*%
%TA.AperFunction,SMDPad,CuDef*%
%ADD12R,0.500000X0.600000*%
%TD*%
%TA.AperFunction,SMDPad,CuDef*%
%ADD13R,4.200000X1.270000*%
%TD*%
%TA.AperFunction,ComponentPad*%
%ADD14R,1.700000X1.700000*%
%TD*%
%TA.AperFunction,ComponentPad*%
%ADD15O,1.700000X1.700000*%
%TD*%
%TA.AperFunction,SMDPad,CuDef*%
%ADD16R,2.000000X1.800000*%
%TD*%
%TA.AperFunction,ViaPad*%
%ADD17C,0.800000*%
%TD*%
%TA.AperFunction,Conductor*%
%ADD18C,0.250000*%
%TD*%
G04 APERTURE END LIST*
%TO.P,D2,2*%
%TO.N,Net-(D2-Pad2)*%
%TA.AperFunction,SMDPad,CuDef*%
G36*
G01*
X194690000Y-72226250D02*
X194690000Y-71313750D01*
G75*
G02*
X194933750Y-71070000I243750J0D01*
G01*
X195421250Y-71070000D01*
G75*
G02*
X195665000Y-71313750I0J-243750D01*
G01*
X195665000Y-72226250D01*
G75*
G02*
X195421250Y-72470000I-243750J0D01*
G01*
X194933750Y-72470000D01*
G75*
G02*
X194690000Y-72226250I0J243750D01*
G01*
G37*
%TD.AperFunction*%
%TO.P,D2,1*%
%TO.N,GNDREF*%
%TA.AperFunction,SMDPad,CuDef*%
G36*
G01*
X192815000Y-72226250D02*
X192815000Y-71313750D01*
G75*
G02*
X193058750Y-71070000I243750J0D01*
G01*
X193546250Y-71070000D01*
G75*
G02*
X193790000Y-71313750I0J-243750D01*
G01*
X193790000Y-72226250D01*
G75*
G02*
X193546250Y-72470000I-243750J0D01*
G01*
X193058750Y-72470000D01*
G75*
G02*
X192815000Y-72226250I0J243750D01*
G01*
G37*
%TD.AperFunction*%
%TD*%
D10*
%TO.P,BT1,2*%
%TO.N,GNDREF*%
X216490000Y-60160000D03*
%TO.P,BT1,1*%
%TO.N,Net-(BT1-Pad1)*%
X196000000Y-60160000D03*
%TD*%
D11*
%TO.P,D1,6*%
%TO.N,GNDREF*%
X190140000Y-72460000D03*
%TO.P,D1,1*%
%TO.N,Net-(D1-Pad1)*%
X190140000Y-71110000D03*
%TO.P,D1,3*%
%TO.N,Net-(D1-Pad3)*%
X191590000Y-71110000D03*
%TO.P,D1,4*%
%TO.N,GNDREF*%
X191600000Y-72460000D03*
D12*
%TO.P,D1,5*%
X190870000Y-72460000D03*
%TO.P,D1,2*%
%TO.N,Net-(D1-Pad2)*%
X190880000Y-71110000D03*
%TD*%
D13*
%TO.P,J1,5*%
%TO.N,/SCL*%
X186270000Y-63970000D03*
%TO.P,J1,6*%
%TO.N,/RST*%
X186270000Y-66510000D03*
%TO.P,J1,3*%
%TO.N,GNDREF*%
X186270000Y-58890000D03*
%TO.P,J1,4*%
%TO.N,/SDA*%
X186270000Y-61430000D03*
%TO.P,J1,2*%
%TO.N,/IMU_A/3v*%
X186270000Y-56350000D03*
%TO.P,J1,1*%
%TO.N,+5V*%
X186270000Y-53810000D03*
%TD*%
D14*
%TO.P,J3,1*%
%TO.N,Net-(J3-Pad1)*%
X174500000Y-61430000D03*
D15*
%TO.P,J3,2*%
%TO.N,Net-(J3-Pad2)*%
X174500000Y-58890000D03*
%TO.P,J3,3*%
%TO.N,Net-(J3-Pad3)*%
X177040000Y-61430000D03*
%TO.P,J3,4*%
%TO.N,Net-(J3-Pad4)*%
X177040000Y-58890000D03*
%TO.P,J3,5*%
%TO.N,Net-(J3-Pad5)*%
X179580000Y-61430000D03*
%TO.P,J3,6*%
%TO.N,Net-(J3-Pad6)*%
X179580000Y-58890000D03*
%TD*%
D16*
%TO.P,SW1,1*%
%TO.N,Net-(BT1-Pad1)*%
X190460000Y-48980000D03*
%TO.P,SW1,2*%
%TO.N,+BATT*%
X196060000Y-48980000D03*
%TD*%
D17*
%TO.N,GNDREF*%
X198591000Y-67555400D03*
X184301600Y-55080000D03*
%TO.N,+BATT*%
X199984000Y-58945000D03*
%TO.N,+5V*%
X191822900Y-58091300D03*
%TO.N,Net-(D1-Pad1)*%
X197181300Y-57716800D03*
%TO.N,Net-(D1-Pad3)*%
X196004500Y-54129500D03*
%TO.N,Net-(D1-Pad2)*%
X202898800Y-53285000D03*
%TO.N,Net-(D2-Pad2)*%
X202376200Y-57367500D03*
%TO.N,/SCL*%
X194956500Y-56317200D03*
%TO.N,/RST*%
X196938800Y-61524000D03*
%TO.N,/SDA*%
X218230900Y-67603800D03*
X202348600Y-55399000D03*
X192551800Y-58777200D03*
%TO.N,Net-(J3-Pad1)*%
X209077300Y-50190800D03*
%TO.N,Net-(J3-Pad2)*%
X209050000Y-49131500D03*
%TD*%
D18*
%TO.N,GNDREF*%
X216490000Y-60160000D02*
X209094600Y-67555400D01*
X209094600Y-67555400D02*
X198591000Y-67555400D01*
X198591000Y-67555400D02*
X198591000Y-69916600D01*
X198591000Y-69916600D02*
X195702000Y-72805600D01*
X195702000Y-72805600D02*
X193725100Y-72805600D01*
X193725100Y-72805600D02*
X193302500Y-72383000D01*
X193302500Y-72383000D02*
X192302300Y-72383000D01*
X192302300Y-72383000D02*
X192225300Y-72460000D01*
X193302500Y-72383000D02*
X193302500Y-71770000D01*
X191600000Y-72460000D02*
X192225300Y-72460000D01*
X191600000Y-72460000D02*
X190870000Y-72460000D01*
X190870000Y-72460000D02*
X190140000Y-72460000D01*
X184301600Y-55080000D02*
X183844700Y-55536900D01*
X183844700Y-55536900D02*
X183844700Y-58890000D01*
X186270000Y-58890000D02*
X183844700Y-58890000D01*
X190140000Y-72460000D02*
X189014200Y-72460000D01*
X189014200Y-72460000D02*
X183844700Y-67290500D01*
X183844700Y-67290500D02*
X183844700Y-58890000D01*
%TO.N,Net-(BT1-Pad1)*%
X190460000Y-48980000D02*
X190460000Y-50205300D01*
X190460000Y-50205300D02*
X196000000Y-55745300D01*
X196000000Y-55745300D02*
X196000000Y-60160000D01*
%TO.N,+BATT*%
X196060000Y-50205300D02*
X199984000Y-54129300D01*
X199984000Y-54129300D02*
X199984000Y-58945000D01*
X196060000Y-48980000D02*
X196060000Y-50205300D01*
%TO.N,+5V*%
X188695300Y-53810000D02*
X188695300Y-54963700D01*
X188695300Y-54963700D02*
X191822900Y-58091300D01*
X186270000Y-53810000D02*
X188695300Y-53810000D01*
%TO.N,Net-(D1-Pad1)*%
X197181300Y-57716800D02*
X197681000Y-58216500D01*
X197681000Y-58216500D02*
X197681000Y-62746500D01*
X197681000Y-62746500D02*
X190140000Y-70287500D01*
X190140000Y-70287500D02*
X190140000Y-71110000D01*
%TO.N,Net-(D1-Pad3)*%
X191590000Y-71110000D02*
X191590000Y-69747000D01*
X191590000Y-69747000D02*
X198131400Y-63205600D01*
X198131400Y-63205600D02*
X198131400Y-56256400D01*
X198131400Y-56256400D02*
X196004500Y-54129500D01*
%TO.N,Net-(D1-Pad2)*%
X190880000Y-71735300D02*
X192025900Y-71735300D01*
X192025900Y-71735300D02*
X192488700Y-71272500D01*
X192488700Y-71272500D02*
X192488700Y-70131600D01*
X192488700Y-70131600D02*
X200710000Y-61910300D01*
X200710000Y-61910300D02*
X200710000Y-55473800D01*
X200710000Y-55473800D02*
X202898800Y-53285000D01*
X190880000Y-71110000D02*
X190880000Y-71735300D01*
%TO.N,Net-(D2-Pad2)*%
X202376200Y-57367500D02*
X202376200Y-61125600D01*
X202376200Y-61125600D02*
X195177500Y-68324300D01*
X195177500Y-68324300D02*
X195177500Y-71770000D01*
%TO.N,/SCL*%
X194956500Y-56317200D02*
X194956500Y-57708800D01*
X194956500Y-57708800D02*
X188695300Y-63970000D01*
X186270000Y-63970000D02*
X188695300Y-63970000D01*
%TO.N,/RST*%
X188695300Y-66510000D02*
X193681300Y-61524000D01*
X193681300Y-61524000D02*
X196938800Y-61524000D01*
X186270000Y-66510000D02*
X188695300Y-66510000D01*
%TO.N,/SDA*%
X188695300Y-61430000D02*
X189899000Y-61430000D01*
X189899000Y-61430000D02*
X192551800Y-58777200D01*
X202348600Y-55399000D02*
X213651200Y-55399000D01*
X213651200Y-55399000D02*
X218230900Y-59978700D01*
X218230900Y-59978700D02*
X218230900Y-67603800D01*
X186270000Y-61430000D02*
X188695300Y-61430000D01*
%TO.N,Net-(J3-Pad1)*%
X174500000Y-61430000D02*
X175675300Y-61430000D01*
X175675300Y-61430000D02*
X175675300Y-61062600D01*
X175675300Y-61062600D02*
X176483200Y-60254700D01*
X176483200Y-60254700D02*
X177376300Y-60254700D01*
X177376300Y-60254700D02*
X178310000Y-59321000D01*
X178310000Y-59321000D02*
X178310000Y-58477400D01*
X178310000Y-58477400D02*
X189032800Y-47754600D01*
X189032800Y-47754600D02*
X206641100Y-47754600D01*
X206641100Y-47754600D02*
X209077300Y-50190800D01*
%TO.N,Net-(J3-Pad2)*%
X174500000Y-58890000D02*
X175675300Y-58890000D01*
X175675300Y-58890000D02*
X175675300Y-58522700D01*
X175675300Y-58522700D02*
X186914400Y-47283600D01*
X186914400Y-47283600D02*
X207202100Y-47283600D01*
X207202100Y-47283600D02*
X209050000Y-49131500D01*
%TD*%
M02*
