%TF.GenerationSoftware,KiCad,Pcbnew,(5.1.9)-1*%
%TF.CreationDate,2021-10-03T23:21:57-04:00*%
%TF.ProjectId,p21014,70323130-3134-42e6-9b69-6361645f7063,rev?*%
%TF.SameCoordinates,Original*%
%TF.FileFunction,Copper,L1,Top*%
%TF.FilePolarity,Positive*%
%FSLAX46Y46*%
G04 Gerber Fmt 4.6, Leading zero omitted, Abs format (unit mm)*
G04 Created by KiCad (PCBNEW (5.1.9)-1) date 2021-10-03 23:21:57*
%MOMM*%
%LPD*%
G01*
G04 APERTURE LIST*
%TA.AperFunction,ComponentPad*%
%ADD10C,2.040000*%
%TD*%
%TA.AperFunction,ComponentPad*%
%ADD11R,1.700000X1.700000*%
%TD*%
%TA.AperFunction,ComponentPad*%
%ADD12O,1.700000X1.700000*%
%TD*%
%TA.AperFunction,SMDPad,CuDef*%
%ADD13R,1.270000X4.200000*%
%TD*%
%TA.AperFunction,SMDPad,CuDef*%
%ADD14R,0.930000X1.840000*%
%TD*%
%TA.AperFunction,SMDPad,CuDef*%
%ADD15R,3.190000X1.840000*%
%TD*%
%TA.AperFunction,ViaPad*%
%ADD16C,0.800000*%
%TD*%
%TA.AperFunction,Conductor*%
%ADD17C,0.250000*%
%TD*%
G04 APERTURE END LIST*
D10*
%TO.P,BT1,2*%
%TO.N,GNDREF*%
X216490000Y-60160000D03*
%TO.P,BT1,1*%
%TO.N,Net-(BT1-Pad1)*%
X196000000Y-60160000D03*
%TD*%
%TO.P,C1,1*%
%TO.N,+BATT*%
%TA.AperFunction,SMDPad,CuDef*%
G36*
G01*
X202040000Y-66665000D02*
X202040000Y-66165000D01*
G75*
G02*
X202265000Y-65940000I225000J0D01*
G01*
X202715000Y-65940000D01*
G75*
G02*
X202940000Y-66165000I0J-225000D01*
G01*
X202940000Y-66665000D01*
G75*
G02*
X202715000Y-66890000I-225000J0D01*
G01*
X202265000Y-66890000D01*
G75*
G02*
X202040000Y-66665000I0J225000D01*
G01*
G37*
%TD.AperFunction*%
%TO.P,C1,2*%
%TO.N,GNDREF*%
%TA.AperFunction,SMDPad,CuDef*%
G36*
G01*
X203590000Y-66665000D02*
X203590000Y-66165000D01*
G75*
G02*
X203815000Y-65940000I225000J0D01*
G01*
X204265000Y-65940000D01*
G75*
G02*
X204490000Y-66165000I0J-225000D01*
G01*
X204490000Y-66665000D01*
G75*
G02*
X204265000Y-66890000I-225000J0D01*
G01*
X203815000Y-66890000D01*
G75*
G02*
X203590000Y-66665000I0J225000D01*
G01*
G37*
%TD.AperFunction*%
%TD*%
%TO.P,C2,2*%
%TO.N,GNDREF*%
%TA.AperFunction,SMDPad,CuDef*%
G36*
G01*
X203690000Y-63655000D02*
X203690000Y-63155000D01*
G75*
G02*
X203915000Y-62930000I225000J0D01*
G01*
X204365000Y-62930000D01*
G75*
G02*
X204590000Y-63155000I0J-225000D01*
G01*
X204590000Y-63655000D01*
G75*
G02*
X204365000Y-63880000I-225000J0D01*
G01*
X203915000Y-63880000D01*
G75*
G02*
X203690000Y-63655000I0J225000D01*
G01*
G37*
%TD.AperFunction*%
%TO.P,C2,1*%
%TO.N,+5V*%
%TA.AperFunction,SMDPad,CuDef*%
G36*
G01*
X202140000Y-63655000D02*
X202140000Y-63155000D01*
G75*
G02*
X202365000Y-62930000I225000J0D01*
G01*
X202815000Y-62930000D01*
G75*
G02*
X203040000Y-63155000I0J-225000D01*
G01*
X203040000Y-63655000D01*
G75*
G02*
X202815000Y-63880000I-225000J0D01*
G01*
X202365000Y-63880000D01*
G75*
G02*
X202140000Y-63655000I0J225000D01*
G01*
G37*
%TD.AperFunction*%
%TD*%
%TO.P,C3,1*%
%TO.N,Net-(C3-Pad1)*%
%TA.AperFunction,SMDPad,CuDef*%
G36*
G01*
X198030000Y-66665000D02*
X198030000Y-66165000D01*
G75*
G02*
X198255000Y-65940000I225000J0D01*
G01*
X198705000Y-65940000D01*
G75*
G02*
X198930000Y-66165000I0J-225000D01*
G01*
X198930000Y-66665000D01*
G75*
G02*
X198705000Y-66890000I-225000J0D01*
G01*
X198255000Y-66890000D01*
G75*
G02*
X198030000Y-66665000I0J225000D01*
G01*
G37*
%TD.AperFunction*%
%TO.P,C3,2*%
%TO.N,GNDREF*%
%TA.AperFunction,SMDPad,CuDef*%
G36*
G01*
X199580000Y-66665000D02*
X199580000Y-66165000D01*
G75*
G02*
X199805000Y-65940000I225000J0D01*
G01*
X200255000Y-65940000D01*
G75*
G02*
X200480000Y-66165000I0J-225000D01*
G01*
X200480000Y-66665000D01*
G75*
G02*
X200255000Y-66890000I-225000J0D01*
G01*
X199805000Y-66890000D01*
G75*
G02*
X199580000Y-66665000I0J225000D01*
G01*
G37*
%TD.AperFunction*%
%TD*%
%TO.P,C4,2*%
%TO.N,GNDREF*%
%TA.AperFunction,SMDPad,CuDef*%
G36*
G01*
X199680000Y-63655000D02*
X199680000Y-63155000D01*
G75*
G02*
X199905000Y-62930000I225000J0D01*
G01*
X200355000Y-62930000D01*
G75*
G02*
X200580000Y-63155000I0J-225000D01*
G01*
X200580000Y-63655000D01*
G75*
G02*
X200355000Y-63880000I-225000J0D01*
G01*
X199905000Y-63880000D01*
G75*
G02*
X199680000Y-63655000I0J225000D01*
G01*
G37*
%TD.AperFunction*%
%TO.P,C4,1*%
%TO.N,+5V*%
%TA.AperFunction,SMDPad,CuDef*%
G36*
G01*
X198130000Y-63655000D02*
X198130000Y-63155000D01*
G75*
G02*
X198355000Y-62930000I225000J0D01*
G01*
X198805000Y-62930000D01*
G75*
G02*
X199030000Y-63155000I0J-225000D01*
G01*
X199030000Y-63655000D01*
G75*
G02*
X198805000Y-63880000I-225000J0D01*
G01*
X198355000Y-63880000D01*
G75*
G02*
X198130000Y-63655000I0J225000D01*
G01*
G37*
%TD.AperFunction*%
%TD*%
%TO.P,C5,1*%
%TO.N,+5V*%
%TA.AperFunction,SMDPad,CuDef*%
G36*
G01*
X196445001Y-66940000D02*
X195594999Y-66940000D01*
G75*
G02*
X195345000Y-66690001I0J249999D01*
G01*
X195345000Y-65789999D01*
G75*
G02*
X195594999Y-65540000I249999J0D01*
G01*
X196445001Y-65540000D01*
G75*
G02*
X196695000Y-65789999I0J-249999D01*
G01*
X196695000Y-66690001D01*
G75*
G02*
X196445001Y-66940000I-249999J0D01*
G01*
G37*
%TD.AperFunction*%
%TO.P,C5,2*%
%TO.N,GNDREF*%
%TA.AperFunction,SMDPad,CuDef*%
G36*
G01*
X196445001Y-64240000D02*
X195594999Y-64240000D01*
G75*
G02*
X195345000Y-63990001I0J249999D01*
G01*
X195345000Y-63089999D01*
G75*
G02*
X195594999Y-62840000I249999J0D01*
G01*
X196445001Y-62840000D01*
G75*
G02*
X196695000Y-63089999I0J-249999D01*
G01*
X196695000Y-63990001D01*
G75*
G02*
X196445001Y-64240000I-249999J0D01*
G01*
G37*
%TD.AperFunction*%
%TD*%
D11*
%TO.P,J3,1*%
%TO.N,Net-(J3-Pad1)*%
X174500000Y-61430000D03*
D12*
%TO.P,J3,2*%
%TO.N,Net-(J3-Pad2)*%
X174500000Y-58890000D03*
%TO.P,J3,3*%
%TO.N,Net-(J3-Pad3)*%
X177040000Y-61430000D03*
%TO.P,J3,4*%
%TO.N,Net-(J3-Pad4)*%
X177040000Y-58890000D03*
%TO.P,J3,5*%
%TO.N,Net-(J3-Pad5)*%
X179580000Y-61430000D03*
%TO.P,J3,6*%
%TO.N,Net-(J3-Pad6)*%
X179580000Y-58890000D03*
%TD*%
D13*
%TO.P,J4,7*%
%TO.N,Net-(J4-Pad7)*%
X195080000Y-50000000D03*
%TO.P,J4,8*%
%TO.N,Net-(J4-Pad8)*%
X197620000Y-50000000D03*
%TO.P,J4,5*%
%TO.N,Net-(J4-Pad5)*%
X190000000Y-50000000D03*
%TO.P,J4,6*%
%TO.N,Net-(J3-Pad4)*%
X192540000Y-50000000D03*
%TO.P,J4,3*%
%TO.N,Net-(J4-Pad3)*%
X184920000Y-50000000D03*
%TO.P,J4,4*%
%TO.N,GNDREF*%
X187460000Y-50000000D03*
%TO.P,J4,2*%
%TO.N,Net-(J4-Pad2)*%
X182380000Y-50000000D03*
%TO.P,J4,1*%
%TO.N,Net-(J3-Pad5)*%
X179840000Y-50000000D03*
%TD*%
%TO.P,J5,9*%
%TO.N,/Feather_Board/BLUE*%
X210320000Y-70320000D03*
%TO.P,J5,12*%
%TO.N,/SDA*%
X217940000Y-70320000D03*
%TO.P,J5,11*%
%TO.N,/SCL*%
X215400000Y-70320000D03*
%TO.P,J5,7*%
%TO.N,/Feather_Board/RED*%
X205240000Y-70320000D03*
%TO.P,J5,10*%
%TO.N,Net-(J5-Pad10)*%
X212860000Y-70320000D03*
%TO.P,J5,8*%
%TO.N,/Feather_Board/GREEN*%
X207780000Y-70320000D03*
%TO.P,J5,5*%
%TO.N,/RST*%
X200160000Y-70320000D03*
%TO.P,J5,6*%
%TO.N,Net-(J5-Pad6)*%
X202700000Y-70320000D03*
%TO.P,J5,3*%
%TO.N,Net-(J5-Pad3)*%
X195080000Y-70320000D03*
%TO.P,J5,4*%
%TO.N,Net-(J5-Pad4)*%
X197620000Y-70320000D03*
%TO.P,J5,2*%
%TO.N,GNDREF*%
X192540000Y-70320000D03*
%TO.P,J5,1*%
%TO.N,+5V*%
X190000000Y-70320000D03*
%TD*%
%TO.P,J6,5*%
%TO.N,Net-(J6-Pad5)*%
X215400000Y-50000000D03*
%TO.P,J6,6*%
%TO.N,Net-(J3-Pad6)*%
X217940000Y-50000000D03*
%TO.P,J6,3*%
%TO.N,Net-(J3-Pad1)*%
X210320000Y-50000000D03*
%TO.P,J6,4*%
%TO.N,Net-(J6-Pad4)*%
X212860000Y-50000000D03*
%TO.P,J6,2*%
%TO.N,Net-(J3-Pad2)*%
X207780000Y-50000000D03*
%TO.P,J6,1*%
%TO.N,Net-(J3-Pad3)*%
X205240000Y-50000000D03*
%TD*%
%TO.P,R1,1*%
%TO.N,/Feather_Board/GREEN*%
%TA.AperFunction,SMDPad,CuDef*%
G36*
G01*
X198540000Y-59350000D02*
X197990000Y-59350000D01*
G75*
G02*
X197790000Y-59150000I0J200000D01*
G01*
X197790000Y-58750000D01*
G75*
G02*
X197990000Y-58550000I200000J0D01*
G01*
X198540000Y-58550000D01*
G75*
G02*
X198740000Y-58750000I0J-200000D01*
G01*
X198740000Y-59150000D01*
G75*
G02*
X198540000Y-59350000I-200000J0D01*
G01*
G37*
%TD.AperFunction*%
%TO.P,R1,2*%
%TO.N,Net-(D1-Pad1)*%
%TA.AperFunction,SMDPad,CuDef*%
G36*
G01*
X198540000Y-57700000D02*
X197990000Y-57700000D01*
G75*
G02*
X197790000Y-57500000I0J200000D01*
G01*
X197790000Y-57100000D01*
G75*
G02*
X197990000Y-56900000I200000J0D01*
G01*
X198540000Y-56900000D01*
G75*
G02*
X198740000Y-57100000I0J-200000D01*
G01*
X198740000Y-57500000D01*
G75*
G02*
X198540000Y-57700000I-200000J0D01*
G01*
G37*
%TD.AperFunction*%
%TD*%
%TO.P,R2,2*%
%TO.N,Net-(D1-Pad3)*%
%TA.AperFunction,SMDPad,CuDef*%
G36*
G01*
X195440000Y-53690000D02*
X194890000Y-53690000D01*
G75*
G02*
X194690000Y-53490000I0J200000D01*
G01*
X194690000Y-53090000D01*
G75*
G02*
X194890000Y-52890000I200000J0D01*
G01*
X195440000Y-52890000D01*
G75*
G02*
X195640000Y-53090000I0J-200000D01*
G01*
X195640000Y-53490000D01*
G75*
G02*
X195440000Y-53690000I-200000J0D01*
G01*
G37*
%TD.AperFunction*%
%TO.P,R2,1*%
%TO.N,/Feather_Board/RED*%
%TA.AperFunction,SMDPad,CuDef*%
G36*
G01*
X195440000Y-55340000D02*
X194890000Y-55340000D01*
G75*
G02*
X194690000Y-55140000I0J200000D01*
G01*
X194690000Y-54740000D01*
G75*
G02*
X194890000Y-54540000I200000J0D01*
G01*
X195440000Y-54540000D01*
G75*
G02*
X195640000Y-54740000I0J-200000D01*
G01*
X195640000Y-55140000D01*
G75*
G02*
X195440000Y-55340000I-200000J0D01*
G01*
G37*
%TD.AperFunction*%
%TD*%
%TO.P,R3,2*%
%TO.N,Net-(D1-Pad2)*%
%TA.AperFunction,SMDPad,CuDef*%
G36*
G01*
X204485000Y-53685000D02*
X203935000Y-53685000D01*
G75*
G02*
X203735000Y-53485000I0J200000D01*
G01*
X203735000Y-53085000D01*
G75*
G02*
X203935000Y-52885000I200000J0D01*
G01*
X204485000Y-52885000D01*
G75*
G02*
X204685000Y-53085000I0J-200000D01*
G01*
X204685000Y-53485000D01*
G75*
G02*
X204485000Y-53685000I-200000J0D01*
G01*
G37*
%TD.AperFunction*%
%TO.P,R3,1*%
%TO.N,/Feather_Board/BLUE*%
%TA.AperFunction,SMDPad,CuDef*%
G36*
G01*
X204485000Y-55335000D02*
X203935000Y-55335000D01*
G75*
G02*
X203735000Y-55135000I0J200000D01*
G01*
X203735000Y-54735000D01*
G75*
G02*
X203935000Y-54535000I200000J0D01*
G01*
X204485000Y-54535000D01*
G75*
G02*
X204685000Y-54735000I0J-200000D01*
G01*
X204685000Y-55135000D01*
G75*
G02*
X204485000Y-55335000I-200000J0D01*
G01*
G37*
%TD.AperFunction*%
%TD*%
%TO.P,R4,1*%
%TO.N,+BATT*%
%TA.AperFunction,SMDPad,CuDef*%
G36*
G01*
X201545000Y-59345000D02*
X200995000Y-59345000D01*
G75*
G02*
X200795000Y-59145000I0J200000D01*
G01*
X200795000Y-58745000D01*
G75*
G02*
X200995000Y-58545000I200000J0D01*
G01*
X201545000Y-58545000D01*
G75*
G02*
X201745000Y-58745000I0J-200000D01*
G01*
X201745000Y-59145000D01*
G75*
G02*
X201545000Y-59345000I-200000J0D01*
G01*
G37*
%TD.AperFunction*%
%TO.P,R4,2*%
%TO.N,Net-(D2-Pad2)*%
%TA.AperFunction,SMDPad,CuDef*%
G36*
G01*
X201545000Y-57695000D02*
X200995000Y-57695000D01*
G75*
G02*
X200795000Y-57495000I0J200000D01*
G01*
X200795000Y-57095000D01*
G75*
G02*
X200995000Y-56895000I200000J0D01*
G01*
X201545000Y-56895000D01*
G75*
G02*
X201745000Y-57095000I0J-200000D01*
G01*
X201745000Y-57495000D01*
G75*
G02*
X201545000Y-57695000I-200000J0D01*
G01*
G37*
%TD.AperFunction*%
%TD*%
%TO.P,R5,2*%
%TO.N,+5V*%
%TA.AperFunction,SMDPad,CuDef*%
G36*
G01*
X201545000Y-53665000D02*
X200995000Y-53665000D01*
G75*
G02*
X200795000Y-53465000I0J200000D01*
G01*
X200795000Y-53065000D01*
G75*
G02*
X200995000Y-52865000I200000J0D01*
G01*
X201545000Y-52865000D01*
G75*
G02*
X201745000Y-53065000I0J-200000D01*
G01*
X201745000Y-53465000D01*
G75*
G02*
X201545000Y-53665000I-200000J0D01*
G01*
G37*
%TD.AperFunction*%
%TO.P,R5,1*%
%TO.N,/SDA*%
%TA.AperFunction,SMDPad,CuDef*%
G36*
G01*
X201545000Y-55315000D02*
X200995000Y-55315000D01*
G75*
G02*
X200795000Y-55115000I0J200000D01*
G01*
X200795000Y-54715000D01*
G75*
G02*
X200995000Y-54515000I200000J0D01*
G01*
X201545000Y-54515000D01*
G75*
G02*
X201745000Y-54715000I0J-200000D01*
G01*
X201745000Y-55115000D01*
G75*
G02*
X201545000Y-55315000I-200000J0D01*
G01*
G37*
%TD.AperFunction*%
%TD*%
%TO.P,R6,1*%
%TO.N,+5V*%
%TA.AperFunction,SMDPad,CuDef*%
G36*
G01*
X198540000Y-55340000D02*
X197990000Y-55340000D01*
G75*
G02*
X197790000Y-55140000I0J200000D01*
G01*
X197790000Y-54740000D01*
G75*
G02*
X197990000Y-54540000I200000J0D01*
G01*
X198540000Y-54540000D01*
G75*
G02*
X198740000Y-54740000I0J-200000D01*
G01*
X198740000Y-55140000D01*
G75*
G02*
X198540000Y-55340000I-200000J0D01*
G01*
G37*
%TD.AperFunction*%
%TO.P,R6,2*%
%TO.N,/SCL*%
%TA.AperFunction,SMDPad,CuDef*%
G36*
G01*
X198540000Y-53690000D02*
X197990000Y-53690000D01*
G75*
G02*
X197790000Y-53490000I0J200000D01*
G01*
X197790000Y-53090000D01*
G75*
G02*
X197990000Y-52890000I200000J0D01*
G01*
X198540000Y-52890000D01*
G75*
G02*
X198740000Y-53090000I0J-200000D01*
G01*
X198740000Y-53490000D01*
G75*
G02*
X198540000Y-53690000I-200000J0D01*
G01*
G37*
%TD.AperFunction*%
%TD*%
%TO.P,R7,1*%
%TO.N,/RST*%
%TA.AperFunction,SMDPad,CuDef*%
G36*
G01*
X204485000Y-59360000D02*
X203935000Y-59360000D01*
G75*
G02*
X203735000Y-59160000I0J200000D01*
G01*
X203735000Y-58760000D01*
G75*
G02*
X203935000Y-58560000I200000J0D01*
G01*
X204485000Y-58560000D01*
G75*
G02*
X204685000Y-58760000I0J-200000D01*
G01*
X204685000Y-59160000D01*
G75*
G02*
X204485000Y-59360000I-200000J0D01*
G01*
G37*
%TD.AperFunction*%
%TO.P,R7,2*%
%TO.N,GNDREF*%
%TA.AperFunction,SMDPad,CuDef*%
G36*
G01*
X204485000Y-57710000D02*
X203935000Y-57710000D01*
G75*
G02*
X203735000Y-57510000I0J200000D01*
G01*
X203735000Y-57110000D01*
G75*
G02*
X203935000Y-56910000I200000J0D01*
G01*
X204485000Y-56910000D01*
G75*
G02*
X204685000Y-57110000I0J-200000D01*
G01*
X204685000Y-57510000D01*
G75*
G02*
X204485000Y-57710000I-200000J0D01*
G01*
G37*
%TD.AperFunction*%
%TD*%
D14*
%TO.P,VR1,1*%
%TO.N,GNDREF*%
X206340000Y-63165000D03*
%TO.P,VR1,2*%
%TO.N,+5V*%
X208640000Y-63165000D03*
%TO.P,VR1,3*%
%TO.N,+BATT*%
X210940000Y-63165000D03*
D15*
%TO.P,VR1,4*%
%TO.N,+5V*%
X208640000Y-56995000D03*
%TD*%
D16*
%TO.N,GNDREF*%
X198591000Y-67555400D03*
X184301600Y-55080000D03*
%TO.N,+BATT*%
X199984000Y-58945000D03*
%TO.N,+5V*%
X191822900Y-58091300D03*
%TO.N,Net-(D1-Pad1)*%
X197181300Y-57716800D03*
%TO.N,Net-(D1-Pad3)*%
X196004500Y-54129500D03*
%TO.N,Net-(D1-Pad2)*%
X202898800Y-53285000D03*
%TO.N,Net-(D2-Pad2)*%
X202376200Y-57367500D03*
%TO.N,/SCL*%
X194956500Y-56317200D03*
%TO.N,/RST*%
X196938800Y-61524000D03*
%TO.N,/SDA*%
X218230900Y-67603800D03*
X202348600Y-55399000D03*
X192551800Y-58777200D03*
%TO.N,Net-(J3-Pad1)*%
X209077300Y-50190800D03*
%TO.N,Net-(J3-Pad2)*%
X209050000Y-49131500D03*
%TD*%
D17*
%TO.N,GNDREF*%
X196713300Y-62846700D02*
X194634300Y-60767700D01*
X194634300Y-60767700D02*
X194634300Y-59221900D01*
X194634300Y-59221900D02*
X197323200Y-56533000D01*
X197323200Y-56533000D02*
X203433000Y-56533000D01*
X203433000Y-56533000D02*
X204210000Y-57310000D01*
X196713300Y-62846700D02*
X196965900Y-62594100D01*
X196965900Y-62594100D02*
X199319100Y-62594100D01*
X199319100Y-62594100D02*
X200130000Y-63405000D01*
X196020000Y-63540000D02*
X196713300Y-62846700D01*
X200030000Y-66415000D02*
X200130000Y-66315000D01*
X200130000Y-66315000D02*
X200130000Y-63405000D01*
X198591000Y-67555400D02*
X198889600Y-67555400D01*
X198889600Y-67555400D02*
X200030000Y-66415000D01*
X206340000Y-63042500D02*
X204502500Y-63042500D01*
X204502500Y-63042500D02*
X204140000Y-63405000D01*
X206340000Y-63042500D02*
X206340000Y-62920000D01*
X206340000Y-63165000D02*
X206340000Y-63042500D01*
X206340000Y-62920000D02*
X207830400Y-64410400D01*
X207830400Y-64410400D02*
X209330400Y-64410400D01*
X209330400Y-64410400D02*
X209430400Y-64310400D01*
X209430400Y-64310400D02*
X209430400Y-62801500D01*
X209430400Y-62801500D02*
X212071900Y-60160000D01*
X212071900Y-60160000D02*
X216490000Y-60160000D01*
X204140000Y-63405000D02*
X204140000Y-66315000D01*
X204140000Y-66315000D02*
X204040000Y-66415000D01*
X198591000Y-67555400D02*
X198251700Y-67894700D01*
X198251700Y-67894700D02*
X192540000Y-67894700D01*
X192540000Y-70320000D02*
X192540000Y-67894700D01*
X187460000Y-50000000D02*
X187460000Y-52425300D01*
X187460000Y-52425300D02*
X186956300Y-52425300D01*
X186956300Y-52425300D02*
X184301600Y-55080000D01*
%TO.N,+BATT*%
X201270000Y-58945000D02*
X199984000Y-58945000D01*
X202490000Y-66415000D02*
X201813800Y-65738800D01*
X201813800Y-65738800D02*
X201813800Y-59488800D01*
X201813800Y-59488800D02*
X201270000Y-58945000D01*
X210940000Y-64410300D02*
X208128700Y-67221600D01*
X208128700Y-67221600D02*
X203296600Y-67221600D01*
X203296600Y-67221600D02*
X202490000Y-66415000D01*
X210940000Y-63165000D02*
X210940000Y-64410300D01*
%TO.N,+5V*%
X191822900Y-58091300D02*
X191975500Y-57938700D01*
X191975500Y-57938700D02*
X194484600Y-57938700D01*
X194484600Y-57938700D02*
X197483300Y-54940000D01*
X197483300Y-54940000D02*
X198265000Y-54940000D01*
X191889400Y-66005300D02*
X191822900Y-65938800D01*
X191822900Y-65938800D02*
X191822900Y-58091300D01*
X196020000Y-66240000D02*
X196020000Y-65965000D01*
X196020000Y-65965000D02*
X198580000Y-63405000D01*
X196020000Y-66240000D02*
X192124100Y-66240000D01*
X192124100Y-66240000D02*
X191889400Y-66005300D01*
X190000000Y-67894700D02*
X191889400Y-66005300D01*
X198265000Y-54940000D02*
X199595000Y-54940000D01*
X199595000Y-54940000D02*
X201270000Y-53265000D01*
X206719700Y-56995000D02*
X206006500Y-56281800D01*
X206006500Y-56281800D02*
X204286800Y-56281800D01*
X204286800Y-56281800D02*
X201270000Y-53265000D01*
X206719700Y-56995000D02*
X206719700Y-59999400D01*
X208640000Y-56995000D02*
X206719700Y-56995000D01*
X206719700Y-59999400D02*
X208640000Y-61919700D01*
X202590000Y-63405000D02*
X205995600Y-59999400D01*
X205995600Y-59999400D02*
X206719700Y-59999400D01*
X208640000Y-63165000D02*
X208640000Y-61919700D01*
X190000000Y-70320000D02*
X190000000Y-67894700D01*
%TO.N,Net-(D1-Pad1)*%
X198265000Y-57300000D02*
X197598100Y-57300000D01*
X197598100Y-57300000D02*
X197181300Y-57716800D01*
%TO.N,Net-(D1-Pad3)*%
X195165000Y-53290000D02*
X196004500Y-54129500D01*
%TO.N,Net-(D1-Pad2)*%
X204210000Y-53285000D02*
X202898800Y-53285000D01*
%TO.N,Net-(D2-Pad2)*%
X201270000Y-57295000D02*
X202303700Y-57295000D01*
X202303700Y-57295000D02*
X202376200Y-57367500D01*
%TO.N,/SCL*%
X194956500Y-56317200D02*
X195237800Y-56317200D01*
X195237800Y-56317200D02*
X198265000Y-53290000D01*
X198265000Y-53290000D02*
X199019100Y-52535900D01*
X199019100Y-52535900D02*
X211472500Y-52535900D01*
X211472500Y-52535900D02*
X218340000Y-59403400D01*
X218340000Y-59403400D02*
X218340000Y-62532000D01*
X218340000Y-62532000D02*
X215400000Y-65472000D01*
X215400000Y-65472000D02*
X215400000Y-70320000D01*
%TO.N,/RST*%
X197462600Y-61000200D02*
X196938800Y-61524000D01*
X204210000Y-58960000D02*
X203452100Y-58202100D01*
X203452100Y-58202100D02*
X197758400Y-58202100D01*
X197758400Y-58202100D02*
X197462600Y-58497900D01*
X197462600Y-58497900D02*
X197462600Y-61000200D01*
X197462600Y-61000200D02*
X198981000Y-61000200D01*
X198981000Y-61000200D02*
X200906200Y-62925400D01*
X200906200Y-62925400D02*
X200906200Y-67148500D01*
X200906200Y-67148500D02*
X200160000Y-67894700D01*
X200160000Y-70320000D02*
X200160000Y-67894700D01*
%TO.N,/SDA*%
X192551800Y-58777200D02*
X194432900Y-58777200D01*
X194432900Y-58777200D02*
X197127500Y-56082600D01*
X197127500Y-56082600D02*
X200102400Y-56082600D01*
X200102400Y-56082600D02*
X201270000Y-54915000D01*
X218230900Y-67603800D02*
X217940000Y-67894700D01*
X201270000Y-54915000D02*
X201864600Y-54915000D01*
X201864600Y-54915000D02*
X202348600Y-55399000D01*
X217940000Y-70320000D02*
X217940000Y-67894700D01*
%TO.N,Net-(J3-Pad1)*%
X210320000Y-50000000D02*
X209268100Y-50000000D01*
X209268100Y-50000000D02*
X209077300Y-50190800D01*
%TO.N,Net-(J3-Pad2)*%
X209050000Y-49131500D02*
X208648500Y-49131500D01*
X208648500Y-49131500D02*
X207780000Y-50000000D01*
%TO.N,Net-(J3-Pad3)*%
X177040000Y-61430000D02*
X178215300Y-61430000D01*
X178215300Y-61430000D02*
X178215300Y-61062600D01*
X178215300Y-61062600D02*
X179023200Y-60254700D01*
X179023200Y-60254700D02*
X186259900Y-60254700D01*
X186259900Y-60254700D02*
X193950800Y-52563800D01*
X193950800Y-52563800D02*
X198332000Y-52563800D01*
X198332000Y-52563800D02*
X200895800Y-50000000D01*
X200895800Y-50000000D02*
X205240000Y-50000000D01*
%TO.N,Net-(J3-Pad4)*%
X177040000Y-58890000D02*
X178215300Y-58890000D01*
X192540000Y-50000000D02*
X192540000Y-52425300D01*
X192540000Y-52425300D02*
X187250600Y-57714700D01*
X187250600Y-57714700D02*
X179023200Y-57714700D01*
X179023200Y-57714700D02*
X178215300Y-58522600D01*
X178215300Y-58522600D02*
X178215300Y-58890000D01*
%TO.N,Net-(J3-Pad5)*%
X179840000Y-50000000D02*
X179840000Y-52425300D01*
X179840000Y-52425300D02*
X175856400Y-56408900D01*
X175856400Y-56408900D02*
X175856400Y-61973300D01*
X175856400Y-61973300D02*
X176514000Y-62630900D01*
X176514000Y-62630900D02*
X178379100Y-62630900D01*
X178379100Y-62630900D02*
X179580000Y-61430000D01*
%TO.N,Net-(J3-Pad6)*%
X217940000Y-47574700D02*
X194302200Y-47574700D01*
X194302200Y-47574700D02*
X193500400Y-48376500D01*
X193500400Y-48376500D02*
X193500400Y-52237200D01*
X193500400Y-52237200D02*
X186847600Y-58890000D01*
X186847600Y-58890000D02*
X180755300Y-58890000D01*
X179580000Y-58890000D02*
X180755300Y-58890000D01*
X217940000Y-50000000D02*
X217940000Y-47574700D01*
%TO.N,/Feather_Board/GREEN*%
X207780000Y-70320000D02*
X207780000Y-67894700D01*
X198265000Y-58950000D02*
X201356600Y-62041600D01*
X201356600Y-62041600D02*
X201356600Y-66597100D01*
X201356600Y-66597100D02*
X202654200Y-67894700D01*
X202654200Y-67894700D02*
X207780000Y-67894700D01*
%TO.N,/Feather_Board/RED*%
X205240000Y-72745300D02*
X189184000Y-72745300D01*
X189184000Y-72745300D02*
X189039600Y-72600900D01*
X189039600Y-72600900D02*
X189039600Y-59848500D01*
X189039600Y-59848500D02*
X193948100Y-54940000D01*
X193948100Y-54940000D02*
X195165000Y-54940000D01*
X205240000Y-70320000D02*
X205240000Y-72745300D01*
%TO.N,/Feather_Board/BLUE*%
X204210000Y-54935000D02*
X213198300Y-54935000D01*
X213198300Y-54935000D02*
X217864400Y-59601100D01*
X217864400Y-59601100D02*
X217864400Y-60688200D01*
X217864400Y-60688200D02*
X210657900Y-67894700D01*
X210657900Y-67894700D02*
X210320000Y-67894700D01*
X210320000Y-70320000D02*
X210320000Y-67894700D01*
%TD*%
M02*
