%TF.GenerationSoftware,KiCad,Pcbnew,(5.1.9)-1*%
%TF.CreationDate,2021-09-30T02:45:08-04:00*%
%TF.ProjectId,p21014,70323130-3134-42e6-9b69-6361645f7063,rev?*%
%TF.SameCoordinates,Original*%
%TF.FileFunction,Copper,L1,Top*%
%TF.FilePolarity,Positive*%
%FSLAX46Y46*%
G04 Gerber Fmt 4.6, Leading zero omitted, Abs format (unit mm)*
G04 Created by KiCad (PCBNEW (5.1.9)-1) date 2021-09-30 02:45:08*
%MOMM*%
%LPD*%
G01*
G04 APERTURE LIST*
%TA.AperFunction,ComponentPad*%
%ADD10C,2.040000*%
%TD*%
%TA.AperFunction,ComponentPad*%
%ADD11R,1.700000X1.700000*%
%TD*%
%TA.AperFunction,ComponentPad*%
%ADD12O,1.700000X1.700000*%
%TD*%
%TA.AperFunction,SMDPad,CuDef*%
%ADD13R,1.270000X4.200000*%
%TD*%
%TA.AperFunction,SMDPad,CuDef*%
%ADD14R,0.930000X1.840000*%
%TD*%
%TA.AperFunction,SMDPad,CuDef*%
%ADD15R,3.190000X1.840000*%
%TD*%
%TA.AperFunction,ViaPad*%
%ADD16C,0.800000*%
%TD*%
%TA.AperFunction,Conductor*%
%ADD17C,0.250000*%
%TD*%
G04 APERTURE END LIST*
D10*
%TO.P,BT1,2*%
%TO.N,GNDREF*%
X216490000Y-60160000D03*
%TO.P,BT1,1*%
%TO.N,Net-(BT1-Pad1)*%
X196000000Y-60160000D03*
%TD*%
%TO.P,C1,1*%
%TO.N,+BATT*%
%TA.AperFunction,SMDPad,CuDef*%
G36*
G01*
X202040000Y-66665000D02*
X202040000Y-66165000D01*
G75*
G02*
X202265000Y-65940000I225000J0D01*
G01*
X202715000Y-65940000D01*
G75*
G02*
X202940000Y-66165000I0J-225000D01*
G01*
X202940000Y-66665000D01*
G75*
G02*
X202715000Y-66890000I-225000J0D01*
G01*
X202265000Y-66890000D01*
G75*
G02*
X202040000Y-66665000I0J225000D01*
G01*
G37*
%TD.AperFunction*%
%TO.P,C1,2*%
%TO.N,GNDREF*%
%TA.AperFunction,SMDPad,CuDef*%
G36*
G01*
X203590000Y-66665000D02*
X203590000Y-66165000D01*
G75*
G02*
X203815000Y-65940000I225000J0D01*
G01*
X204265000Y-65940000D01*
G75*
G02*
X204490000Y-66165000I0J-225000D01*
G01*
X204490000Y-66665000D01*
G75*
G02*
X204265000Y-66890000I-225000J0D01*
G01*
X203815000Y-66890000D01*
G75*
G02*
X203590000Y-66665000I0J225000D01*
G01*
G37*
%TD.AperFunction*%
%TD*%
%TO.P,C2,2*%
%TO.N,GNDREF*%
%TA.AperFunction,SMDPad,CuDef*%
G36*
G01*
X203690000Y-63655000D02*
X203690000Y-63155000D01*
G75*
G02*
X203915000Y-62930000I225000J0D01*
G01*
X204365000Y-62930000D01*
G75*
G02*
X204590000Y-63155000I0J-225000D01*
G01*
X204590000Y-63655000D01*
G75*
G02*
X204365000Y-63880000I-225000J0D01*
G01*
X203915000Y-63880000D01*
G75*
G02*
X203690000Y-63655000I0J225000D01*
G01*
G37*
%TD.AperFunction*%
%TO.P,C2,1*%
%TO.N,+5V*%
%TA.AperFunction,SMDPad,CuDef*%
G36*
G01*
X202140000Y-63655000D02*
X202140000Y-63155000D01*
G75*
G02*
X202365000Y-62930000I225000J0D01*
G01*
X202815000Y-62930000D01*
G75*
G02*
X203040000Y-63155000I0J-225000D01*
G01*
X203040000Y-63655000D01*
G75*
G02*
X202815000Y-63880000I-225000J0D01*
G01*
X202365000Y-63880000D01*
G75*
G02*
X202140000Y-63655000I0J225000D01*
G01*
G37*
%TD.AperFunction*%
%TD*%
%TO.P,C3,1*%
%TO.N,Net-(C3-Pad1)*%
%TA.AperFunction,SMDPad,CuDef*%
G36*
G01*
X198030000Y-66665000D02*
X198030000Y-66165000D01*
G75*
G02*
X198255000Y-65940000I225000J0D01*
G01*
X198705000Y-65940000D01*
G75*
G02*
X198930000Y-66165000I0J-225000D01*
G01*
X198930000Y-66665000D01*
G75*
G02*
X198705000Y-66890000I-225000J0D01*
G01*
X198255000Y-66890000D01*
G75*
G02*
X198030000Y-66665000I0J225000D01*
G01*
G37*
%TD.AperFunction*%
%TO.P,C3,2*%
%TO.N,GNDREF*%
%TA.AperFunction,SMDPad,CuDef*%
G36*
G01*
X199580000Y-66665000D02*
X199580000Y-66165000D01*
G75*
G02*
X199805000Y-65940000I225000J0D01*
G01*
X200255000Y-65940000D01*
G75*
G02*
X200480000Y-66165000I0J-225000D01*
G01*
X200480000Y-66665000D01*
G75*
G02*
X200255000Y-66890000I-225000J0D01*
G01*
X199805000Y-66890000D01*
G75*
G02*
X199580000Y-66665000I0J225000D01*
G01*
G37*
%TD.AperFunction*%
%TD*%
%TO.P,C4,2*%
%TO.N,GNDREF*%
%TA.AperFunction,SMDPad,CuDef*%
G36*
G01*
X199680000Y-63655000D02*
X199680000Y-63155000D01*
G75*
G02*
X199905000Y-62930000I225000J0D01*
G01*
X200355000Y-62930000D01*
G75*
G02*
X200580000Y-63155000I0J-225000D01*
G01*
X200580000Y-63655000D01*
G75*
G02*
X200355000Y-63880000I-225000J0D01*
G01*
X199905000Y-63880000D01*
G75*
G02*
X199680000Y-63655000I0J225000D01*
G01*
G37*
%TD.AperFunction*%
%TO.P,C4,1*%
%TO.N,+5V*%
%TA.AperFunction,SMDPad,CuDef*%
G36*
G01*
X198130000Y-63655000D02*
X198130000Y-63155000D01*
G75*
G02*
X198355000Y-62930000I225000J0D01*
G01*
X198805000Y-62930000D01*
G75*
G02*
X199030000Y-63155000I0J-225000D01*
G01*
X199030000Y-63655000D01*
G75*
G02*
X198805000Y-63880000I-225000J0D01*
G01*
X198355000Y-63880000D01*
G75*
G02*
X198130000Y-63655000I0J225000D01*
G01*
G37*
%TD.AperFunction*%
%TD*%
%TO.P,C5,1*%
%TO.N,+5V*%
%TA.AperFunction,SMDPad,CuDef*%
G36*
G01*
X196445001Y-66940000D02*
X195594999Y-66940000D01*
G75*
G02*
X195345000Y-66690001I0J249999D01*
G01*
X195345000Y-65789999D01*
G75*
G02*
X195594999Y-65540000I249999J0D01*
G01*
X196445001Y-65540000D01*
G75*
G02*
X196695000Y-65789999I0J-249999D01*
G01*
X196695000Y-66690001D01*
G75*
G02*
X196445001Y-66940000I-249999J0D01*
G01*
G37*
%TD.AperFunction*%
%TO.P,C5,2*%
%TO.N,GNDREF*%
%TA.AperFunction,SMDPad,CuDef*%
G36*
G01*
X196445001Y-64240000D02*
X195594999Y-64240000D01*
G75*
G02*
X195345000Y-63990001I0J249999D01*
G01*
X195345000Y-63089999D01*
G75*
G02*
X195594999Y-62840000I249999J0D01*
G01*
X196445001Y-62840000D01*
G75*
G02*
X196695000Y-63089999I0J-249999D01*
G01*
X196695000Y-63990001D01*
G75*
G02*
X196445001Y-64240000I-249999J0D01*
G01*
G37*
%TD.AperFunction*%
%TD*%
D11*
%TO.P,J3,1*%
%TO.N,Net-(J3-Pad1)*%
X174500000Y-61430000D03*
D12*
%TO.P,J3,2*%
%TO.N,Net-(J3-Pad2)*%
X174500000Y-58890000D03*
%TO.P,J3,3*%
%TO.N,Net-(J3-Pad3)*%
X177040000Y-61430000D03*
%TO.P,J3,4*%
%TO.N,Net-(J3-Pad4)*%
X177040000Y-58890000D03*
%TO.P,J3,5*%
%TO.N,Net-(J3-Pad5)*%
X179580000Y-61430000D03*
%TO.P,J3,6*%
%TO.N,Net-(J3-Pad6)*%
X179580000Y-58890000D03*
%TD*%
D13*
%TO.P,J4,1*%
%TO.N,Net-(J3-Pad5)*%
X179840000Y-70320000D03*
%TO.P,J4,2*%
%TO.N,Net-(J4-Pad2)*%
X182380000Y-70320000D03*
%TO.P,J4,4*%
%TO.N,GNDREF*%
X187460000Y-70320000D03*
%TO.P,J4,3*%
%TO.N,Net-(J4-Pad3)*%
X184920000Y-70320000D03*
%TO.P,J4,6*%
%TO.N,Net-(J3-Pad4)*%
X192540000Y-70320000D03*
%TO.P,J4,5*%
%TO.N,Net-(J4-Pad5)*%
X190000000Y-70320000D03*
%TO.P,J4,8*%
%TO.N,Net-(J4-Pad8)*%
X197620000Y-70320000D03*
%TO.P,J4,7*%
%TO.N,Net-(J4-Pad7)*%
X195080000Y-70320000D03*
%TD*%
%TO.P,J5,1*%
%TO.N,+5V*%
X190000000Y-50000000D03*
%TO.P,J5,2*%
%TO.N,GNDREF*%
X192540000Y-50000000D03*
%TO.P,J5,4*%
%TO.N,Net-(J5-Pad4)*%
X197620000Y-50000000D03*
%TO.P,J5,3*%
%TO.N,Net-(J5-Pad3)*%
X195080000Y-50000000D03*
%TO.P,J5,6*%
%TO.N,Net-(J5-Pad6)*%
X202700000Y-50000000D03*
%TO.P,J5,5*%
%TO.N,/RST*%
X200160000Y-50000000D03*
%TO.P,J5,8*%
%TO.N,/Feather_Board/GREEN*%
X207780000Y-50000000D03*
%TO.P,J5,10*%
%TO.N,Net-(J5-Pad10)*%
X212860000Y-50000000D03*
%TO.P,J5,7*%
%TO.N,/Feather_Board/RED*%
X205240000Y-50000000D03*
%TO.P,J5,11*%
%TO.N,/SCL*%
X215400000Y-50000000D03*
%TO.P,J5,12*%
%TO.N,/SDA*%
X217940000Y-50000000D03*
%TO.P,J5,9*%
%TO.N,/Feather_Board/BLUE*%
X210320000Y-50000000D03*
%TD*%
%TO.P,J6,1*%
%TO.N,Net-(J3-Pad3)*%
X205240000Y-70320000D03*
%TO.P,J6,2*%
%TO.N,Net-(J3-Pad2)*%
X207780000Y-70320000D03*
%TO.P,J6,4*%
%TO.N,Net-(J6-Pad4)*%
X212860000Y-70320000D03*
%TO.P,J6,3*%
%TO.N,Net-(J3-Pad1)*%
X210320000Y-70320000D03*
%TO.P,J6,6*%
%TO.N,Net-(J3-Pad6)*%
X217940000Y-70320000D03*
%TO.P,J6,5*%
%TO.N,Net-(J6-Pad5)*%
X215400000Y-70320000D03*
%TD*%
%TO.P,R1,1*%
%TO.N,/Feather_Board/GREEN*%
%TA.AperFunction,SMDPad,CuDef*%
G36*
G01*
X198540000Y-59350000D02*
X197990000Y-59350000D01*
G75*
G02*
X197790000Y-59150000I0J200000D01*
G01*
X197790000Y-58750000D01*
G75*
G02*
X197990000Y-58550000I200000J0D01*
G01*
X198540000Y-58550000D01*
G75*
G02*
X198740000Y-58750000I0J-200000D01*
G01*
X198740000Y-59150000D01*
G75*
G02*
X198540000Y-59350000I-200000J0D01*
G01*
G37*
%TD.AperFunction*%
%TO.P,R1,2*%
%TO.N,Net-(D1-Pad1)*%
%TA.AperFunction,SMDPad,CuDef*%
G36*
G01*
X198540000Y-57700000D02*
X197990000Y-57700000D01*
G75*
G02*
X197790000Y-57500000I0J200000D01*
G01*
X197790000Y-57100000D01*
G75*
G02*
X197990000Y-56900000I200000J0D01*
G01*
X198540000Y-56900000D01*
G75*
G02*
X198740000Y-57100000I0J-200000D01*
G01*
X198740000Y-57500000D01*
G75*
G02*
X198540000Y-57700000I-200000J0D01*
G01*
G37*
%TD.AperFunction*%
%TD*%
%TO.P,R2,2*%
%TO.N,Net-(D1-Pad3)*%
%TA.AperFunction,SMDPad,CuDef*%
G36*
G01*
X195440000Y-53690000D02*
X194890000Y-53690000D01*
G75*
G02*
X194690000Y-53490000I0J200000D01*
G01*
X194690000Y-53090000D01*
G75*
G02*
X194890000Y-52890000I200000J0D01*
G01*
X195440000Y-52890000D01*
G75*
G02*
X195640000Y-53090000I0J-200000D01*
G01*
X195640000Y-53490000D01*
G75*
G02*
X195440000Y-53690000I-200000J0D01*
G01*
G37*
%TD.AperFunction*%
%TO.P,R2,1*%
%TO.N,/Feather_Board/RED*%
%TA.AperFunction,SMDPad,CuDef*%
G36*
G01*
X195440000Y-55340000D02*
X194890000Y-55340000D01*
G75*
G02*
X194690000Y-55140000I0J200000D01*
G01*
X194690000Y-54740000D01*
G75*
G02*
X194890000Y-54540000I200000J0D01*
G01*
X195440000Y-54540000D01*
G75*
G02*
X195640000Y-54740000I0J-200000D01*
G01*
X195640000Y-55140000D01*
G75*
G02*
X195440000Y-55340000I-200000J0D01*
G01*
G37*
%TD.AperFunction*%
%TD*%
%TO.P,R3,2*%
%TO.N,Net-(D1-Pad2)*%
%TA.AperFunction,SMDPad,CuDef*%
G36*
G01*
X204485000Y-53685000D02*
X203935000Y-53685000D01*
G75*
G02*
X203735000Y-53485000I0J200000D01*
G01*
X203735000Y-53085000D01*
G75*
G02*
X203935000Y-52885000I200000J0D01*
G01*
X204485000Y-52885000D01*
G75*
G02*
X204685000Y-53085000I0J-200000D01*
G01*
X204685000Y-53485000D01*
G75*
G02*
X204485000Y-53685000I-200000J0D01*
G01*
G37*
%TD.AperFunction*%
%TO.P,R3,1*%
%TO.N,/Feather_Board/BLUE*%
%TA.AperFunction,SMDPad,CuDef*%
G36*
G01*
X204485000Y-55335000D02*
X203935000Y-55335000D01*
G75*
G02*
X203735000Y-55135000I0J200000D01*
G01*
X203735000Y-54735000D01*
G75*
G02*
X203935000Y-54535000I200000J0D01*
G01*
X204485000Y-54535000D01*
G75*
G02*
X204685000Y-54735000I0J-200000D01*
G01*
X204685000Y-55135000D01*
G75*
G02*
X204485000Y-55335000I-200000J0D01*
G01*
G37*
%TD.AperFunction*%
%TD*%
%TO.P,R4,1*%
%TO.N,+BATT*%
%TA.AperFunction,SMDPad,CuDef*%
G36*
G01*
X201545000Y-59345000D02*
X200995000Y-59345000D01*
G75*
G02*
X200795000Y-59145000I0J200000D01*
G01*
X200795000Y-58745000D01*
G75*
G02*
X200995000Y-58545000I200000J0D01*
G01*
X201545000Y-58545000D01*
G75*
G02*
X201745000Y-58745000I0J-200000D01*
G01*
X201745000Y-59145000D01*
G75*
G02*
X201545000Y-59345000I-200000J0D01*
G01*
G37*
%TD.AperFunction*%
%TO.P,R4,2*%
%TO.N,Net-(D2-Pad2)*%
%TA.AperFunction,SMDPad,CuDef*%
G36*
G01*
X201545000Y-57695000D02*
X200995000Y-57695000D01*
G75*
G02*
X200795000Y-57495000I0J200000D01*
G01*
X200795000Y-57095000D01*
G75*
G02*
X200995000Y-56895000I200000J0D01*
G01*
X201545000Y-56895000D01*
G75*
G02*
X201745000Y-57095000I0J-200000D01*
G01*
X201745000Y-57495000D01*
G75*
G02*
X201545000Y-57695000I-200000J0D01*
G01*
G37*
%TD.AperFunction*%
%TD*%
%TO.P,R5,2*%
%TO.N,+5V*%
%TA.AperFunction,SMDPad,CuDef*%
G36*
G01*
X201545000Y-53665000D02*
X200995000Y-53665000D01*
G75*
G02*
X200795000Y-53465000I0J200000D01*
G01*
X200795000Y-53065000D01*
G75*
G02*
X200995000Y-52865000I200000J0D01*
G01*
X201545000Y-52865000D01*
G75*
G02*
X201745000Y-53065000I0J-200000D01*
G01*
X201745000Y-53465000D01*
G75*
G02*
X201545000Y-53665000I-200000J0D01*
G01*
G37*
%TD.AperFunction*%
%TO.P,R5,1*%
%TO.N,/SDA*%
%TA.AperFunction,SMDPad,CuDef*%
G36*
G01*
X201545000Y-55315000D02*
X200995000Y-55315000D01*
G75*
G02*
X200795000Y-55115000I0J200000D01*
G01*
X200795000Y-54715000D01*
G75*
G02*
X200995000Y-54515000I200000J0D01*
G01*
X201545000Y-54515000D01*
G75*
G02*
X201745000Y-54715000I0J-200000D01*
G01*
X201745000Y-55115000D01*
G75*
G02*
X201545000Y-55315000I-200000J0D01*
G01*
G37*
%TD.AperFunction*%
%TD*%
%TO.P,R6,1*%
%TO.N,+5V*%
%TA.AperFunction,SMDPad,CuDef*%
G36*
G01*
X198540000Y-55340000D02*
X197990000Y-55340000D01*
G75*
G02*
X197790000Y-55140000I0J200000D01*
G01*
X197790000Y-54740000D01*
G75*
G02*
X197990000Y-54540000I200000J0D01*
G01*
X198540000Y-54540000D01*
G75*
G02*
X198740000Y-54740000I0J-200000D01*
G01*
X198740000Y-55140000D01*
G75*
G02*
X198540000Y-55340000I-200000J0D01*
G01*
G37*
%TD.AperFunction*%
%TO.P,R6,2*%
%TO.N,/SCL*%
%TA.AperFunction,SMDPad,CuDef*%
G36*
G01*
X198540000Y-53690000D02*
X197990000Y-53690000D01*
G75*
G02*
X197790000Y-53490000I0J200000D01*
G01*
X197790000Y-53090000D01*
G75*
G02*
X197990000Y-52890000I200000J0D01*
G01*
X198540000Y-52890000D01*
G75*
G02*
X198740000Y-53090000I0J-200000D01*
G01*
X198740000Y-53490000D01*
G75*
G02*
X198540000Y-53690000I-200000J0D01*
G01*
G37*
%TD.AperFunction*%
%TD*%
%TO.P,R7,1*%
%TO.N,/RST*%
%TA.AperFunction,SMDPad,CuDef*%
G36*
G01*
X204485000Y-59360000D02*
X203935000Y-59360000D01*
G75*
G02*
X203735000Y-59160000I0J200000D01*
G01*
X203735000Y-58760000D01*
G75*
G02*
X203935000Y-58560000I200000J0D01*
G01*
X204485000Y-58560000D01*
G75*
G02*
X204685000Y-58760000I0J-200000D01*
G01*
X204685000Y-59160000D01*
G75*
G02*
X204485000Y-59360000I-200000J0D01*
G01*
G37*
%TD.AperFunction*%
%TO.P,R7,2*%
%TO.N,GNDREF*%
%TA.AperFunction,SMDPad,CuDef*%
G36*
G01*
X204485000Y-57710000D02*
X203935000Y-57710000D01*
G75*
G02*
X203735000Y-57510000I0J200000D01*
G01*
X203735000Y-57110000D01*
G75*
G02*
X203935000Y-56910000I200000J0D01*
G01*
X204485000Y-56910000D01*
G75*
G02*
X204685000Y-57110000I0J-200000D01*
G01*
X204685000Y-57510000D01*
G75*
G02*
X204485000Y-57710000I-200000J0D01*
G01*
G37*
%TD.AperFunction*%
%TD*%
D14*
%TO.P,VR1,1*%
%TO.N,GNDREF*%
X206340000Y-63165000D03*
%TO.P,VR1,2*%
%TO.N,+5V*%
X208640000Y-63165000D03*
%TO.P,VR1,3*%
%TO.N,+BATT*%
X210940000Y-63165000D03*
D15*
%TO.P,VR1,4*%
%TO.N,+5V*%
X208640000Y-56995000D03*
%TD*%
D16*
%TO.N,GNDREF*%
X188730000Y-70701100D03*
X192131700Y-53586700D03*
%TO.N,+BATT*%
X201176900Y-59969600D03*
%TO.N,+5V*%
X189748900Y-52710300D03*
%TO.N,Net-(D1-Pad1)*%
X195273000Y-57881100D03*
%TO.N,Net-(D1-Pad3)*%
X196247900Y-53290000D03*
%TO.N,Net-(D1-Pad2)*%
X202604200Y-53285000D03*
%TO.N,Net-(D2-Pad2)*%
X202071200Y-61152000D03*
%TO.N,/SCL*%
X199400500Y-53290000D03*
X205290300Y-55200900D03*
%TO.N,/RST*%
X205326100Y-58960000D03*
X201430000Y-49243400D03*
%TO.N,/SDA*%
X193939300Y-58146100D03*
%TO.N,Net-(J3-Pad1)*%
X209050000Y-71076400D03*
%TO.N,Net-(J3-Pad3)*%
X198890800Y-72174300D03*
%TO.N,Net-(J3-Pad6)*%
X216670000Y-71076400D03*
%TD*%
D17*
%TO.N,GNDREF*%
X206340000Y-61919700D02*
X206340000Y-58880700D01*
X206340000Y-58880700D02*
X204769300Y-57310000D01*
X204769300Y-57310000D02*
X204210000Y-57310000D01*
X188730000Y-70701100D02*
X187841100Y-70701100D01*
X187841100Y-70701100D02*
X187460000Y-70320000D01*
X211771700Y-61919700D02*
X211771700Y-64219700D01*
X211771700Y-64219700D02*
X209576400Y-66415000D01*
X209576400Y-66415000D02*
X204040000Y-66415000D01*
X211771700Y-61919700D02*
X213531400Y-60160000D01*
X213531400Y-60160000D02*
X216490000Y-60160000D01*
X206340000Y-61919700D02*
X211771700Y-61919700D01*
X206340000Y-63165000D02*
X206340000Y-61919700D01*
X204140000Y-63405000D02*
X204380000Y-63165000D01*
X204380000Y-63165000D02*
X206340000Y-63165000D01*
X204040000Y-66415000D02*
X203238700Y-67216300D01*
X203238700Y-67216300D02*
X200831300Y-67216300D01*
X200831300Y-67216300D02*
X200030000Y-66415000D01*
X192540000Y-50000000D02*
X192540000Y-52425300D01*
X192131700Y-53586700D02*
X192131700Y-52833600D01*
X192131700Y-52833600D02*
X192540000Y-52425300D01*
X199329700Y-64261300D02*
X199329700Y-65714700D01*
X199329700Y-65714700D02*
X200030000Y-66415000D01*
X200130000Y-63405000D02*
X199329700Y-64205300D01*
X199329700Y-64205300D02*
X199329700Y-64261300D01*
X199329700Y-64261300D02*
X196741300Y-64261300D01*
X196741300Y-64261300D02*
X196020000Y-63540000D01*
%TO.N,+BATT*%
X203394700Y-65510300D02*
X202490000Y-66415000D01*
X210940000Y-64410300D02*
X210168600Y-65181700D01*
X210168600Y-65181700D02*
X203723300Y-65181700D01*
X203723300Y-65181700D02*
X203394700Y-65510300D01*
X201176900Y-59969600D02*
X201176900Y-63292600D01*
X201176900Y-63292600D02*
X203394700Y-65510300D01*
X201270000Y-58945000D02*
X201270000Y-59876500D01*
X201270000Y-59876500D02*
X201176900Y-59969600D01*
X210940000Y-63165000D02*
X210940000Y-64410300D01*
%TO.N,+5V*%
X198265000Y-54940000D02*
X199262000Y-54940000D01*
X199262000Y-54940000D02*
X200937000Y-53265000D01*
X200937000Y-53265000D02*
X201270000Y-53265000D01*
X193160900Y-55685500D02*
X197519500Y-55685500D01*
X197519500Y-55685500D02*
X198265000Y-54940000D01*
X189989900Y-52514400D02*
X193160900Y-55685500D01*
X193160900Y-55685500D02*
X193160900Y-60355900D01*
X193160900Y-60355900D02*
X195307300Y-62502300D01*
X195307300Y-62502300D02*
X194992200Y-62817400D01*
X194992200Y-62817400D02*
X194992200Y-65212200D01*
X194992200Y-65212200D02*
X196020000Y-66240000D01*
X197900000Y-62502300D02*
X195307300Y-62502300D01*
X197900000Y-62502300D02*
X197900000Y-62725000D01*
X197900000Y-62725000D02*
X198580000Y-63405000D01*
X202880000Y-57375000D02*
X202073800Y-56568800D01*
X202073800Y-56568800D02*
X200710200Y-56568800D01*
X200710200Y-56568800D02*
X200201600Y-57077400D01*
X200201600Y-57077400D02*
X200201600Y-60200700D01*
X200201600Y-60200700D02*
X197900000Y-62502300D01*
X189989900Y-52514400D02*
X189794000Y-52710300D01*
X189794000Y-52710300D02*
X189748900Y-52710300D01*
X190000000Y-52425300D02*
X190000000Y-52504300D01*
X190000000Y-52504300D02*
X189989900Y-52514400D01*
X208640000Y-63165000D02*
X208640000Y-64410300D01*
X202735000Y-63260000D02*
X203885300Y-64410300D01*
X203885300Y-64410300D02*
X208640000Y-64410300D01*
X202735000Y-63260000D02*
X202590000Y-63405000D01*
X202880000Y-57375000D02*
X202880000Y-63115000D01*
X202880000Y-63115000D02*
X202735000Y-63260000D01*
X206719700Y-56995000D02*
X206263100Y-56538400D01*
X206263100Y-56538400D02*
X203716600Y-56538400D01*
X203716600Y-56538400D02*
X202880000Y-57375000D01*
X208640000Y-56995000D02*
X206719700Y-56995000D01*
X190000000Y-50000000D02*
X190000000Y-52425300D01*
%TO.N,Net-(D1-Pad1)*%
X198265000Y-57300000D02*
X197683900Y-57881100D01*
X197683900Y-57881100D02*
X195273000Y-57881100D01*
%TO.N,Net-(D1-Pad3)*%
X195165000Y-53290000D02*
X196247900Y-53290000D01*
%TO.N,Net-(D1-Pad2)*%
X204210000Y-53285000D02*
X202604200Y-53285000D01*
%TO.N,Net-(D2-Pad2)*%
X201270000Y-57295000D02*
X202071200Y-58096200D01*
X202071200Y-58096200D02*
X202071200Y-61152000D01*
%TO.N,/SCL*%
X215400000Y-52425300D02*
X212624400Y-55200900D01*
X212624400Y-55200900D02*
X205290300Y-55200900D01*
X198265000Y-53290000D02*
X199400500Y-53290000D01*
X215400000Y-50000000D02*
X215400000Y-52425300D01*
%TO.N,/RST*%
X204210000Y-58960000D02*
X205326100Y-58960000D01*
X201430000Y-49243400D02*
X200916600Y-49243400D01*
X200916600Y-49243400D02*
X200160000Y-50000000D01*
%TO.N,/SDA*%
X201270000Y-55427100D02*
X201822400Y-55979500D01*
X201822400Y-55979500D02*
X206054100Y-55979500D01*
X206054100Y-55979500D02*
X206363400Y-55670200D01*
X206363400Y-55670200D02*
X214695100Y-55670200D01*
X214695100Y-55670200D02*
X217940000Y-52425300D01*
X201270000Y-55427100D02*
X201198600Y-55427100D01*
X201198600Y-55427100D02*
X199751200Y-56874500D01*
X199751200Y-56874500D02*
X199751200Y-58682600D01*
X199751200Y-58682600D02*
X198712700Y-59721100D01*
X198712700Y-59721100D02*
X197804400Y-59721100D01*
X197804400Y-59721100D02*
X196700800Y-58617500D01*
X196700800Y-58617500D02*
X194410700Y-58617500D01*
X194410700Y-58617500D02*
X193939300Y-58146100D01*
X201270000Y-55427100D02*
X201270000Y-54915000D01*
X217940000Y-50000000D02*
X217940000Y-52425300D01*
%TO.N,Net-(J3-Pad1)*%
X210320000Y-70320000D02*
X209806400Y-70320000D01*
X209806400Y-70320000D02*
X209050000Y-71076400D01*
%TO.N,Net-(J3-Pad2)*%
X174500000Y-58890000D02*
X175675300Y-58890000D01*
X207780000Y-70320000D02*
X207780000Y-67894700D01*
X207780000Y-67894700D02*
X195941200Y-67894700D01*
X195941200Y-67894700D02*
X185761200Y-57714700D01*
X185761200Y-57714700D02*
X176483200Y-57714700D01*
X176483200Y-57714700D02*
X175675300Y-58522600D01*
X175675300Y-58522600D02*
X175675300Y-58890000D01*
%TO.N,Net-(J3-Pad3)*%
X205240000Y-70320000D02*
X200745100Y-70320000D01*
X200745100Y-70320000D02*
X198890800Y-72174300D01*
%TO.N,Net-(J3-Pad4)*%
X177040000Y-58890000D02*
X178215300Y-58890000D01*
X192540000Y-70320000D02*
X192540000Y-67894700D01*
X192540000Y-67894700D02*
X184710600Y-60065300D01*
X184710600Y-60065300D02*
X179023200Y-60065300D01*
X179023200Y-60065300D02*
X178215300Y-59257400D01*
X178215300Y-59257400D02*
X178215300Y-58890000D01*
%TO.N,Net-(J3-Pad5)*%
X179580000Y-61430000D02*
X179580000Y-62605300D01*
X179840000Y-70320000D02*
X179840000Y-62865300D01*
X179840000Y-62865300D02*
X179580000Y-62605300D01*
%TO.N,Net-(J3-Pad6)*%
X217940000Y-70320000D02*
X217426400Y-70320000D01*
X217426400Y-70320000D02*
X216670000Y-71076400D01*
%TO.N,/Feather_Board/GREEN*%
X207780000Y-50000000D02*
X207780000Y-52425300D01*
X198265000Y-58950000D02*
X199066200Y-58148800D01*
X199066200Y-58148800D02*
X199066200Y-55889000D01*
X199066200Y-55889000D02*
X200944100Y-54011100D01*
X200944100Y-54011100D02*
X204744100Y-54011100D01*
X204744100Y-54011100D02*
X206329900Y-52425300D01*
X206329900Y-52425300D02*
X207780000Y-52425300D01*
%TO.N,/Feather_Board/RED*%
X205240000Y-50000000D02*
X205240000Y-52425300D01*
X195165000Y-54940000D02*
X195630800Y-54940000D01*
X195630800Y-54940000D02*
X197277300Y-53293500D01*
X197277300Y-53293500D02*
X197277300Y-53010400D01*
X197277300Y-53010400D02*
X197862400Y-52425300D01*
X197862400Y-52425300D02*
X205240000Y-52425300D01*
%TO.N,/Feather_Board/BLUE*%
X210320000Y-50000000D02*
X210320000Y-52425300D01*
X204210000Y-54935000D02*
X204457200Y-54935000D01*
X204457200Y-54935000D02*
X205799600Y-53592600D01*
X205799600Y-53592600D02*
X209152700Y-53592600D01*
X209152700Y-53592600D02*
X210320000Y-52425300D01*
%TD*%
M02*
