%TF.GenerationSoftware,KiCad,Pcbnew,(5.1.9)-1*%
%TF.CreationDate,2021-09-30T02:45:08-04:00*%
%TF.ProjectId,p21014,70323130-3134-42e6-9b69-6361645f7063,rev?*%
%TF.SameCoordinates,Original*%
%TF.FileFunction,Soldermask,Bot*%
%TF.FilePolarity,Negative*%
%FSLAX46Y46*%
G04 Gerber Fmt 4.6, Leading zero omitted, Abs format (unit mm)*
G04 Created by KiCad (PCBNEW (5.1.9)-1) date 2021-09-30 02:45:08*
%MOMM*%
%LPD*%
G01*
G04 APERTURE LIST*
%ADD10C,2.500000*%
%ADD11C,2.040000*%
%ADD12R,0.600000X0.600000*%
%ADD13R,0.500000X0.600000*%
%ADD14R,4.200000X1.270000*%
%ADD15R,1.700000X1.700000*%
%ADD16O,1.700000X1.700000*%
%ADD17R,2.000000X1.800000*%
G04 APERTURE END LIST*
%TO.C,D2*%
G36*
G01*
X194360000Y-70406250D02*
X194360000Y-69493750D01*
G75*
G02*
X194603750Y-69250000I243750J0D01*
G01*
X195091250Y-69250000D01*
G75*
G02*
X195335000Y-69493750I0J-243750D01*
G01*
X195335000Y-70406250D01*
G75*
G02*
X195091250Y-70650000I-243750J0D01*
G01*
X194603750Y-70650000D01*
G75*
G02*
X194360000Y-70406250I0J243750D01*
G01*
G37*
G36*
G01*
X192485000Y-70406250D02*
X192485000Y-69493750D01*
G75*
G02*
X192728750Y-69250000I243750J0D01*
G01*
X193216250Y-69250000D01*
G75*
G02*
X193460000Y-69493750I0J-243750D01*
G01*
X193460000Y-70406250D01*
G75*
G02*
X193216250Y-70650000I-243750J0D01*
G01*
X192728750Y-70650000D01*
G75*
G02*
X192485000Y-70406250I0J243750D01*
G01*
G37*
%TD*%
D10*
%TO.C,MH5*%
X169760000Y-67780000D03*
%TD*%
%TO.C,MH6*%
X169760000Y-52540000D03*
%TD*%
%TO.C,MH4*%
X224290000Y-69050000D03*
%TD*%
%TO.C,MH3*%
X176030000Y-69050000D03*
%TD*%
%TO.C,MH2*%
X224290000Y-51270000D03*
%TD*%
%TO.C,MH1*%
X176030000Y-51270000D03*
%TD*%
D11*
%TO.C,BT1*%
X216490000Y-60160000D03*
X196000000Y-60160000D03*
%TD*%
D12*
%TO.C,D1*%
X189740000Y-70690000D03*
X189740000Y-69340000D03*
X191190000Y-69340000D03*
X191200000Y-70690000D03*
D13*
X190470000Y-70690000D03*
X190480000Y-69340000D03*
%TD*%
D14*
%TO.C,J1*%
X185000000Y-63970000D03*
X185000000Y-66510000D03*
X185000000Y-58890000D03*
X185000000Y-61430000D03*
X185000000Y-56350000D03*
X185000000Y-53810000D03*
%TD*%
D15*
%TO.C,J3*%
X174500000Y-61430000D03*
D16*
X174500000Y-58890000D03*
X177040000Y-61430000D03*
X177040000Y-58890000D03*
X179580000Y-61430000D03*
X179580000Y-58890000D03*
%TD*%
D17*
%TO.C,SW1*%
X189950000Y-49670000D03*
X195550000Y-49670000D03*
%TD*%
M02*
