%TF.GenerationSoftware,KiCad,Pcbnew,(5.1.9)-1*%
%TF.CreationDate,2021-09-30T02:45:08-04:00*%
%TF.ProjectId,p21014,70323130-3134-42e6-9b69-6361645f7063,rev?*%
%TF.SameCoordinates,Original*%
%TF.FileFunction,Paste,Top*%
%TF.FilePolarity,Positive*%
%FSLAX46Y46*%
G04 Gerber Fmt 4.6, Leading zero omitted, Abs format (unit mm)*
G04 Created by KiCad (PCBNEW (5.1.9)-1) date 2021-09-30 02:45:08*
%MOMM*%
%LPD*%
G01*
G04 APERTURE LIST*
%ADD10R,1.270000X4.200000*%
%ADD11R,0.930000X1.840000*%
%ADD12R,3.190000X1.840000*%
G04 APERTURE END LIST*
%TO.C,C1*%
G36*
G01*
X202040000Y-66665000D02*
X202040000Y-66165000D01*
G75*
G02*
X202265000Y-65940000I225000J0D01*
G01*
X202715000Y-65940000D01*
G75*
G02*
X202940000Y-66165000I0J-225000D01*
G01*
X202940000Y-66665000D01*
G75*
G02*
X202715000Y-66890000I-225000J0D01*
G01*
X202265000Y-66890000D01*
G75*
G02*
X202040000Y-66665000I0J225000D01*
G01*
G37*
G36*
G01*
X203590000Y-66665000D02*
X203590000Y-66165000D01*
G75*
G02*
X203815000Y-65940000I225000J0D01*
G01*
X204265000Y-65940000D01*
G75*
G02*
X204490000Y-66165000I0J-225000D01*
G01*
X204490000Y-66665000D01*
G75*
G02*
X204265000Y-66890000I-225000J0D01*
G01*
X203815000Y-66890000D01*
G75*
G02*
X203590000Y-66665000I0J225000D01*
G01*
G37*
%TD*%
%TO.C,C2*%
G36*
G01*
X203690000Y-63655000D02*
X203690000Y-63155000D01*
G75*
G02*
X203915000Y-62930000I225000J0D01*
G01*
X204365000Y-62930000D01*
G75*
G02*
X204590000Y-63155000I0J-225000D01*
G01*
X204590000Y-63655000D01*
G75*
G02*
X204365000Y-63880000I-225000J0D01*
G01*
X203915000Y-63880000D01*
G75*
G02*
X203690000Y-63655000I0J225000D01*
G01*
G37*
G36*
G01*
X202140000Y-63655000D02*
X202140000Y-63155000D01*
G75*
G02*
X202365000Y-62930000I225000J0D01*
G01*
X202815000Y-62930000D01*
G75*
G02*
X203040000Y-63155000I0J-225000D01*
G01*
X203040000Y-63655000D01*
G75*
G02*
X202815000Y-63880000I-225000J0D01*
G01*
X202365000Y-63880000D01*
G75*
G02*
X202140000Y-63655000I0J225000D01*
G01*
G37*
%TD*%
%TO.C,C3*%
G36*
G01*
X198030000Y-66665000D02*
X198030000Y-66165000D01*
G75*
G02*
X198255000Y-65940000I225000J0D01*
G01*
X198705000Y-65940000D01*
G75*
G02*
X198930000Y-66165000I0J-225000D01*
G01*
X198930000Y-66665000D01*
G75*
G02*
X198705000Y-66890000I-225000J0D01*
G01*
X198255000Y-66890000D01*
G75*
G02*
X198030000Y-66665000I0J225000D01*
G01*
G37*
G36*
G01*
X199580000Y-66665000D02*
X199580000Y-66165000D01*
G75*
G02*
X199805000Y-65940000I225000J0D01*
G01*
X200255000Y-65940000D01*
G75*
G02*
X200480000Y-66165000I0J-225000D01*
G01*
X200480000Y-66665000D01*
G75*
G02*
X200255000Y-66890000I-225000J0D01*
G01*
X199805000Y-66890000D01*
G75*
G02*
X199580000Y-66665000I0J225000D01*
G01*
G37*
%TD*%
%TO.C,C4*%
G36*
G01*
X199680000Y-63655000D02*
X199680000Y-63155000D01*
G75*
G02*
X199905000Y-62930000I225000J0D01*
G01*
X200355000Y-62930000D01*
G75*
G02*
X200580000Y-63155000I0J-225000D01*
G01*
X200580000Y-63655000D01*
G75*
G02*
X200355000Y-63880000I-225000J0D01*
G01*
X199905000Y-63880000D01*
G75*
G02*
X199680000Y-63655000I0J225000D01*
G01*
G37*
G36*
G01*
X198130000Y-63655000D02*
X198130000Y-63155000D01*
G75*
G02*
X198355000Y-62930000I225000J0D01*
G01*
X198805000Y-62930000D01*
G75*
G02*
X199030000Y-63155000I0J-225000D01*
G01*
X199030000Y-63655000D01*
G75*
G02*
X198805000Y-63880000I-225000J0D01*
G01*
X198355000Y-63880000D01*
G75*
G02*
X198130000Y-63655000I0J225000D01*
G01*
G37*
%TD*%
%TO.C,C5*%
G36*
G01*
X196445001Y-66940000D02*
X195594999Y-66940000D01*
G75*
G02*
X195345000Y-66690001I0J249999D01*
G01*
X195345000Y-65789999D01*
G75*
G02*
X195594999Y-65540000I249999J0D01*
G01*
X196445001Y-65540000D01*
G75*
G02*
X196695000Y-65789999I0J-249999D01*
G01*
X196695000Y-66690001D01*
G75*
G02*
X196445001Y-66940000I-249999J0D01*
G01*
G37*
G36*
G01*
X196445001Y-64240000D02*
X195594999Y-64240000D01*
G75*
G02*
X195345000Y-63990001I0J249999D01*
G01*
X195345000Y-63089999D01*
G75*
G02*
X195594999Y-62840000I249999J0D01*
G01*
X196445001Y-62840000D01*
G75*
G02*
X196695000Y-63089999I0J-249999D01*
G01*
X196695000Y-63990001D01*
G75*
G02*
X196445001Y-64240000I-249999J0D01*
G01*
G37*
%TD*%
D10*
%TO.C,J4*%
X179840000Y-70320000D03*
X182380000Y-70320000D03*
X187460000Y-70320000D03*
X184920000Y-70320000D03*
X192540000Y-70320000D03*
X190000000Y-70320000D03*
X197620000Y-70320000D03*
X195080000Y-70320000D03*
%TD*%
%TO.C,J5*%
X190000000Y-50000000D03*
X192540000Y-50000000D03*
X197620000Y-50000000D03*
X195080000Y-50000000D03*
X202700000Y-50000000D03*
X200160000Y-50000000D03*
X207780000Y-50000000D03*
X212860000Y-50000000D03*
X205240000Y-50000000D03*
X215400000Y-50000000D03*
X217940000Y-50000000D03*
X210320000Y-50000000D03*
%TD*%
%TO.C,J6*%
X205240000Y-70320000D03*
X207780000Y-70320000D03*
X212860000Y-70320000D03*
X210320000Y-70320000D03*
X217940000Y-70320000D03*
X215400000Y-70320000D03*
%TD*%
%TO.C,R1*%
G36*
G01*
X198540000Y-59350000D02*
X197990000Y-59350000D01*
G75*
G02*
X197790000Y-59150000I0J200000D01*
G01*
X197790000Y-58750000D01*
G75*
G02*
X197990000Y-58550000I200000J0D01*
G01*
X198540000Y-58550000D01*
G75*
G02*
X198740000Y-58750000I0J-200000D01*
G01*
X198740000Y-59150000D01*
G75*
G02*
X198540000Y-59350000I-200000J0D01*
G01*
G37*
G36*
G01*
X198540000Y-57700000D02*
X197990000Y-57700000D01*
G75*
G02*
X197790000Y-57500000I0J200000D01*
G01*
X197790000Y-57100000D01*
G75*
G02*
X197990000Y-56900000I200000J0D01*
G01*
X198540000Y-56900000D01*
G75*
G02*
X198740000Y-57100000I0J-200000D01*
G01*
X198740000Y-57500000D01*
G75*
G02*
X198540000Y-57700000I-200000J0D01*
G01*
G37*
%TD*%
%TO.C,R2*%
G36*
G01*
X195440000Y-53690000D02*
X194890000Y-53690000D01*
G75*
G02*
X194690000Y-53490000I0J200000D01*
G01*
X194690000Y-53090000D01*
G75*
G02*
X194890000Y-52890000I200000J0D01*
G01*
X195440000Y-52890000D01*
G75*
G02*
X195640000Y-53090000I0J-200000D01*
G01*
X195640000Y-53490000D01*
G75*
G02*
X195440000Y-53690000I-200000J0D01*
G01*
G37*
G36*
G01*
X195440000Y-55340000D02*
X194890000Y-55340000D01*
G75*
G02*
X194690000Y-55140000I0J200000D01*
G01*
X194690000Y-54740000D01*
G75*
G02*
X194890000Y-54540000I200000J0D01*
G01*
X195440000Y-54540000D01*
G75*
G02*
X195640000Y-54740000I0J-200000D01*
G01*
X195640000Y-55140000D01*
G75*
G02*
X195440000Y-55340000I-200000J0D01*
G01*
G37*
%TD*%
%TO.C,R3*%
G36*
G01*
X204485000Y-53685000D02*
X203935000Y-53685000D01*
G75*
G02*
X203735000Y-53485000I0J200000D01*
G01*
X203735000Y-53085000D01*
G75*
G02*
X203935000Y-52885000I200000J0D01*
G01*
X204485000Y-52885000D01*
G75*
G02*
X204685000Y-53085000I0J-200000D01*
G01*
X204685000Y-53485000D01*
G75*
G02*
X204485000Y-53685000I-200000J0D01*
G01*
G37*
G36*
G01*
X204485000Y-55335000D02*
X203935000Y-55335000D01*
G75*
G02*
X203735000Y-55135000I0J200000D01*
G01*
X203735000Y-54735000D01*
G75*
G02*
X203935000Y-54535000I200000J0D01*
G01*
X204485000Y-54535000D01*
G75*
G02*
X204685000Y-54735000I0J-200000D01*
G01*
X204685000Y-55135000D01*
G75*
G02*
X204485000Y-55335000I-200000J0D01*
G01*
G37*
%TD*%
%TO.C,R4*%
G36*
G01*
X201545000Y-59345000D02*
X200995000Y-59345000D01*
G75*
G02*
X200795000Y-59145000I0J200000D01*
G01*
X200795000Y-58745000D01*
G75*
G02*
X200995000Y-58545000I200000J0D01*
G01*
X201545000Y-58545000D01*
G75*
G02*
X201745000Y-58745000I0J-200000D01*
G01*
X201745000Y-59145000D01*
G75*
G02*
X201545000Y-59345000I-200000J0D01*
G01*
G37*
G36*
G01*
X201545000Y-57695000D02*
X200995000Y-57695000D01*
G75*
G02*
X200795000Y-57495000I0J200000D01*
G01*
X200795000Y-57095000D01*
G75*
G02*
X200995000Y-56895000I200000J0D01*
G01*
X201545000Y-56895000D01*
G75*
G02*
X201745000Y-57095000I0J-200000D01*
G01*
X201745000Y-57495000D01*
G75*
G02*
X201545000Y-57695000I-200000J0D01*
G01*
G37*
%TD*%
%TO.C,R5*%
G36*
G01*
X201545000Y-53665000D02*
X200995000Y-53665000D01*
G75*
G02*
X200795000Y-53465000I0J200000D01*
G01*
X200795000Y-53065000D01*
G75*
G02*
X200995000Y-52865000I200000J0D01*
G01*
X201545000Y-52865000D01*
G75*
G02*
X201745000Y-53065000I0J-200000D01*
G01*
X201745000Y-53465000D01*
G75*
G02*
X201545000Y-53665000I-200000J0D01*
G01*
G37*
G36*
G01*
X201545000Y-55315000D02*
X200995000Y-55315000D01*
G75*
G02*
X200795000Y-55115000I0J200000D01*
G01*
X200795000Y-54715000D01*
G75*
G02*
X200995000Y-54515000I200000J0D01*
G01*
X201545000Y-54515000D01*
G75*
G02*
X201745000Y-54715000I0J-200000D01*
G01*
X201745000Y-55115000D01*
G75*
G02*
X201545000Y-55315000I-200000J0D01*
G01*
G37*
%TD*%
%TO.C,R6*%
G36*
G01*
X198540000Y-55340000D02*
X197990000Y-55340000D01*
G75*
G02*
X197790000Y-55140000I0J200000D01*
G01*
X197790000Y-54740000D01*
G75*
G02*
X197990000Y-54540000I200000J0D01*
G01*
X198540000Y-54540000D01*
G75*
G02*
X198740000Y-54740000I0J-200000D01*
G01*
X198740000Y-55140000D01*
G75*
G02*
X198540000Y-55340000I-200000J0D01*
G01*
G37*
G36*
G01*
X198540000Y-53690000D02*
X197990000Y-53690000D01*
G75*
G02*
X197790000Y-53490000I0J200000D01*
G01*
X197790000Y-53090000D01*
G75*
G02*
X197990000Y-52890000I200000J0D01*
G01*
X198540000Y-52890000D01*
G75*
G02*
X198740000Y-53090000I0J-200000D01*
G01*
X198740000Y-53490000D01*
G75*
G02*
X198540000Y-53690000I-200000J0D01*
G01*
G37*
%TD*%
%TO.C,R7*%
G36*
G01*
X204485000Y-59360000D02*
X203935000Y-59360000D01*
G75*
G02*
X203735000Y-59160000I0J200000D01*
G01*
X203735000Y-58760000D01*
G75*
G02*
X203935000Y-58560000I200000J0D01*
G01*
X204485000Y-58560000D01*
G75*
G02*
X204685000Y-58760000I0J-200000D01*
G01*
X204685000Y-59160000D01*
G75*
G02*
X204485000Y-59360000I-200000J0D01*
G01*
G37*
G36*
G01*
X204485000Y-57710000D02*
X203935000Y-57710000D01*
G75*
G02*
X203735000Y-57510000I0J200000D01*
G01*
X203735000Y-57110000D01*
G75*
G02*
X203935000Y-56910000I200000J0D01*
G01*
X204485000Y-56910000D01*
G75*
G02*
X204685000Y-57110000I0J-200000D01*
G01*
X204685000Y-57510000D01*
G75*
G02*
X204485000Y-57710000I-200000J0D01*
G01*
G37*
%TD*%
D11*
%TO.C,VR1*%
X206340000Y-63165000D03*
X208640000Y-63165000D03*
X210940000Y-63165000D03*
D12*
X208640000Y-56995000D03*
%TD*%
M02*
