%TF.GenerationSoftware,KiCad,Pcbnew,(5.1.9)-1*%
%TF.CreationDate,2021-09-30T02:45:08-04:00*%
%TF.ProjectId,p21014,70323130-3134-42e6-9b69-6361645f7063,rev?*%
%TF.SameCoordinates,Original*%
%TF.FileFunction,Copper,L2,Bot*%
%TF.FilePolarity,Positive*%
%FSLAX46Y46*%
G04 Gerber Fmt 4.6, Leading zero omitted, Abs format (unit mm)*
G04 Created by KiCad (PCBNEW (5.1.9)-1) date 2021-09-30 02:45:08*
%MOMM*%
%LPD*%
G01*
G04 APERTURE LIST*
%TA.AperFunction,ComponentPad*%
%ADD10C,2.040000*%
%TD*%
%TA.AperFunction,SMDPad,CuDef*%
%ADD11R,0.600000X0.600000*%
%TD*%
%TA.AperFunction,SMDPad,CuDef*%
%ADD12R,0.500000X0.600000*%
%TD*%
%TA.AperFunction,SMDPad,CuDef*%
%ADD13R,4.200000X1.270000*%
%TD*%
%TA.AperFunction,ComponentPad*%
%ADD14R,1.700000X1.700000*%
%TD*%
%TA.AperFunction,ComponentPad*%
%ADD15O,1.700000X1.700000*%
%TD*%
%TA.AperFunction,SMDPad,CuDef*%
%ADD16R,2.000000X1.800000*%
%TD*%
%TA.AperFunction,ViaPad*%
%ADD17C,0.800000*%
%TD*%
%TA.AperFunction,Conductor*%
%ADD18C,0.250000*%
%TD*%
G04 APERTURE END LIST*
%TO.P,D2,2*%
%TO.N,Net-(D2-Pad2)*%
%TA.AperFunction,SMDPad,CuDef*%
G36*
G01*
X194360000Y-70406250D02*
X194360000Y-69493750D01*
G75*
G02*
X194603750Y-69250000I243750J0D01*
G01*
X195091250Y-69250000D01*
G75*
G02*
X195335000Y-69493750I0J-243750D01*
G01*
X195335000Y-70406250D01*
G75*
G02*
X195091250Y-70650000I-243750J0D01*
G01*
X194603750Y-70650000D01*
G75*
G02*
X194360000Y-70406250I0J243750D01*
G01*
G37*
%TD.AperFunction*%
%TO.P,D2,1*%
%TO.N,GNDREF*%
%TA.AperFunction,SMDPad,CuDef*%
G36*
G01*
X192485000Y-70406250D02*
X192485000Y-69493750D01*
G75*
G02*
X192728750Y-69250000I243750J0D01*
G01*
X193216250Y-69250000D01*
G75*
G02*
X193460000Y-69493750I0J-243750D01*
G01*
X193460000Y-70406250D01*
G75*
G02*
X193216250Y-70650000I-243750J0D01*
G01*
X192728750Y-70650000D01*
G75*
G02*
X192485000Y-70406250I0J243750D01*
G01*
G37*
%TD.AperFunction*%
%TD*%
D10*
%TO.P,BT1,2*%
%TO.N,GNDREF*%
X216490000Y-60160000D03*
%TO.P,BT1,1*%
%TO.N,Net-(BT1-Pad1)*%
X196000000Y-60160000D03*
%TD*%
D11*
%TO.P,D1,6*%
%TO.N,GNDREF*%
X189740000Y-70690000D03*
%TO.P,D1,1*%
%TO.N,Net-(D1-Pad1)*%
X189740000Y-69340000D03*
%TO.P,D1,3*%
%TO.N,Net-(D1-Pad3)*%
X191190000Y-69340000D03*
%TO.P,D1,4*%
%TO.N,GNDREF*%
X191200000Y-70690000D03*
D12*
%TO.P,D1,5*%
X190470000Y-70690000D03*
%TO.P,D1,2*%
%TO.N,Net-(D1-Pad2)*%
X190480000Y-69340000D03*
%TD*%
D13*
%TO.P,J1,5*%
%TO.N,/SCL*%
X185000000Y-63970000D03*
%TO.P,J1,6*%
%TO.N,/RST*%
X185000000Y-66510000D03*
%TO.P,J1,3*%
%TO.N,GNDREF*%
X185000000Y-58890000D03*
%TO.P,J1,4*%
%TO.N,/SDA*%
X185000000Y-61430000D03*
%TO.P,J1,2*%
%TO.N,/IMU_A/3v*%
X185000000Y-56350000D03*
%TO.P,J1,1*%
%TO.N,+5V*%
X185000000Y-53810000D03*
%TD*%
D14*
%TO.P,J3,1*%
%TO.N,Net-(J3-Pad1)*%
X174500000Y-61430000D03*
D15*
%TO.P,J3,2*%
%TO.N,Net-(J3-Pad2)*%
X174500000Y-58890000D03*
%TO.P,J3,3*%
%TO.N,Net-(J3-Pad3)*%
X177040000Y-61430000D03*
%TO.P,J3,4*%
%TO.N,Net-(J3-Pad4)*%
X177040000Y-58890000D03*
%TO.P,J3,5*%
%TO.N,Net-(J3-Pad5)*%
X179580000Y-61430000D03*
%TO.P,J3,6*%
%TO.N,Net-(J3-Pad6)*%
X179580000Y-58890000D03*
%TD*%
D16*
%TO.P,SW1,1*%
%TO.N,Net-(BT1-Pad1)*%
X189950000Y-49670000D03*
%TO.P,SW1,2*%
%TO.N,+BATT*%
X195550000Y-49670000D03*
%TD*%
D17*
%TO.N,GNDREF*%
X188730000Y-70701100D03*
X192131700Y-53586700D03*
%TO.N,+BATT*%
X201176900Y-59969600D03*
%TO.N,+5V*%
X189748900Y-52710300D03*
%TO.N,Net-(D1-Pad1)*%
X195273000Y-57881100D03*
%TO.N,Net-(D1-Pad3)*%
X196247900Y-53290000D03*
%TO.N,Net-(D1-Pad2)*%
X202604200Y-53285000D03*
%TO.N,Net-(D2-Pad2)*%
X202071200Y-61152000D03*
%TO.N,/SCL*%
X199400500Y-53290000D03*
X205290300Y-55200900D03*
%TO.N,/RST*%
X205326100Y-58960000D03*
X201430000Y-49243400D03*
%TO.N,/SDA*%
X193939300Y-58146100D03*
%TO.N,Net-(J3-Pad1)*%
X209050000Y-71076400D03*
%TO.N,Net-(J3-Pad3)*%
X198890800Y-72174300D03*
%TO.N,Net-(J3-Pad6)*%
X216670000Y-71076400D03*
%TD*%
D18*
%TO.N,GNDREF*%
X185000000Y-58890000D02*
X182574700Y-58890000D01*
X182574700Y-58890000D02*
X182120700Y-59344000D01*
X182120700Y-59344000D02*
X182120700Y-66830200D01*
X182120700Y-66830200D02*
X185991600Y-70701100D01*
X185991600Y-70701100D02*
X188730000Y-70701100D01*
X186212700Y-58890000D02*
X185000000Y-58890000D01*
X186212700Y-58890000D02*
X187425300Y-58890000D01*
X189740000Y-70690000D02*
X189114700Y-70690000D01*
X189114700Y-70690000D02*
X189103600Y-70701100D01*
X189103600Y-70701100D02*
X188730000Y-70701100D01*
X190470000Y-70690000D02*
X189740000Y-70690000D01*
X216490000Y-60160000D02*
X207855200Y-60160000D01*
X207855200Y-60160000D02*
X197028600Y-70986600D01*
X197028600Y-70986600D02*
X193365000Y-70986600D01*
X193365000Y-70986600D02*
X192972500Y-70594100D01*
X191200000Y-70690000D02*
X190470000Y-70690000D01*
X187425300Y-58890000D02*
X187425300Y-58293100D01*
X187425300Y-58293100D02*
X192131700Y-53586700D01*
X192972500Y-70594100D02*
X191921200Y-70594100D01*
X191921200Y-70594100D02*
X191825300Y-70690000D01*
X192972500Y-69950000D02*
X192972500Y-70594100D01*
X191200000Y-70690000D02*
X191825300Y-70690000D01*
%TO.N,Net-(BT1-Pad1)*%
X196000000Y-60160000D02*
X196000000Y-55772200D01*
X196000000Y-55772200D02*
X191123100Y-50895300D01*
X191123100Y-50895300D02*
X189950000Y-50895300D01*
X189950000Y-49670000D02*
X189950000Y-50895300D01*
%TO.N,+BATT*%
X195550000Y-49670000D02*
X195550000Y-50895300D01*
X195550000Y-50895300D02*
X201176900Y-56522200D01*
X201176900Y-56522200D02*
X201176900Y-59969600D01*
%TO.N,+5V*%
X185000000Y-53810000D02*
X188649200Y-53810000D01*
X188649200Y-53810000D02*
X189748900Y-52710300D01*
%TO.N,Net-(D1-Pad1)*%
X189740000Y-69340000D02*
X189740000Y-63414100D01*
X189740000Y-63414100D02*
X195273000Y-57881100D01*
%TO.N,Net-(D1-Pad3)*%
X191190000Y-68714700D02*
X197834700Y-62070000D01*
X197834700Y-62070000D02*
X197834700Y-54876800D01*
X197834700Y-54876800D02*
X196247900Y-53290000D01*
X191190000Y-69340000D02*
X191190000Y-68714700D01*
%TO.N,Net-(D1-Pad2)*%
X190480000Y-69340000D02*
X190480000Y-67642700D01*
X190480000Y-67642700D02*
X197384300Y-60738400D01*
X197384300Y-60738400D02*
X197384300Y-55980500D01*
X197384300Y-55980500D02*
X194168200Y-52764400D01*
X194168200Y-52764400D02*
X194168200Y-48634300D01*
X194168200Y-48634300D02*
X194357900Y-48444600D01*
X194357900Y-48444600D02*
X197763800Y-48444600D01*
X197763800Y-48444600D02*
X202604200Y-53285000D01*
%TO.N,Net-(D2-Pad2)*%
X194847500Y-69950000D02*
X202071200Y-62726300D01*
X202071200Y-62726300D02*
X202071200Y-61152000D01*
%TO.N,/SCL*%
X201904000Y-55577900D02*
X202281000Y-55200900D01*
X202281000Y-55200900D02*
X205290300Y-55200900D01*
X201904000Y-55577900D02*
X201688400Y-55577900D01*
X201688400Y-55577900D02*
X199400500Y-53290000D01*
X201904000Y-55577900D02*
X201904000Y-60279300D01*
X201904000Y-60279300D02*
X193587700Y-68595600D01*
X193587700Y-68595600D02*
X192802400Y-68595600D01*
X192802400Y-68595600D02*
X192158700Y-69239300D01*
X192158700Y-69239300D02*
X192158700Y-69511700D01*
X192158700Y-69511700D02*
X191705000Y-69965400D01*
X191705000Y-69965400D02*
X189242800Y-69965400D01*
X189242800Y-69965400D02*
X187425300Y-68147900D01*
X187425300Y-68147900D02*
X187425300Y-63970000D01*
X185000000Y-63970000D02*
X187425300Y-63970000D01*
%TO.N,/RST*%
X201430000Y-49243400D02*
X206020100Y-53833500D01*
X206020100Y-53833500D02*
X206020100Y-58266000D01*
X206020100Y-58266000D02*
X205326100Y-58960000D01*
X182574700Y-66510000D02*
X182574700Y-60594300D01*
X182574700Y-60594300D02*
X183318600Y-59850400D01*
X183318600Y-59850400D02*
X187336500Y-59850400D01*
X187336500Y-59850400D02*
X192883100Y-54303800D01*
X192883100Y-54303800D02*
X192883100Y-53302200D01*
X192883100Y-53302200D02*
X190926600Y-51345700D01*
X190926600Y-51345700D02*
X189265500Y-51345700D01*
X189265500Y-51345700D02*
X188624600Y-50704800D01*
X188624600Y-50704800D02*
X188624600Y-48587100D01*
X188624600Y-48587100D02*
X189261100Y-47950600D01*
X189261100Y-47950600D02*
X200137200Y-47950600D01*
X200137200Y-47950600D02*
X201430000Y-49243400D01*
X185000000Y-66510000D02*
X182574700Y-66510000D01*
%TO.N,/SDA*%
X185000000Y-61430000D02*
X190655400Y-61430000D01*
X190655400Y-61430000D02*
X193939300Y-58146100D01*
%TO.N,Net-(J3-Pad1)*%
X175675300Y-61430000D02*
X175675300Y-61062600D01*
X175675300Y-61062600D02*
X176483200Y-60254700D01*
X176483200Y-60254700D02*
X177555500Y-60254700D01*
X177555500Y-60254700D02*
X178404600Y-61103800D01*
X178404600Y-61103800D02*
X178404600Y-64387900D01*
X178404600Y-64387900D02*
X185903900Y-71887200D01*
X185903900Y-71887200D02*
X197626900Y-71887200D01*
X197626900Y-71887200D02*
X198437700Y-71076400D01*
X198437700Y-71076400D02*
X209050000Y-71076400D01*
X174500000Y-61430000D02*
X175675300Y-61430000D01*
%TO.N,Net-(J3-Pad3)*%
X177040000Y-62605300D02*
X177040000Y-63660200D01*
X177040000Y-63660200D02*
X185717300Y-72337500D01*
X185717300Y-72337500D02*
X198727600Y-72337500D01*
X198727600Y-72337500D02*
X198890800Y-72174300D01*
X177040000Y-61430000D02*
X177040000Y-62605300D01*
%TO.N,Net-(J3-Pad6)*%
X179580000Y-60065300D02*
X179947300Y-60065300D01*
X179947300Y-60065300D02*
X181352700Y-61470700D01*
X181352700Y-61470700D02*
X181352700Y-66699100D01*
X181352700Y-66699100D02*
X186090500Y-71436900D01*
X186090500Y-71436900D02*
X197215400Y-71436900D01*
X197215400Y-71436900D02*
X198324800Y-70327500D01*
X198324800Y-70327500D02*
X215921100Y-70327500D01*
X215921100Y-70327500D02*
X216670000Y-71076400D01*
X179580000Y-58890000D02*
X179580000Y-60065300D01*
%TD*%
M02*
