M48
; DRILL file {KiCad (5.1.9)-1} date 09/30/21 02:45:11
; FORMAT={-:-/ absolute / inch / decimal}
; #@! TF.CreationDate,2021-09-30T02:45:11-04:00
; #@! TF.GenerationSoftware,Kicad,Pcbnew,(5.1.9)-1
; #@! TF.FileFunction,Plated,1,2,PTH
FMAT,2
INCH
T1C0.0157
T2C0.0394
T3C0.0512
%
G90
G05
T1
X7.4303Y-2.7835
X7.4704Y-2.0752
X7.5642Y-2.1097
X7.6354Y-2.2892
X7.6879Y-2.2788
X7.7263Y-2.098
X7.8303Y-2.8415
X7.8504Y-2.098
X7.9204Y-2.361
X7.9303Y-1.9387
X7.9556Y-2.4076
X7.9765Y-2.0978
X8.0823Y-2.1733
X8.0837Y-2.3213
X8.2303Y-2.7983
X8.5303Y-2.7983
T2
X6.8701Y-2.3185
X6.8701Y-2.4185
X6.9701Y-2.3185
X6.9701Y-2.4185
X7.0701Y-2.3185
X7.0701Y-2.4185
T3
X7.7165Y-2.3685
X8.5232Y-2.3685
T0
M30
